<?xml version="1.0" encoding="utf-8"?>
<!-- Generator: Adobe Illustrator 14.0.0, SVG Export Plug-In . SVG Version: 6.00 Build 43363)  -->
<!DOCTYPE svg PUBLIC "-//W3C//DTD SVG 1.1//EN" "http://www.w3.org/Graphics/SVG/1.1/DTD/svg11.dtd">
<svg version="1.1" id="Layer_1" xmlns="http://www.w3.org/2000/svg" xmlns:xlink="http://www.w3.org/1999/xlink" x="0px" y="0px"
	 width="64px" height="64px" viewBox="0 0 64 64" enable-background="new 0 0 64 64" xml:space="preserve">
<g>
	<path fill="#030303" d="M49.33,1.439C36.204,1.43,33.417,14.251,33.417,14.251l5.215,6.473l-4.314,5.573l5.483,5.035l-9.44,7.642
		l6.383,8.631l-7.552,6.563l1.978,5.843l-5.214-7.013l6.203-6.024l-6.653-8.36l9.53-7.462l-5.035-5.303l6.563-4.855l-5.214-5.664
		c0,0-0.271-13.218-15.823-13.891C-0.025,0.766-0.025,18.207-0.025,18.207v4.046c0,0,23.466,37.489,28.949,39.468
		c5.483,1.977,6.652-0.091,7.191,0c0.539,0.088,26.431-35.871,27.6-39.468C63.715,22.253,67.222,5.037,49.33,1.439"/>
	<path fill="#FFFFFF" d="M46.633,10.565c0,0,1.012-3.203,4.046-1.213c2.426,1.591,3.821,1.322,5.439,5.889
		c0.404,1.143,0.898,2.607,1.078,4.45c0,0-1.573,2.876-3.281-0.989s-1.528-4.225-5.844-6.158
		C48.071,12.544,46.768,11.913,46.633,10.565z"/>
</g>
</svg>
