<?xml version="1.0" encoding="utf-8"?>
<!-- Generator: Adobe Illustrator 14.0.0, SVG Export Plug-In . SVG Version: 6.00 Build 43363)  -->
<!DOCTYPE svg PUBLIC "-//W3C//DTD SVG 1.1//EN" "http://www.w3.org/Graphics/SVG/1.1/DTD/svg11.dtd">
<svg version="1.1" id="Layer_1" xmlns="http://www.w3.org/2000/svg" xmlns:xlink="http://www.w3.org/1999/xlink" x="0px" y="0px"
	 width="64px" height="64px" viewBox="0 0 64 64" enable-background="new 0 0 64 64" xml:space="preserve">
<g>
	<path fill="#090909" d="M20.014,14.332c0,0-12.688,0-12.688,16.69c0,16.688,27.354,32.976,27.354,32.976
		S61.835,47.71,61.835,31.021c0-16.69-12.685-16.69-12.685-16.69S34.68,14.421,34.68,25.391
		C34.68,25.391,32.697,14.332,20.014,14.332z"/>
	<polygon fill="#FFFFFF" points="31.574,36.177 34.581,33.45 9.341,3.592 5.918,6.932 	"/>
	<circle fill="#FFFFFF" cx="35.163" cy="37.345" r="4.341"/>
	<polygon fill="#030303" points="35.265,39.165 36.972,37.513 8.145,4.455 6.809,5.902 	"/>
	<path fill="#FFFEFE" d="M57.451,30.222h-3.617c0,0-1.113-8.125-7.958-8.069V17.7C45.876,17.7,57.507,18.591,57.451,30.222z"/>
	<polygon fill="#030303" points="50.739,56.592 52.312,55.274 49.97,52.309 48.422,53.656 	"/>
	<polygon fill="#030303" points="50.13,58.826 53.34,57.495 54.558,54.283 59.204,63.487 	"/>
	<polygon fill="#010101" points="10.315,0.003 15.546,6.18 14.482,9.674 9.341,3.592 	"/>
	<polygon fill="#010101" points="6.085,6.959 11.316,13.137 6.523,12.188 2.134,6.959 	"/>
</g>
</svg>
