<?xml version="1.0" encoding="utf-8"?>
<!-- Generator: Adobe Illustrator 14.0.0, SVG Export Plug-In . SVG Version: 6.00 Build 43363)  -->
<!DOCTYPE svg PUBLIC "-//W3C//DTD SVG 1.1//EN" "http://www.w3.org/Graphics/SVG/1.1/DTD/svg11.dtd">
<svg version="1.1" id="Layer_1" xmlns="http://www.w3.org/2000/svg" xmlns:xlink="http://www.w3.org/1999/xlink" x="0px" y="0px"
	 width="64px" height="64px" viewBox="0 0 64 64" enable-background="new 0 0 64 64" xml:space="preserve">
<g>
	<polygon fill="#010101" points="7.769,34.895 7.769,3.509 56.146,3.509 56.146,34.895 56.146,60.592 43.647,60.592 43.647,63.962 
		59.375,63.962 59.375,34.965 59.375,0.069 28.061,0.069 4.469,0.069 4.469,34.824 	"/>
	<rect x="38.101" y="45.988" fill="#010101" width="11.234" height="1.123"/>
	<rect x="39.294" y="49.358" fill="#010101" width="10.041" height="1.123"/>
	<rect x="40.277" y="52.729" fill="#010101" width="9.058" height="1.123"/>
	<rect x="41.4" y="56.099" fill="#010101" width="7.935" height="1.123"/>
	<polygon fill="#010101" points="37.749,59.469 8.822,38.194 28.412,31.033 	"/>
	<path fill="#030303" d="M39.447,11.723c0,0-4.241,0-4.241,6.921c0,6.918,9.142,13.673,9.142,13.673s9.077-6.755,9.077-13.673
		c0-6.921-4.241-6.921-4.241-6.921s-4.836,0.037-4.836,4.587C44.348,16.31,43.687,11.723,39.447,11.723z"/>
	<path fill="#FFFFFF" d="M40.598,15.087c0,0-3.238,0-3.238,5.013c0,5.013,6.981,9.907,6.981,9.907s6.931-4.894,6.931-9.907
		c0-5.013-3.238-5.013-3.238-5.013s-3.692,0.026-3.692,3.323C44.341,18.41,43.836,15.087,40.598,15.087z"/>
	<path fill="#030303" d="M15.154,11.723c0,0-4.242,0-4.242,6.921c0,6.918,9.142,13.673,9.142,13.673s9.077-6.755,9.077-13.673
		c0-6.921-4.241-6.921-4.241-6.921s-4.836,0.037-4.836,4.587C20.054,16.31,19.393,11.723,15.154,11.723z"/>
	<path fill="#FFFFFF" d="M16.305,15.087c0,0-3.239,0-3.239,5.013c0,5.013,6.98,9.907,6.98,9.907s6.932-4.894,6.932-9.907
		c0-5.013-3.239-5.013-3.239-5.013s-3.693,0.026-3.693,3.323C20.046,18.41,19.542,15.087,16.305,15.087z"/>
	<path fill="#030303" d="M27.055,8.985c0,0-4.241,0-4.241,6.921c0,6.918,9.141,13.673,9.141,13.673s9.078-6.755,9.078-13.673
		c0-6.921-4.241-6.921-4.241-6.921s-4.836,0.037-4.836,4.587C31.955,13.572,31.294,8.985,27.055,8.985z"/>
</g>
</svg>
