<?xml version="1.0" encoding="utf-8"?>
<!-- Generator: Adobe Illustrator 14.0.0, SVG Export Plug-In . SVG Version: 6.00 Build 43363)  -->
<!DOCTYPE svg PUBLIC "-//W3C//DTD SVG 1.1//EN" "http://www.w3.org/Graphics/SVG/1.1/DTD/svg11.dtd">
<svg version="1.1" id="Layer_1" xmlns="http://www.w3.org/2000/svg" xmlns:xlink="http://www.w3.org/1999/xlink" x="0px" y="0px"
	 width="64px" height="64px" viewBox="0 0 64 64" enable-background="new 0 0 64 64" xml:space="preserve">
<g>
	<path fill="#070707" d="M13.822,4.713H8.787c0,0-7.971,0.293-8.529,7.55c-0.542,7.041,0,29.516,0,29.516s1.65,8.123,6.511,8.394
		s49.133,0,49.133,0s7.854-0.948,7.988-8.665c0.136-7.717,0-26.943,0-26.943s-2.562-9.934-8.529-9.852
		C49.394,4.796,13.822,4.713,13.822,4.713z"/>
	<path fill="#FFFFFF" d="M6.531,42.953l13.81-23.287L9.42,10.459c0,0-2.527-1.082-4.693,3.43v27.168
		C4.727,41.058,4.636,42.682,6.531,42.953z"/>
	<path fill="#FFFFFF" d="M58.033,43.585L44.646,20.297l10.587-9.207c0,0,2.449-1.082,4.55,3.431v27.167
		C59.782,41.688,59.87,43.313,58.033,43.585z"/>
	<polygon fill="#FFFFFF" points="40.74,21.664 54.821,45.931 9.149,45.931 23.071,21.664 32.347,28.241 	"/>
	<path fill="#FFFFFF" d="M27.864,7.422c0,0-3.588,0-3.588,5.556c0,5.557,7.736,10.979,7.736,10.979s7.681-5.422,7.681-10.979
		c0-5.556-3.59-5.556-3.59-5.556s-4.091,0.03-4.091,3.681C32.012,11.104,31.451,7.422,27.864,7.422z"/>
	<path fill="#010101" d="M38.069,13.896h-1.251c0,0-0.386-2.569-2.754-2.551V9.939C34.064,9.939,38.089,10.219,38.069,13.896z"/>
	<path fill="#070707" d="M21.341,32.576H18.39c0,0-4.672,0.172-4.999,4.426c-0.319,4.125,0,17.296,0,17.296s0.966,4.761,3.815,4.92
		c2.85,0.157,28.794,0,28.794,0s4.602-0.556,4.683-5.078c0.077-4.523,0-15.789,0-15.789s-1.502-5.822-5.001-5.774
		C42.186,32.625,21.341,32.576,21.341,32.576z"/>
	<path fill="#FFFFFF" d="M17.067,54.987L25.16,41.34l-6.399-5.397c0,0-1.481-0.633-2.75,2.012v15.921
		C16.01,53.875,15.958,54.827,17.067,54.987z"/>
	<path fill="#FFFFFF" d="M47.249,55.355l-7.845-13.646l6.204-5.395c0,0,1.435-0.636,2.666,2.009v15.922
		C48.274,54.245,48.326,55.198,47.249,55.355z"/>
	<polygon fill="#FFFFFF" points="37.115,42.51 45.367,56.731 18.603,56.731 26.76,42.51 32.197,46.364 	"/>
	<path fill="#FFFFFF" d="M29.569,34.164c0,0-2.103,0-2.103,3.256S32,43.855,32,43.855s4.502-3.18,4.502-6.436
		s-2.104-3.256-2.104-3.256S32,34.183,32,36.32C32,36.32,31.672,34.164,29.569,34.164z"/>
	<path fill="#010101" d="M35.55,37.96h-0.732c0,0-0.228-1.508-1.614-1.497v-0.824C33.203,35.639,35.563,35.804,35.55,37.96z"/>
</g>
</svg>
