<?xml version="1.0" encoding="utf-8"?>
<!-- Generator: Adobe Illustrator 14.0.0, SVG Export Plug-In . SVG Version: 6.00 Build 43363)  -->
<!DOCTYPE svg PUBLIC "-//W3C//DTD SVG 1.1//EN" "http://www.w3.org/Graphics/SVG/1.1/DTD/svg11.dtd">
<svg version="1.1" id="Layer_1" xmlns="http://www.w3.org/2000/svg" xmlns:xlink="http://www.w3.org/1999/xlink" x="0px" y="0px"
	 width="64px" height="64px" viewBox="0 0 64 64" enable-background="new 0 0 64 64" xml:space="preserve">
<g>
	<path fill="none" stroke="#030303" stroke-width="0.5" d="M19.481,5.268c0,0-7.175,0-7.175,11.112
		c0,11.111,15.471,21.955,15.471,21.955s15.36-10.844,15.36-21.955c0-11.112-7.176-11.112-7.176-11.112s-8.184,0.06-8.184,7.363
		C27.777,12.631,26.656,5.268,19.481,5.268z"/>
	<path fill="#030303" d="M35.481,17.488c0,0-6.297,0-6.297,9.711c0,9.711,13.528,19.188,13.528,19.188s13.529-9.477,13.529-19.188
		c0-9.711-6.328-9.923-6.328-9.923s-7.152-0.175-7.152,3.384C42.762,20.66,41.78,17.488,35.481,17.488z"/>
	<path fill="#FFFFFF" d="M52.448,26.535h-1.556c0,0-0.479-3.194-3.425-3.172v-1.75C47.468,21.614,52.472,21.962,52.448,26.535z"/>
	<path fill="#030303" d="M16.998,0.376c0,0-9.336,0-9.336,14.399s20.06,28.451,20.06,28.451s20.06-14.051,20.06-28.451
		S38.399,0.063,38.399,0.063S27.794-0.198,27.794,5.08C27.794,5.08,26.336,0.376,16.998,0.376z"/>
	<path fill="#FFFFFF" d="M19.481,5.08c0,0-7.175,0-7.175,11.112c0,11.111,15.471,21.956,15.471,21.956s15.36-10.844,15.36-21.956
		c0-11.112-7.176-11.112-7.176-11.112s-8.184,0.06-8.184,7.363C27.777,12.442,26.656,5.08,19.481,5.08z"/>
	<path fill="#010101" d="M39.891,18.029h-2.503c0,0-0.771-5.138-5.507-5.103v-2.814C31.88,10.112,39.929,10.674,39.891,18.029z"/>
	<path fill="#010101" d="M10.956,63.626h1.976c0,0,0.218-6.279,4.654-6.323c4.436-0.044,7.158,0,7.158,0s2.811-1.011,2.942-2.855
		c0.132-1.844,0-8.563,0-8.563l0.035-2.658l-2.17-1.644l-0.104,7.42v2.591c0,0,0.746,2.985-2.416,3.249s-7.772,0.089-7.772,0.089
		S11.219,56.293,10.956,63.626z"/>
	<path fill="#010101" d="M25.382,63.537h2.255c0,0,0.248-6.054,5.309-6.097c5.06-0.042,8.166,0,8.166,0s3.205-0.974,3.355-2.752
		s0-8.256,0-8.256l0.04-2.563l-2.476-1.585l-0.118,7.153v2.498c0,0,0.851,2.879-2.756,3.133c-3.607,0.254-8.866,0.085-8.866,0.085
		S25.683,56.467,25.382,63.537z"/>
</g>
</svg>
