<?xml version="1.0" encoding="utf-8"?>
<!-- Generator: Adobe Illustrator 14.0.0, SVG Export Plug-In . SVG Version: 6.00 Build 43363)  -->
<!DOCTYPE svg PUBLIC "-//W3C//DTD SVG 1.1//EN" "http://www.w3.org/Graphics/SVG/1.1/DTD/svg11.dtd">
<svg version="1.1" id="Layer_1" xmlns="http://www.w3.org/2000/svg" xmlns:xlink="http://www.w3.org/1999/xlink" x="0px" y="0px"
	 width="64px" height="64px" viewBox="0 0 64 64" enable-background="new 0 0 64 64" xml:space="preserve">
<g>
	<circle fill="#010101" cx="16.354" cy="6.024" r="5.984"/>
	<circle fill="#010101" cx="45.469" cy="8.257" r="5.447"/>
	<path fill="#010101" stroke="#030303" stroke-width="0.25" d="M16.354,13.704H8.94c0,0-5.357,0.984-5.447,4.914
		c-0.09,3.93,0,23.935,0,23.935s1.563,3.038,3.081-0.178L6.797,22.28c0,0,1.162-1.965,2.054-0.09L8.673,61.756
		c0,0,1.964,4.644,6.43,0l0.089-19.203c0,0,0.09-1.004,1.162-1.004V13.704z"/>
	<path fill="#010101" stroke="#030303" stroke-width="0.25" d="M16.354,13.704h6.965c0,0,5.034,0.984,5.119,4.914
		c0.083,3.93,0,23.935,0,23.935s-1.47,3.038-2.895-0.178l-0.21-20.095c0,0-1.092-1.965-1.93-0.09l0.168,39.566
		c0,0-1.846,4.644-6.042,0l-0.083-19.203c0,0-0.085-1.004-1.092-1.004V13.704z"/>
	<path fill="#FFFFFF" d="M13.437,18.185c0,0-2.449,0-2.449,3.792c0,3.791,5.279,7.491,5.279,7.491s5.241-3.7,5.241-7.491
		c0-3.792-2.448-3.792-2.448-3.792s-2.792,0.021-2.792,2.512C16.267,20.696,15.884,18.185,13.437,18.185z"/>
	<path fill="#010101" d="M44.354,61.731c0,1.246-0.971,2.258-2.167,2.258l0,0c-1.195,0-2.165-1.012-2.165-2.258V45.013
		c0-1.245,0.97-2.258,2.165-2.258l0,0c1.196,0,2.167,1.013,2.167,2.258V61.731z"/>
	<path fill="#010101" d="M50.739,61.731c0,1.246-0.971,2.258-2.167,2.258l0,0c-1.195,0-2.165-1.012-2.165-2.258V45.013
		c0-1.245,0.97-2.258,2.165-2.258l0,0c1.196,0,2.167,1.013,2.167,2.258V61.731z"/>
	<path fill="#010101" d="M34.675,36.768c-0.541,1.339-1.764,2.108-2.728,1.72l0,0c-0.963-0.39-1.304-1.792-0.763-3.132l7.264-17.973
		c0.543-1.339,1.764-2.109,2.727-1.72l0,0c0.964,0.389,1.308,1.792,0.765,3.131L34.675,36.768z"/>
	<polygon fill="#010101" points="33.636,45.055 43.46,18.828 47.508,18.849 57.215,45.055 	"/>
	<path fill="#010101" d="M60.213,35.159c0.589,1.319,0.293,2.733-0.656,3.158l0,0c-0.948,0.423-2.194-0.306-2.784-1.624
		l-7.896-17.704c-0.587-1.32-0.294-2.734,0.654-3.157l0,0c0.949-0.424,2.198,0.303,2.786,1.624L60.213,35.159z"/>
	<path fill="#010101" d="M51.696,16.512c0,0-5.802-4.614-12.247-0.49l1.956,4.093c0,0,2.127-0.85,1.827,1.562h4.366
		c0,0,0.05-2.452,1.695-1.751L51.696,16.512z"/>
	<path fill="#FFFFFF" d="M44.205,19.926c0,0-0.986,0-0.986,1.526c0,1.525,2.125,3.014,2.125,3.014s2.108-1.489,2.108-3.014
		c0-1.526-0.984-1.526-0.984-1.526s-1.124,0.009-1.124,1.011C45.344,20.937,45.189,19.926,44.205,19.926z"/>
</g>
</svg>
