<?xml version="1.0" encoding="utf-8"?>
<!-- Generator: Adobe Illustrator 14.0.0, SVG Export Plug-In . SVG Version: 6.00 Build 43363)  -->
<!DOCTYPE svg PUBLIC "-//W3C//DTD SVG 1.1//EN" "http://www.w3.org/Graphics/SVG/1.1/DTD/svg11.dtd">
<svg version="1.1" id="Layer_1" xmlns="http://www.w3.org/2000/svg" xmlns:xlink="http://www.w3.org/1999/xlink" x="0px" y="0px"
	 width="64px" height="64px" viewBox="0 0 64 64" enable-background="new 0 0 64 64" xml:space="preserve">
<g>
	<path fill="#070707" d="M13.823,17.224H8.788c0,0-7.971,0.293-8.529,7.55c-0.542,7.041,0,29.515,0,29.515s1.65,8.124,6.511,8.395
		s49.135,0,49.135,0s7.853-0.947,7.987-8.665c0.136-7.717,0-26.942,0-26.942s-2.562-9.934-8.529-9.852S13.823,17.224,13.823,17.224z
		"/>
	<polygon fill="#FFFFFF" points="50.053,17.037 32.335,41.689 13.741,17.062 	"/>
	<path fill="#010101" d="M24.363,1.197c0,0-6.958,0-6.958,10.773c0,10.77,14.999,21.28,14.999,21.28s14.888-10.51,14.888-21.28
		c0-10.773-6.956-10.773-6.956-10.773s-7.932,0.06-7.932,7.136C32.404,8.333,31.315,1.197,24.363,1.197z"/>
	<path fill="#FFFFFF" d="M43.448,10.332h-1.6c0,0-0.493-3.283-3.518-3.26V5.273C38.331,5.273,43.474,5.632,43.448,10.332z"/>
	<path fill="#FFFFFF" d="M6.532,55.463l13.81-23.287L9.42,22.969c0,0-2.527-1.082-4.693,3.43v27.168
		C4.727,53.567,4.636,55.191,6.532,55.463z"/>
	<path fill="#FFFFFF" d="M58.034,56.094L44.646,32.807l10.588-9.207c0,0,2.449-1.082,4.55,3.43v27.167
		C59.783,54.198,59.87,55.823,58.034,56.094z"/>
	<polygon fill="#FFFFFF" points="40.74,34.174 54.82,58.441 9.149,58.441 23.071,34.174 32.348,40.751 	"/>
</g>
</svg>
