<?xml version="1.0" encoding="utf-8"?>
<!-- Generator: Adobe Illustrator 14.0.0, SVG Export Plug-In . SVG Version: 6.00 Build 43363)  -->
<!DOCTYPE svg PUBLIC "-//W3C//DTD SVG 1.1//EN" "http://www.w3.org/Graphics/SVG/1.1/DTD/svg11.dtd">
<svg version="1.1" id="Layer_1" xmlns="http://www.w3.org/2000/svg" xmlns:xlink="http://www.w3.org/1999/xlink" x="0px" y="0px"
	 width="64px" height="64px" viewBox="0 0 64 64" enable-background="new 0 0 64 64" xml:space="preserve">
<g>
	<path fill="#010101" d="M43.865,5.124c0,0-6.954,10.046-2.887,20.768c4.067,10.723,2.635,12.428,1.515,15.184
		c-1.121,2.755-2.171,10.891-21.196,9.447c0,0-6.325,1.05-14.446,11.021c0,0,15.233-5.992,19.039-2.649
		c0,0,20.776,2.912,25.937-13.228c0,0,3.454-11.402-3.369-21.84C41.635,13.39,43.865,5.124,43.865,5.124z"/>
	<path fill="#FFFFFF" d="M46.62,28.395c0,0,8.509,24.247-17.167,26.607c0,0,10.988,5.448,17.692-7.104
		C53.574,35.859,46.62,28.395,46.62,28.395z"/>
	<polygon fill="#FFFFFF" points="49.113,52.49 51.826,47.549 6.851,19.229 4.092,23.407 	"/>
	<polygon fill="#030303" points="53.505,53.803 54.887,51.506 6.12,20.654 5.086,22.425 	"/>
	<polygon fill="#030303" points="52.701,56.187 55.819,54.034 56.201,50.566 64.008,58.352 	"/>
	<polygon fill="#010101" points="6.856,15.456 14.405,20.123 14.274,23.827 6.851,19.229 	"/>
	<polygon fill="#010101" points="4.284,23.389 11.834,28.057 6.309,28.395 -0.039,24.435 	"/>
	<path fill="#030303" d="M11.919,20.54c0.29,0.502,1.11,0.57,1.832,0.151L41.607,4.549c0.724-0.419,1.072-1.166,0.783-1.667l0,0
		c-0.291-0.502-1.113-0.57-1.835-0.152L12.699,18.873C11.978,19.292,11.628,20.039,11.919,20.54L11.919,20.54z"/>
	<path fill="#030303" d="M4.561,60.675c0.578,0.049,1.099-0.56,1.164-1.357l2.528-30.767c0.065-0.798-0.351-1.484-0.927-1.532l0,0
		c-0.579-0.047-1.1,0.561-1.167,1.359L3.632,59.146C3.567,59.941,3.983,60.63,4.561,60.675L4.561,60.675z"/>
</g>
</svg>
