<?xml version="1.0" encoding="utf-8"?>
<!-- Generator: Adobe Illustrator 14.0.0, SVG Export Plug-In . SVG Version: 6.00 Build 43363)  -->
<!DOCTYPE svg PUBLIC "-//W3C//DTD SVG 1.1//EN" "http://www.w3.org/Graphics/SVG/1.1/DTD/svg11.dtd">
<svg version="1.1" id="Layer_1" xmlns="http://www.w3.org/2000/svg" xmlns:xlink="http://www.w3.org/1999/xlink" x="0px" y="0px"
	 width="64px" height="64px" viewBox="0 0 64 64" enable-background="new 0 0 64 64" xml:space="preserve">
<g>
	<path fill="#010101" d="M16.032-0.012c0,0-13.897,0-13.897,21.515S32.09,64.012,32.09,64.012s29.744-20.994,29.744-42.509
		S47.938-0.012,47.938-0.012S32.09,0.103,32.09,14.241C32.09,14.241,29.919-0.012,16.032-0.012z"/>
	<path fill="#FFFFFF" d="M55.547,25.058h-4.845c0,0-1.495-9.949-10.666-9.879V9.731C40.036,9.731,55.62,10.817,55.547,25.058z"/>
	<circle fill="#FFFFFF" cx="31.983" cy="25.058" r="4.408"/>
	<polygon fill="#FFFFFF" points="35.768,49.266 28.2,49.266 29.839,26.561 33.958,26.561 	"/>
</g>
</svg>
