<?xml version="1.0" encoding="utf-8"?>
<!-- Generator: Adobe Illustrator 14.0.0, SVG Export Plug-In . SVG Version: 6.00 Build 43363)  -->
<!DOCTYPE svg PUBLIC "-//W3C//DTD SVG 1.1//EN" "http://www.w3.org/Graphics/SVG/1.1/DTD/svg11.dtd">
<svg version="1.1" id="Layer_1" xmlns="http://www.w3.org/2000/svg" xmlns:xlink="http://www.w3.org/1999/xlink" x="0px" y="0px"
	 width="64px" height="64px" viewBox="0 0 64 64" enable-background="new 0 0 64 64" xml:space="preserve">
<g>
	<rect x="21.517" y="46.513" fill="#030303" width="35.576" height="3.274"/>
	<rect x="27.746" y="32.642" fill="#030303" width="36.217" height="7.641"/>
	<rect x="0.006" y="30.01" fill="#030303" width="27.901" height="5.071"/>
	<rect x="27.746" y="19.832" fill="#030303" width="4.56" height="12.971"/>
	<rect x="0.006" y="23.042" fill="#030303" width="0.642" height="7.225"/>
	<rect x="0.006" y="21.918" fill="#030303" width="4.624" height="1.542"/>
	<rect x="27.746" y="17.937" fill="#030303" width="20.163" height="2.441"/>
	<rect x="30.829" y="15.465" fill="#030303" width="4.623" height="2.697"/>
	<rect x="7.711" y="14.213" fill="#030303" width="50.858" height="1.541"/>
	<polygon fill="#030303" points="44.764,32.803 39.658,32.931 32.05,24.455 32.05,19.157 	"/>
	<polygon fill="#030303" points="63.896,32.642 60.934,32.719 47.841,20.378 47.909,17.937 	"/>
	<polygon fill="#030303" points="8.996,30.01 6.588,30.01 4.629,23.46 4.629,21.918 	"/>
	<polygon fill="#030303" points="50.888,46.513 46.651,46.634 42.228,40.14 46.12,40.283 	"/>
</g>
</svg>
