<?xml version="1.0" encoding="utf-8"?>
<!-- Generator: Adobe Illustrator 14.0.0, SVG Export Plug-In . SVG Version: 6.00 Build 43363)  -->
<!DOCTYPE svg PUBLIC "-//W3C//DTD SVG 1.1//EN" "http://www.w3.org/Graphics/SVG/1.1/DTD/svg11.dtd">
<svg version="1.1" id="Layer_1" xmlns="http://www.w3.org/2000/svg" xmlns:xlink="http://www.w3.org/1999/xlink" x="0px" y="0px"
	 width="64px" height="64px" viewBox="0 0 64 64" enable-background="new 0 0 64 64" xml:space="preserve">
<g>
	<path fill="#030303" d="M32.014-0.01"/>
	<path fill="#030303" d="M27.329,21.538c0,0-0.063-21.548,4.685-21.548c4.748,0,4.476,21.548,4.476,21.548l0.004,12.804v17.94
		h-9.165v-17.94V21.538z"/>
	<polygon fill="#030303" points="57.4,43.369 36.494,34.342 36.49,21.538 57.396,34.342 	"/>
	<polygon fill="#FFFFFF" points="55.263,39.582 36.494,25.355 36.494,28.339 	"/>
	<polygon fill="#010101" points="6.6,43.369 27.326,34.342 27.329,21.538 6.604,34.342 	"/>
	<polygon fill="#FFFFFF" points="8.719,39.582 27.326,25.355 27.326,28.339 	"/>
	<polygon fill="#030303" points="42.425,64.011 32.001,58.701 21.605,64.011 21.605,57.452 27.525,52.078 32.014,52.144 
		36.282,52.038 42.425,57.66 	"/>
	<polygon fill="#FFFFFF" points="32.014,55.475 27.326,58.701 32.014,56.75 36.49,58.701 	"/>
	<rect x="28.457" y="12.75" fill="#030303" width="1.458" height="36.339"/>
	<rect x="28.562" y="12.889" fill="#FFFFFF" width="1.249" height="1.093"/>
	<rect x="28.562" y="14.555" fill="#FFFFFF" width="1.249" height="1.093"/>
	<rect x="28.562" y="16.22" fill="#FFFFFF" width="1.249" height="1.093"/>
	<rect x="28.562" y="17.886" fill="#FFFFFF" width="1.249" height="1.093"/>
	<rect x="28.562" y="19.551" fill="#FFFFFF" width="1.249" height="1.093"/>
	<rect x="28.562" y="21.217" fill="#FFFFFF" width="1.249" height="1.093"/>
	<rect x="28.562" y="22.882" fill="#FFFFFF" width="1.249" height="1.093"/>
	<rect x="28.562" y="24.548" fill="#FFFFFF" width="1.249" height="1.093"/>
	<rect x="28.562" y="26.213" fill="#FFFFFF" width="1.249" height="1.093"/>
	<rect x="28.562" y="27.879" fill="#FFFFFF" width="1.249" height="1.093"/>
	<rect x="28.562" y="29.544" fill="#FFFFFF" width="1.249" height="1.094"/>
	<rect x="28.562" y="31.21" fill="#FFFFFF" width="1.249" height="1.094"/>
	<rect x="28.562" y="32.875" fill="#FFFFFF" width="1.249" height="1.094"/>
	<rect x="28.562" y="34.542" fill="#FFFFFF" width="1.249" height="1.093"/>
	<rect x="28.562" y="36.207" fill="#FFFFFF" width="1.249" height="1.094"/>
	<rect x="28.562" y="37.873" fill="#FFFFFF" width="1.249" height="1.093"/>
	<rect x="28.562" y="39.538" fill="#FFFFFF" width="1.249" height="1.093"/>
	<rect x="28.562" y="41.204" fill="#FFFFFF" width="1.249" height="1.093"/>
	<rect x="28.562" y="42.869" fill="#FFFFFF" width="1.249" height="1.093"/>
	<rect x="28.562" y="44.535" fill="#FFFFFF" width="1.249" height="1.093"/>
	<rect x="28.562" y="46.2" fill="#FFFFFF" width="1.249" height="1.093"/>
	<rect x="28.562" y="47.866" fill="#FFFFFF" width="1.249" height="1.093"/>
	<rect x="34.218" y="12.75" fill="#030303" width="1.457" height="36.339"/>
	<rect x="34.322" y="12.889" fill="#FFFFFF" width="1.249" height="1.093"/>
	<rect x="34.322" y="14.555" fill="#FFFFFF" width="1.249" height="1.093"/>
	<rect x="34.322" y="16.22" fill="#FFFFFF" width="1.249" height="1.093"/>
	<rect x="34.322" y="17.886" fill="#FFFFFF" width="1.249" height="1.093"/>
	<rect x="34.322" y="19.551" fill="#FFFFFF" width="1.249" height="1.093"/>
	<rect x="34.322" y="21.217" fill="#FFFFFF" width="1.249" height="1.093"/>
	<rect x="34.322" y="22.882" fill="#FFFFFF" width="1.249" height="1.093"/>
	<rect x="34.322" y="24.548" fill="#FFFFFF" width="1.249" height="1.093"/>
	<rect x="34.322" y="26.213" fill="#FFFFFF" width="1.249" height="1.093"/>
	<rect x="34.322" y="27.879" fill="#FFFFFF" width="1.249" height="1.093"/>
	<rect x="34.322" y="29.544" fill="#FFFFFF" width="1.249" height="1.094"/>
	<rect x="34.322" y="31.21" fill="#FFFFFF" width="1.249" height="1.094"/>
	<rect x="34.322" y="32.875" fill="#FFFFFF" width="1.249" height="1.094"/>
	<rect x="34.322" y="34.542" fill="#FFFFFF" width="1.249" height="1.093"/>
	<rect x="34.322" y="36.207" fill="#FFFFFF" width="1.249" height="1.094"/>
	<rect x="34.322" y="37.873" fill="#FFFFFF" width="1.249" height="1.093"/>
	<rect x="34.322" y="39.538" fill="#FFFFFF" width="1.249" height="1.093"/>
	<rect x="34.322" y="41.204" fill="#FFFFFF" width="1.249" height="1.093"/>
	<rect x="34.322" y="42.869" fill="#FFFFFF" width="1.249" height="1.093"/>
	<rect x="34.322" y="44.535" fill="#FFFFFF" width="1.249" height="1.093"/>
	<rect x="34.322" y="46.2" fill="#FFFFFF" width="1.249" height="1.093"/>
	<rect x="34.322" y="47.866" fill="#FFFFFF" width="1.249" height="1.093"/>
</g>
</svg>
