<?xml version="1.0" encoding="utf-8"?>
<!-- Generator: Adobe Illustrator 14.0.0, SVG Export Plug-In . SVG Version: 6.00 Build 43363)  -->
<!DOCTYPE svg PUBLIC "-//W3C//DTD SVG 1.1//EN" "http://www.w3.org/Graphics/SVG/1.1/DTD/svg11.dtd">
<svg version="1.1" id="Layer_1" xmlns="http://www.w3.org/2000/svg" xmlns:xlink="http://www.w3.org/1999/xlink" x="0px" y="0px"
	 width="64px" height="64px" viewBox="0 0 64 64" enable-background="new 0 0 64 64" xml:space="preserve">
<g>
	<path fill="#010101" d="M31.889,21.465h-21.82c0,0,0.211,7.243,6.098,17.321c5.887,10.078,10.058,14.821,15.722,17.108V21.465z"/>
	<path fill="#010101" d="M31.889,21.465H53.9c0,0-0.214,7.243-6.152,17.321c-5.938,10.078-10.145,14.821-15.859,17.108V21.465z"/>
	<path fill="#010101" d="M20.979,0.841c0,0-10.91,4.998-10.91,19.354h4.192C14.261,20.194,13.552,7.446,20.979,0.841z"/>
	<path fill="#010101" d="M42.799,0.841c0,0,10.941,4.998,10.941,19.354h-4.204C49.536,20.194,50.247,7.446,42.799,0.841z"/>
	<path fill="#010101" d="M26.543-0.006c0,0-10.067,2.146-10.376,20.2h4.812C20.979,20.194,20.657,5.547,26.543-0.006z"/>
	<path fill="#010101" d="M42.641,20.194c0,0,0.331-14.647-5.722-20.2c0,0,10.353,2.146,10.67,20.2H42.641z"/>
	<path fill="#010101" d="M31.413-0.006c0,0-8.131-0.037-8.131,20.2h8.131V-0.006z"/>
	<path fill="#010101" d="M32.429-0.006c0,0,8.334-0.037,8.334,20.2h-8.334V-0.006z"/>
	<path fill="#FFFFFF" d="M43.674,34.551h-23.25c0,0,2.668-3.652,11.466-3.652C40.688,30.898,43.674,34.551,43.674,34.551z"/>
	<path fill="#FFFFFF" d="M39.734,39.601h2.064c0,0-3.652,9.274-6.193,11.181C35.605,50.781,39.575,41.126,39.734,39.601z"/>
	<path fill="#FFFFFF" d="M24.446,39.601h-2.021c0,0,3.578,9.274,6.066,11.181C28.491,50.781,24.602,41.126,24.446,39.601z"/>
	<rect x="28.003" y="53.144" fill="#010101" width="8.28" height="5.822"/>
	<rect x="28.492" y="58.754" fill="#010101" width="7.093" height="3.324"/>
	<rect x="28.492" y="62.926" fill="#010101" width="7.093" height="1.08"/>
	<rect x="29.491" y="55.895" fill="#FFFFFF" width="1.016" height="1.001"/>
	<rect x="29.491" y="57.943" fill="#FFFFFF" width="1.016" height="1"/>
	<rect x="31.524" y="55.895" fill="#FFFFFF" width="1.016" height="1.001"/>
	<rect x="31.524" y="57.943" fill="#FFFFFF" width="1.016" height="1"/>
	<rect x="33.572" y="55.895" fill="#FFFFFF" width="1.017" height="1.001"/>
	<rect x="33.572" y="57.943" fill="#FFFFFF" width="1.017" height="1"/>
</g>
</svg>
