<?xml version="1.0" encoding="utf-8"?>
<!-- Generator: Adobe Illustrator 14.0.0, SVG Export Plug-In . SVG Version: 6.00 Build 43363)  -->
<!DOCTYPE svg PUBLIC "-//W3C//DTD SVG 1.1//EN" "http://www.w3.org/Graphics/SVG/1.1/DTD/svg11.dtd">
<svg version="1.1" id="Layer_1" xmlns="http://www.w3.org/2000/svg" xmlns:xlink="http://www.w3.org/1999/xlink" x="0px" y="0px"
	 width="64px" height="64px" viewBox="0 0 64 64" enable-background="new 0 0 64 64" xml:space="preserve">
<g>
	<path fill="#010101" d="M42.759,13.557c0,1.043-0.738,1.891-1.647,1.891h-8.174c-0.909,0-1.647-0.848-1.647-1.891l0,0
		c0-1.044,0.738-1.891,1.647-1.891h8.174C42.021,11.666,42.759,12.513,42.759,13.557L42.759,13.557z"/>
	<path fill="#010101" d="M53.837,20.727c0.435,0.949-0.033,2.095-1.045,2.558L43.7,27.448c-1.012,0.463-2.185,0.069-2.619-0.879l0,0
		c-0.435-0.95,0.033-2.095,1.045-2.559l9.092-4.163C52.229,19.383,53.402,19.778,53.837,20.727L53.837,20.727z"/>
	<path fill="#010101" d="M43.855,24.233c0.835,0.627,0.633,2.305-0.45,3.747l-9.738,12.96c-1.082,1.44-2.641,2.101-3.474,1.474l0,0
		c-0.836-0.627-0.633-2.305,0.451-3.746l9.739-12.959C41.465,24.266,43.021,23.606,43.855,24.233L43.855,24.233z"/>
	<path fill="#010101" d="M40.7,30.527c0,1.044-1.22,1.891-2.722,1.891H24.47c-1.502,0-2.721-0.847-2.721-1.891l0,0
		c0-1.043,1.219-1.891,2.721-1.891h13.509C39.48,28.636,40.7,29.484,40.7,30.527L40.7,30.527z"/>
	<path fill="#010101" d="M32.015,42.422c-0.827,0.637-2.465-0.104-3.654-1.65L17.667,26.859c-1.192-1.549-1.484-3.32-0.657-3.958
		l0,0c0.828-0.634,2.466,0.105,3.654,1.652l10.693,13.913C32.55,40.013,32.842,41.785,32.015,42.422L32.015,42.422z"/>
	<path fill="#010101" d="M19.682,24.794c-0.209,1.021-1.453,1.632-2.778,1.362L4.999,23.721C3.675,23.45,2.77,22.4,2.979,21.377l0,0
		c0.209-1.022,1.453-1.633,2.778-1.362l11.905,2.435C18.987,22.721,19.891,23.771,19.682,24.794L19.682,24.794z"/>
	<circle fill="#030303" cx="52.331" cy="40.684" r="11.651"/>
	<circle fill="#FFFFFF" cx="52.331" cy="40.684" r="8.723"/>
	<path fill="#010101" d="M53.28,42.833c-0.971,0.388-2.558-1.3-3.542-3.765L40.88,16.893c-0.987-2.469-1-4.783-0.03-5.173l0,0
		c0.97-0.385,2.557,1.302,3.542,3.767l8.858,22.176C54.237,40.131,54.248,42.446,53.28,42.833L53.28,42.833z"/>
	<rect x="51.965" y="31.229" fill="#010101" width="0.976" height="19.032"/>
	
		<rect x="51.843" y="31.168" transform="matrix(0.4993 -0.8665 0.8665 0.4993 -9.0468 65.7141)" fill="#010101" width="0.976" height="19.032"/>
	
		<rect x="51.843" y="31.169" transform="matrix(-0.5004 -0.8658 0.8658 -0.5004 43.2961 106.3504)" fill="#010101" width="0.976" height="19.031"/>
	<circle fill="#030303" cx="11.638" cy="40.684" r="11.651"/>
	<circle fill="#F9F9FA" cx="11.638" cy="40.684" r="8.723"/>
	<rect x="11.272" y="31.229" fill="#030303" width="0.976" height="19.032"/>
	
		<rect x="11.15" y="31.168" transform="matrix(0.4989 -0.8667 0.8667 0.4989 -29.4277 30.4737)" fill="#030303" width="0.976" height="19.032"/>
	
		<rect x="11.15" y="31.169" transform="matrix(-0.5001 -0.866 0.866 -0.5001 -17.7741 71.1072)" fill="#030303" width="0.975" height="19.031"/>
	<path fill="#010101" d="M25.065,33.509c0.435,0.949-0.158,2.152-1.323,2.686l-10.474,4.797c-1.165,0.533-2.463,0.196-2.897-0.752
		l0,0c-0.435-0.95,0.158-2.152,1.323-2.687l10.474-4.796C23.333,32.223,24.631,32.562,25.065,33.509L25.065,33.509z"/>
</g>
</svg>
