<?xml version="1.0" encoding="utf-8"?>
<!-- Generator: Adobe Illustrator 14.0.0, SVG Export Plug-In . SVG Version: 6.00 Build 43363)  -->
<!DOCTYPE svg PUBLIC "-//W3C//DTD SVG 1.1//EN" "http://www.w3.org/Graphics/SVG/1.1/DTD/svg11.dtd">
<svg version="1.1" id="Layer_1" xmlns="http://www.w3.org/2000/svg" xmlns:xlink="http://www.w3.org/1999/xlink" x="0px" y="0px"
	 width="64px" height="64px" viewBox="0 0 64 64" enable-background="new 0 0 64 64" xml:space="preserve">
<g>
	<polygon fill="#010101" points="-0.033,31.004 64.002,31.004 50.73,52.791 13.239,52.791 	"/>
	<rect x="4.724" y="22.489" fill="#010101" width="53.858" height="7.298"/>
	<rect x="11.468" y="16.517" fill="#010101" width="40.478" height="6.414"/>
	<rect x="16.003" y="11.208" fill="#010101" width="17.363" height="5.751"/>
	<rect x="15.464" y="19.157" fill="#FFFFFF" width="2.653" height="1.327"/>
	<rect x="21.394" y="19.157" fill="#FFFFFF" width="2.655" height="1.327"/>
	<rect x="27.366" y="19.157" fill="#FFFFFF" width="2.655" height="1.327"/>
	<rect x="33.366" y="19.157" fill="#FFFFFF" width="2.654" height="1.327"/>
	<rect x="39.298" y="19.157" fill="#FFFFFF" width="2.653" height="1.327"/>
	<rect x="45.27" y="19.157" fill="#FFFFFF" width="2.654" height="1.327"/>
	<rect x="6.824" y="25.793" fill="#FFFFFF" width="2.004" height="1.341"/>
	<rect x="11.468" y="25.793" fill="#FFFFFF" width="2.005" height="1.341"/>
	<rect x="15.45" y="25.778" fill="#FFFFFF" width="2.004" height="1.342"/>
	<rect x="20.096" y="25.793" fill="#FFFFFF" width="2.003" height="1.341"/>
	<rect x="24.049" y="25.778" fill="#FFFFFF" width="2.004" height="1.342"/>
	<rect x="28.693" y="25.793" fill="#FFFFFF" width="2.005" height="1.341"/>
	<rect x="32.699" y="25.786" fill="#FFFFFF" width="2.003" height="1.341"/>
	<rect x="37.346" y="25.786" fill="#FFFFFF" width="2.003" height="1.341"/>
	<rect x="41.325" y="25.771" fill="#FFFFFF" width="2.004" height="1.342"/>
	<rect x="45.971" y="25.786" fill="#FFFFFF" width="2.004" height="1.341"/>
	<rect x="49.975" y="25.786" fill="#FFFFFF" width="2.007" height="1.341"/>
	<rect x="54.569" y="25.786" fill="#FFFFFF" width="2.005" height="1.341"/>
	<rect x="6.16" y="33.798" fill="#FFFFFF" width="3.29" height="1.961"/>
	<rect x="12.116" y="33.798" fill="#FFFFFF" width="3.334" height="1.961"/>
	<rect x="18.112" y="33.798" fill="#FFFFFF" width="3.282" height="1.961"/>
	<rect x="24.138" y="33.798" fill="#FFFFFF" width="3.257" height="1.961"/>
	<rect x="30.095" y="33.798" fill="#FFFFFF" width="3.244" height="1.961"/>
	<rect x="36.093" y="33.798" fill="#FFFFFF" width="3.218" height="1.961"/>
	<rect x="44.647" y="33.744" fill="#FFFFFF" width="1.34" height="2.015"/>
	<rect x="47.979" y="33.744" fill="#FFFFFF" width="0.671" height="1.979"/>
	<rect x="50.619" y="33.744" fill="#FFFFFF" width="1.342" height="2.015"/>
	<rect x="11.441" y="41.034" fill="#FFFFFF" width="1.328" height="1.348"/>
	<rect x="14.759" y="41.034" fill="#FFFFFF" width="1.327" height="1.348"/>
	<rect x="18.739" y="41.034" fill="#FFFFFF" width="1.328" height="1.348"/>
	<rect x="22.058" y="41.034" fill="#FFFFFF" width="1.327" height="1.348"/>
	<rect x="25.376" y="41.034" fill="#FFFFFF" width="2.011" height="1.348"/>
	<rect x="28.693" y="41.034" fill="#FFFFFF" width="1.991" height="1.348"/>
	<rect x="32.675" y="41.034" fill="#FFFFFF" width="1.991" height="1.348"/>
	<rect x="35.993" y="41.034" fill="#FFFFFF" width="1.969" height="1.348"/>
	<rect x="39.311" y="41.034" fill="#FFFFFF" width="1.972" height="1.348"/>
	<rect x="43.293" y="41.034" fill="#FFFFFF" width="1.991" height="1.348"/>
	<rect x="46.609" y="41.034" fill="#FFFFFF" width="1.971" height="1.348"/>
	<rect x="49.928" y="41.034" fill="#FFFFFF" width="1.97" height="1.348"/>
</g>
</svg>
