<?xml version="1.0" encoding="utf-8"?>
<!-- Generator: Adobe Illustrator 14.0.0, SVG Export Plug-In . SVG Version: 6.00 Build 43363)  -->
<!DOCTYPE svg PUBLIC "-//W3C//DTD SVG 1.1//EN" "http://www.w3.org/Graphics/SVG/1.1/DTD/svg11.dtd">
<svg version="1.1" id="Layer_1" xmlns="http://www.w3.org/2000/svg" xmlns:xlink="http://www.w3.org/1999/xlink" x="0px" y="0px"
	 width="64px" height="64px" viewBox="0 0 64 64" enable-background="new 0 0 64 64" xml:space="preserve">
<g>
	<rect x="0.047" y="12.823" fill="#030303" width="30.967" height="24.624"/>
	<rect x="19.063" y="15.672" fill="#FFFFFF" width="7.011" height="18.184"/>
	<rect x="3.639" y="15.672" fill="#FFFFFF" width="7.011" height="18.184"/>
	<polygon fill="#030303" points="63.952,29.167 63.952,37.447 33.14,37.447 33.14,12.823 54.323,12.823 	"/>
	<rect x="35.933" y="17.03" fill="#FFFFFF" width="7.011" height="11.961"/>
	<rect x="33.106" y="38.807" fill="#030303" width="30.847" height="7.055"/>
	<rect x="0.156" y="38.807" fill="#030303" width="30.847" height="7.055"/>
	<circle fill="#FFFFFF" cx="8.167" cy="45.861" r="5.316"/>
	<circle fill="#010101" cx="8.167" cy="45.861" r="4.382"/>
	<circle fill="#FFFFFF" cx="8.167" cy="45.861" r="3.111"/>
	<circle fill="#FFFFFF" cx="22.715" cy="45.861" r="5.316"/>
	<circle fill="#010101" cx="22.715" cy="45.861" r="4.382"/>
	<circle fill="#FFFFFF" cx="22.715" cy="45.861" r="3.111"/>
	<circle fill="#FFFFFF" cx="42.038" cy="45.861" r="5.316"/>
	<circle fill="#010101" cx="42.038" cy="45.861" r="4.381"/>
	<circle fill="#FFFFFF" cx="42.038" cy="45.861" r="3.111"/>
	<circle fill="#FFFFFF" cx="56.584" cy="45.861" r="5.316"/>
	<circle fill="#010101" cx="56.584" cy="45.861" r="4.382"/>
	<circle fill="#FFFFFF" cx="56.584" cy="45.861" r="3.111"/>
	<polygon fill="#FFFFFF" points="60.251,28.992 46.448,28.992 46.448,17.03 52.568,17.03 	"/>
</g>
</svg>
