<?xml version="1.0" encoding="utf-8"?>
<!-- Generator: Adobe Illustrator 14.0.0, SVG Export Plug-In . SVG Version: 6.00 Build 43363)  -->
<!DOCTYPE svg PUBLIC "-//W3C//DTD SVG 1.1//EN" "http://www.w3.org/Graphics/SVG/1.1/DTD/svg11.dtd">
<svg version="1.1" id="Layer_1" xmlns="http://www.w3.org/2000/svg" xmlns:xlink="http://www.w3.org/1999/xlink" x="0px" y="0px"
	 width="64px" height="64px" viewBox="0 0 64 64" enable-background="new 0 0 64 64" xml:space="preserve">
<g>
	<rect x="0.094" y="29.497" fill="#010101" width="63.813" height="11.634"/>
	<rect x="0.094" y="35.748" fill="#FFFFFF" width="63.813" height="0.695"/>
	<circle fill="#FFFFFF" cx="10.599" cy="39.567" r="6.887"/>
	<circle fill="#010101" cx="10.599" cy="39.567" r="5.677"/>
	<circle fill="#FFFFFF" cx="10.599" cy="39.567" r="4.03"/>
	<circle fill="#FFFFFF" cx="54.219" cy="39.337" r="6.887"/>
	<circle fill="#010101" cx="54.219" cy="39.337" r="5.676"/>
	<circle fill="#FFFFFF" cx="54.219" cy="39.337" r="4.03"/>
	<polygon fill="#010101" points="51.752,30.627 6.569,30.627 11.815,17.546 34.851,17.546 	"/>
	<polygon fill="#FFFFFF" points="24.318,29.497 10.599,29.497 14.014,19.745 24.318,19.745 	"/>
	<polygon fill="#FFFFFF" points="45.964,29.497 25.937,29.497 25.937,19.745 34.041,19.745 	"/>
	<polygon fill="#010101" points="28.676,28.062 28.676,21.77 32.871,28.062 	"/>
</g>
</svg>
