<?xml version="1.0" encoding="utf-8"?>
<!-- Generator: Adobe Illustrator 14.0.0, SVG Export Plug-In . SVG Version: 6.00 Build 43363)  -->
<!DOCTYPE svg PUBLIC "-//W3C//DTD SVG 1.1//EN" "http://www.w3.org/Graphics/SVG/1.1/DTD/svg11.dtd">
<svg version="1.1" id="Layer_1" xmlns="http://www.w3.org/2000/svg" xmlns:xlink="http://www.w3.org/1999/xlink" x="0px" y="0px"
	 width="64px" height="64px" viewBox="0 0 64 64" enable-background="new 0 0 64 64" xml:space="preserve">
<g>
	<path fill="#010101" d="M35.983,57.14c0,3.766-5.01,6.818-11.189,6.818l0,0c-6.183,0-11.192-3.053-11.192-6.818V14.825
		c0-3.765,5.01-6.818,11.192-6.818l0,0c6.179,0,11.189,3.053,11.189,6.818V57.14z"/>
	<path fill="#010101" d="M51.915,57.14c0,3.766-5.01,6.818-11.189,6.818l0,0c-6.182,0-11.191-3.053-11.191-6.818V14.825
		c0-3.765,5.01-6.818,11.191-6.818l0,0c6.18,0,11.189,3.053,11.189,6.818V57.14z"/>
	<rect x="24.794" y="8.007" fill="#010101" width="15.931" height="55.951"/>
	<rect x="12.085" y="17.301" fill="#010101" width="2.276" height="12.138"/>
	<path fill="#010101" d="M46.151,1.72c0-0.927-1.112-1.679-2.486-1.679l0,0c-1.373,0-2.486,0.752-2.486,1.679v8.969
		c0,0.927,1.113,1.679,2.486,1.679l0,0c1.374,0,2.486-0.752,2.486-1.679V1.72z"/>
	<rect x="18.723" y="14.645" fill="#FFFFFF" width="27.428" height="35.847"/>
	<circle fill="#FFFFFF" cx="32.76" cy="58.837" r="3.223"/>
	<path fill="#FFFFFF" d="M24.591,55.968v5.708h4.558c0,0-3.376-2.996,0-5.708H24.591z"/>
	<path fill="#FFFFFF" d="M40.559,55.983v5.708h-3.444c0,0,2.552-2.996,0-5.708H40.559z"/>
</g>
</svg>
