<?xml version="1.0" encoding="utf-8"?>
<!-- Generator: Adobe Illustrator 14.0.0, SVG Export Plug-In . SVG Version: 6.00 Build 43363)  -->
<!DOCTYPE svg PUBLIC "-//W3C//DTD SVG 1.1//EN" "http://www.w3.org/Graphics/SVG/1.1/DTD/svg11.dtd">
<svg version="1.1" id="Layer_1" xmlns="http://www.w3.org/2000/svg" xmlns:xlink="http://www.w3.org/1999/xlink" x="0px" y="0px"
	 width="64px" height="64px" viewBox="0 0 64 64" enable-background="new 0 0 64 64" xml:space="preserve">
<g>
	<path fill="#010101" d="M63.956,11.156c0,2.892-2.093,5.236-4.674,5.236H5.885c-2.582,0-4.674-2.344-4.674-5.236l0,0
		c0-2.891,2.092-5.234,4.674-5.234h53.397C61.863,5.922,63.956,8.265,63.956,11.156L63.956,11.156z"/>
	<path fill="#010101" d="M63.956,53.901c0,2.89-2.093,5.234-4.674,5.234H5.885c-2.582,0-4.674-2.345-4.674-5.234l0,0
		c0-2.891,2.092-5.234,4.674-5.234h53.397C61.863,48.667,63.956,51.011,63.956,53.901L63.956,53.901z"/>
	<rect x="1.211" y="11.156" fill="#010101" width="62.745" height="42.746"/>
	<rect x="8.042" y="12.663" fill="#FFFFFF" width="49.174" height="38.841"/>
	<circle fill="#FFFFFF" cx="32.108" cy="55.603" r="2.128"/>
	<ellipse fill="#010101" cx="2.736" cy="20.383" rx="2.692" ry="3.96"/>
	<rect x="47.714" y="4.863" fill="#010101" width="3.484" height="3.009"/>
	<rect x="10.02" y="4.863" fill="#010101" width="10.771" height="3.642"/>
</g>
</svg>
