<?xml version="1.0" encoding="utf-8"?>
<!-- Generator: Adobe Illustrator 14.0.0, SVG Export Plug-In . SVG Version: 6.00 Build 43363)  -->
<!DOCTYPE svg PUBLIC "-//W3C//DTD SVG 1.1//EN" "http://www.w3.org/Graphics/SVG/1.1/DTD/svg11.dtd">
<svg version="1.1" id="Layer_1" xmlns="http://www.w3.org/2000/svg" xmlns:xlink="http://www.w3.org/1999/xlink" x="0px" y="0px"
	 width="64px" height="64px" viewBox="0 0 64 64" enable-background="new 0 0 64 64" xml:space="preserve">
<path fill="#020202" stroke="#020202" stroke-width="0.5" stroke-linecap="round" d="M15.833,14.166
	c0,0.921,0.746,1.667,1.667,1.667l0,0c0.921,0,1.667-0.746,1.667-1.667V6.167c0-0.921-0.746-1.667-1.667-1.667l0,0
	c-0.92,0-1.667,0.746-1.667,1.667V14.166z"/>
<path fill="#020202" stroke="#020202" stroke-width="0.5" stroke-linecap="round" d="M44.834,14.166
	c0,0.921,0.746,1.667,1.666,1.667l0,0c0.921,0,1.667-0.746,1.667-1.667V6.167c0-0.921-0.746-1.667-1.667-1.667l0,0
	c-0.92,0-1.666,0.746-1.666,1.667V14.166z"/>
<line fill="#020202" stroke="#020202" stroke-width="0.5" stroke-linecap="round" x1="13.375" y1="8.875" x2="3.75" y2="8.875"/>
<line fill="#020202" stroke="#020202" stroke-width="0.5" stroke-linecap="round" x1="3.75" y1="8.875" x2="3.75" y2="59.75"/>
<line fill="#020202" x1="3.75" y1="59.75" x2="59.875" y2="59.75"/>
<line fill="#020202" stroke="#020202" stroke-width="0.5" stroke-linecap="round" x1="59.875" y1="59.75" x2="59.875" y2="8.875"/>
<line fill="#020202" stroke="#020202" stroke-width="0.5" stroke-linecap="round" x1="59.875" y1="8.875" x2="50.75" y2="8.875"/>
<path fill="none" stroke="#020202" stroke-width="0.5" stroke-linecap="round" d="M41.75,8.875v6.958c0,0,4.25,8.208,9,0V8.875"/>
<line fill="#020202" stroke="#020202" stroke-width="0.5" stroke-linecap="round" x1="41.75" y1="8.875" x2="22.125" y2="8.875"/>
<path fill="none" stroke="#020202" stroke-width="0.5" stroke-linecap="round" d="M13.375,8.875v6.958c0,0,3.875,6.958,8.75,0V8.875
	"/>
<line fill="none" stroke="#020202" stroke-width="0.5" stroke-linecap="round" x1="59.875" y1="59.75" x2="3.75" y2="59.75"/>
<rect x="43.875" y="27.875" stroke="#020202" stroke-width="0.5" stroke-linecap="round" width="6.875" height="5.75"/>
<rect x="33.25" y="27.875" stroke="#020202" stroke-width="0.5" stroke-linecap="round" width="6.875" height="5.75"/>
<rect x="43.875" y="37.125" stroke="#020202" stroke-width="0.5" stroke-linecap="round" width="6.875" height="5.75"/>
<rect x="33.25" y="37.125" stroke="#020202" stroke-width="0.5" stroke-linecap="round" width="6.875" height="5.75"/>
<rect x="22.625" y="37.125" stroke="#020202" stroke-width="0.5" stroke-linecap="round" width="6.875" height="5.75"/>
<rect x="12.875" y="37.125" stroke="#020202" stroke-width="0.5" stroke-linecap="round" width="6.875" height="5.75"/>
<rect x="43.875" y="46.25" stroke="#020202" stroke-width="0.5" stroke-linecap="round" width="6.875" height="5.75"/>
<rect x="33.25" y="46.25" stroke="#020202" stroke-width="0.5" stroke-linecap="round" width="6.875" height="5.75"/>
<rect x="22.625" y="46.25" stroke="#020202" stroke-width="0.5" stroke-linecap="round" width="6.875" height="5.75"/>
<rect x="12.875" y="46.25" stroke="#020202" stroke-width="0.5" stroke-linecap="round" width="6.875" height="5.75"/>
<rect x="7" y="23" fill="none" stroke="#020202" stroke-width="0.5" stroke-linecap="round" width="49.5" height="32.5"/>
<rect x="3.75" y="8.875" fill="#020202" stroke="#020202" stroke-width="0.5" stroke-linecap="round" width="9.625" height="14.125"/>
<rect x="3.75" y="23" fill="#020202" stroke="#020202" stroke-width="0.5" stroke-linecap="round" width="3.25" height="36.75"/>
<rect x="7" y="55.5" fill="#020202" stroke="#020202" stroke-width="0.5" stroke-linecap="round" width="52.875" height="4.25"/>
<rect x="56.5" y="8.875" fill="#020202" stroke="#020202" stroke-width="0.5" stroke-linecap="round" width="3.375" height="46.625"/>
<rect x="50.75" y="8.875" fill="#020202" stroke="#020202" stroke-width="0.5" stroke-linecap="round" width="5.75" height="14.125"/>
<rect x="22.125" y="8.875" fill="#020202" stroke="#020202" stroke-width="0.5" stroke-linecap="round" width="19.625" height="14.125"/>
<rect x="41.75" y="19.481" fill="#020202" stroke="#020202" stroke-width="0.5" stroke-linecap="round" width="10.625" height="3.519"/>
<rect x="13.375" y="18.926" fill="#020202" stroke="#020202" stroke-width="0.5" stroke-linecap="round" width="8.75" height="4.074"/>
<line fill="none" stroke="#020202" stroke-width="0.5" stroke-linecap="round" x1="15.833" y1="18.926" x2="13.375" y2="16.938"/>
<line fill="none" stroke="#020202" stroke-width="0.5" stroke-linecap="round" x1="13.375" y1="17.5" x2="15.25" y2="18.926"/>
<line fill="none" stroke="#020202" stroke-width="0.5" stroke-linecap="round" x1="14.604" y1="18.926" x2="13.375" y2="18.213"/>
<line fill="none" stroke="#020202" stroke-width="0.5" stroke-linecap="round" x1="13.702" y1="16.34" x2="13.99" y2="18.569"/>
<line fill="none" stroke="#020202" stroke-width="0.5" stroke-linecap="round" x1="13.702" y1="18.926" x2="13.702" y2="17.748"/>
<line fill="none" stroke="#020202" stroke-width="0.75" stroke-linecap="round" x1="22.125" y1="18.337" x2="19.75" y2="18.337"/>
<line fill="none" stroke="#020202" stroke-width="0.75" stroke-linecap="round" x1="22.125" y1="16.563" x2="20.938" y2="17.932"/>
<line fill="none" stroke="#020202" stroke-width="0.75" stroke-linecap="round" x1="22.125" y1="17.455" x2="21.531" y2="17.932"/>
<line fill="none" stroke="#020202" stroke-width="0.75" stroke-linecap="round" x1="50.75" y1="16.563" x2="48.167" y2="19.481"/>
<line fill="none" stroke="#020202" stroke-width="0.75" stroke-linecap="round" x1="50.75" y1="17.455" x2="49.063" y2="19.481"/>
<line fill="none" stroke="#020202" stroke-width="0.75" stroke-linecap="round" x1="50.75" y1="18.337" x2="49.906" y2="19.481"/>
<line fill="none" stroke="#020202" stroke-width="0.75" stroke-linecap="round" x1="44.438" y1="19.481" x2="41.75" y2="16.875"/>
<line fill="none" stroke="#020202" stroke-width="0.5" stroke-linecap="round" x1="43.875" y1="20.238" x2="41.5" y2="17.693"/>
<line fill="none" stroke="#020202" stroke-width="0.5" stroke-linecap="round" x1="41.125" y1="18.146" x2="43.094" y2="20.119"/>
<line fill="none" stroke="#020202" stroke-width="0.5" stroke-linecap="round" x1="43.094" y1="19.813" x2="41.75" y2="18.469"/>
<line fill="none" stroke="#020202" stroke-width="0.5" stroke-linecap="round" x1="43.875" y1="19.481" x2="41.5" y2="17.693"/>
<line fill="none" stroke="#020202" stroke-width="0.5" stroke-linecap="round" x1="42.109" y1="17.224" x2="42.109" y2="18.337"/>
</svg>
