<?xml version="1.0" encoding="utf-8"?>
<!-- Generator: Adobe Illustrator 14.0.0, SVG Export Plug-In . SVG Version: 6.00 Build 43363)  -->
<!DOCTYPE svg PUBLIC "-//W3C//DTD SVG 1.1//EN" "http://www.w3.org/Graphics/SVG/1.1/DTD/svg11.dtd">
<svg version="1.1" id="Layer_1" xmlns="http://www.w3.org/2000/svg" xmlns:xlink="http://www.w3.org/1999/xlink" x="0px" y="0px"
	 width="64px" height="64px" viewBox="0 0 64 64" enable-background="new 0 0 64 64" xml:space="preserve">
<g>
	<path fill="#030303" d="M7.969,41.948c0,1.966-1.786,3.563-3.988,3.563l0,0c-2.201,0-3.987-1.597-3.987-3.563V22.053
		c0-1.967,1.786-3.563,3.987-3.563l0,0c2.202,0,3.988,1.596,3.988,3.563V41.948z"/>
	<path fill="#030303" d="M64.006,41.948c0,1.966-1.785,3.563-3.987,3.563l0,0c-2.201,0-3.986-1.597-3.986-3.563V22.053
		c0-1.967,1.785-3.563,3.986-3.563l0,0c2.202,0,3.987,1.596,3.987,3.563V41.948z"/>
	<path fill="#030303" d="M54.664,14.107c0,2.42-1.491,4.383-3.33,4.383H13.308c-1.838,0-3.329-1.962-3.329-4.383l0,0
		c0-2.42,1.49-4.382,3.329-4.382h38.026C53.173,9.725,54.664,11.687,54.664,14.107L54.664,14.107z"/>
	<path fill="#030303" d="M54.664,49.894c0,2.42-1.491,4.383-3.33,4.383H13.308c-1.838,0-3.329-1.963-3.329-4.383l0,0
		c0-2.42,1.49-4.383,3.329-4.383h38.026C53.173,45.511,54.664,47.474,54.664,49.894L54.664,49.894z"/>
	<rect x="3.981" y="18.49" fill="#030303" width="56.037" height="27.021"/>
	<rect x="9.979" y="14.107" fill="#030303" width="44.685" height="35.787"/>
	<rect x="17.295" y="17.04" fill="#FFFFFF" width="29.163" height="28.471"/>
	<rect x="8.596" y="27.124" fill="#FFFFFF" width="2.273" height="9.589"/>
	<rect x="4.938" y="30.864" fill="#FFFFFF" width="9.589" height="2.273"/>
	<circle fill="#FFFFFF" cx="52.521" cy="29.167" r="2.143"/>
	<circle fill="#FFFFFF" cx="58.057" cy="29.167" r="2.142"/>
	<circle fill="#FFFFFF" cx="52.521" cy="34.835" r="2.143"/>
	<circle fill="#FFFFFF" cx="58.057" cy="34.835" r="2.142"/>
	<rect x="26.027" y="48.412" fill="#FFFFFF" width="12.588" height="2.504"/>
</g>
</svg>
