<?xml version="1.0" encoding="utf-8"?>
<!-- Generator: Adobe Illustrator 14.0.0, SVG Export Plug-In . SVG Version: 6.00 Build 43363)  -->
<!DOCTYPE svg PUBLIC "-//W3C//DTD SVG 1.1//EN" "http://www.w3.org/Graphics/SVG/1.1/DTD/svg11.dtd">
<svg version="1.1" id="Layer_1" xmlns="http://www.w3.org/2000/svg" xmlns:xlink="http://www.w3.org/1999/xlink" x="0px" y="0px"
	 width="64px" height="64px" viewBox="0 0 64 64" enable-background="new 0 0 64 64" xml:space="preserve">
<g>
	<rect x="0.107" y="22.549" fill="#010101" width="53.444" height="25.888"/>
	<rect x="20.554" y="47.909" fill="#010101" width="12.549" height="3.248"/>
	<rect x="10.023" y="50.63" fill="#010101" width="34.313" height="1.405"/>
	<path fill="#010101" d="M22.836,22.329c0,1.333,1.081,2.414,2.414,2.414h3.159c1.332,0,2.413-1.081,2.413-2.414l0,0
		c0-1.333-1.081-2.414-2.413-2.414H25.25C23.917,19.916,22.836,20.997,22.836,22.329L22.836,22.329z"/>
	<path fill="#010101" d="M35.082,15.713c-0.146-0.192-0.434-0.22-0.644-0.061l-5.622,4.269c-0.209,0.159-0.26,0.445-0.114,0.638l0,0
		c0.146,0.193,0.435,0.22,0.645,0.061l5.621-4.269C35.179,16.192,35.229,15.906,35.082,15.713L35.082,15.713z"/>
	<circle fill="#010101" cx="35.429" cy="15.549" r="0.987"/>
	<path fill="#010101" d="M20.317,13.375c-0.203,0.132-0.251,0.418-0.108,0.638l3.852,5.916c0.143,0.22,0.425,0.292,0.627,0.16l0,0
		c0.204-0.133,0.252-0.419,0.108-0.639l-3.852-5.916C20.802,13.314,20.52,13.243,20.317,13.375L20.317,13.375z"/>
	<circle fill="#010101" cx="19.997" cy="12.953" r="0.986"/>
	<rect x="2.974" y="25.328" fill="#FFFFFF" width="47.799" height="21.12"/>
	<path fill="#010101" d="M57.676,49.161c0,1.587,1.415,2.874,3.16,2.874l0,0c1.744,0,3.158-1.287,3.158-2.874V31.829
		c0-1.587-1.414-2.874-3.158-2.874l0,0c-1.745,0-3.16,1.287-3.16,2.874V49.161z"/>
	<rect x="59.103" y="32.333" fill="#FFFFFF" width="1.47" height="1.427"/>
	<rect x="61.209" y="32.333" fill="#FFFFFF" width="1.469" height="1.427"/>
	<rect x="59.103" y="36.546" fill="#FFFFFF" width="1.47" height="1.427"/>
	<rect x="61.209" y="36.546" fill="#FFFFFF" width="1.469" height="1.427"/>
	<rect x="59.103" y="40.057" fill="#FFFFFF" width="1.47" height="1.426"/>
	<rect x="61.209" y="40.057" fill="#FFFFFF" width="1.469" height="1.426"/>
	<rect x="59.103" y="48.481" fill="#FFFFFF" width="1.47" height="1.426"/>
	<rect x="61.209" y="48.481" fill="#FFFFFF" width="1.469" height="1.426"/>
	<rect x="59.103" y="47.11" fill="#FFFFFF" width="1.47" height="0.69"/>
	<rect x="61.209" y="47.11" fill="#FFFFFF" width="1.469" height="0.69"/>
	<rect x="59.103" y="42.843" fill="#FFFFFF" width="3.575" height="2.873"/>
</g>
</svg>
