<?xml version="1.0" encoding="utf-8"?>
<!-- Generator: Adobe Illustrator 14.0.0, SVG Export Plug-In . SVG Version: 6.00 Build 43363)  -->
<!DOCTYPE svg PUBLIC "-//W3C//DTD SVG 1.1//EN" "http://www.w3.org/Graphics/SVG/1.1/DTD/svg11.dtd">
<svg version="1.1" id="Layer_1" xmlns="http://www.w3.org/2000/svg" xmlns:xlink="http://www.w3.org/1999/xlink" x="0px" y="0px"
	 width="64px" height="64px" viewBox="0 0 64 64" enable-background="new 0 0 64 64" xml:space="preserve">
<g>
	<path d="M61.717,58.021c0,3.292-1.982,5.962-4.428,5.962H6.712c-2.445,0-4.428-2.67-4.428-5.962l0,0
		c0-3.292,1.982-5.961,4.428-5.961h50.577C59.734,52.061,61.717,54.729,61.717,58.021L61.717,58.021z"/>
	<path d="M61.717,9.342c0,3.293-1.982,5.962-4.428,5.962H6.712c-2.445,0-4.428-2.668-4.428-5.962l0,0
		c0-3.291,1.982-5.961,4.428-5.961h50.577C59.734,3.381,61.717,6.051,61.717,9.342L61.717,9.342z"/>
	<rect x="2.284" y="9.342" width="59.433" height="48.679"/>
	<rect x="35.724" y="0.016" fill="#010101" width="16.834" height="4.303"/>
	<rect x="8.597" y="11.284" fill="#FFFFFF" width="46.2" height="36.895"/>
	<circle fill="#FFFFFF" cx="31.697" cy="55.941" r="5.237"/>
</g>
</svg>
