<?xml version="1.0" encoding="utf-8"?>
<!-- Generator: Adobe Illustrator 14.0.0, SVG Export Plug-In . SVG Version: 6.00 Build 43363)  -->
<!DOCTYPE svg PUBLIC "-//W3C//DTD SVG 1.1//EN" "http://www.w3.org/Graphics/SVG/1.1/DTD/svg11.dtd">
<svg version="1.1" id="Layer_1" xmlns="http://www.w3.org/2000/svg" xmlns:xlink="http://www.w3.org/1999/xlink" x="0px" y="0px"
	 width="64px" height="64px" viewBox="0 0 64 64" enable-background="new 0 0 64 64" xml:space="preserve">
<g>
	<path fill="#010101" d="M55.706,21.788c0,2.71-1.986,4.909-4.434,4.909l0,0c-2.449,0-4.435-2.199-4.435-4.909V17.91
		c0-2.71,1.985-4.909,4.435-4.909l0,0c2.447,0,4.434,2.198,4.434,4.909V21.788z"/>
	<path fill="#010101" d="M63.978,21.788c0,2.71-1.986,4.909-4.434,4.909l0,0c-2.449,0-4.436-2.199-4.436-4.909V17.91
		c0-2.71,1.986-4.909,4.436-4.909l0,0c2.447,0,4.434,2.198,4.434,4.909V21.788z"/>
	<path fill="#010101" d="M55.706,45.967c0,2.71-1.986,4.908-4.434,4.908l0,0c-2.449,0-4.435-2.198-4.435-4.908v-3.878
		c0-2.711,1.985-4.909,4.435-4.909l0,0c2.447,0,4.434,2.198,4.434,4.909V45.967z"/>
	<path fill="#010101" d="M63.978,45.967c0,2.71-1.986,4.908-4.434,4.908l0,0c-2.449,0-4.436-2.198-4.436-4.908v-3.878
		c0-2.711,1.986-4.909,4.436-4.909l0,0c2.447,0,4.434,2.198,4.434,4.909V45.967z"/>
	<rect x="51.272" y="13.001" fill="#010101" width="8.271" height="13.696"/>
	<rect x="50.973" y="37.304" fill="#010101" width="8.271" height="13.695"/>
	<rect x="46.838" y="19.849" fill="#010101" width="17.14" height="25.182"/>
	<path fill="#FFFFFF" d="M55.687,23.073c0,2.327-1.58,4.214-3.527,4.214l0,0c-1.95,0-3.531-1.887-3.531-4.214v-3.331
		c0-2.328,1.581-4.215,3.531-4.215l0,0c1.947,0,3.527,1.888,3.527,4.215V23.073z"/>
	<path fill="#FFFFFF" d="M62.271,23.073c0,2.327-1.581,4.214-3.53,4.214l0,0c-1.947,0-3.529-1.887-3.529-4.214v-3.331
		c0-2.328,1.582-4.215,3.529-4.215l0,0c1.949,0,3.53,1.888,3.53,4.215V23.073z"/>
	<path fill="#FFFFFF" d="M55.687,43.832c0,2.326-1.58,4.215-3.527,4.215l0,0c-1.95,0-3.531-1.889-3.531-4.215v-3.329
		c0-2.328,1.581-4.216,3.531-4.216l0,0c1.947,0,3.527,1.888,3.527,4.216V43.832z"/>
	<path fill="#FFFFFF" d="M62.271,43.832c0,2.326-1.581,4.215-3.53,4.215l0,0c-1.947,0-3.529-1.889-3.529-4.215v-3.329
		c0-2.328,1.582-4.216,3.529-4.216l0,0c1.949,0,3.53,1.888,3.53,4.216V43.832z"/>
	<rect x="52.159" y="15.527" fill="#FFFFFF" width="6.582" height="11.76"/>
	<rect x="51.919" y="36.395" fill="#FFFFFF" width="6.585" height="11.759"/>
	<rect x="48.628" y="21.408" fill="#FFFFFF" width="13.644" height="21.621"/>
	<rect x="48.244" y="19.022" fill="#010101" width="14.325" height="0.827"/>
	<rect x="48.244" y="23.115" fill="#010101" width="14.325" height="2.644"/>
	<ellipse fill="#010101" cx="53.292" cy="31.685" rx="2.067" ry="1.833"/>
	<ellipse fill="#010101" cx="53.292" cy="36.056" rx="1.105" ry="0.981"/>
	<path fill="#010101" d="M13.155,37.358c0,3.436-2.94,6.222-6.566,6.222l0,0c-3.626,0-6.566-2.786-6.566-6.222V19.223
		c0-3.436,2.94-6.222,6.566-6.222l0,0c3.626,0,6.566,2.786,6.566,6.222V37.358z"/>
	<path fill="#010101" d="M43.427,37.358c0,3.436-2.94,6.222-6.566,6.222l0,0c-3.626,0-6.566-2.786-6.566-6.222V19.223
		c0-3.436,2.94-6.222,6.566-6.222l0,0c3.626,0,6.566,2.786,6.566,6.222V37.358z"/>
	<rect x="5.398" y="13.001" fill="#010101" width="31.462" height="30.475"/>
	<path fill="#FFFFFF" d="M14.131,35.897c0,2.883-2.604,5.22-5.818,5.22l0,0c-3.212,0-5.817-2.337-5.817-5.22V20.684
		c0-2.882,2.604-5.22,5.817-5.22l0,0c3.214,0,5.818,2.338,5.818,5.22V35.897z"/>
	<path fill="#FFFFFF" d="M40.954,35.897c0,2.883-2.605,5.22-5.818,5.22l0,0c-3.212,0-5.818-2.337-5.818-5.22V20.684
		c0-2.882,2.606-5.22,5.818-5.22l0,0c3.213,0,5.818,2.338,5.818,5.22V35.897z"/>
	<rect x="7.259" y="15.464" fill="#FFFFFF" width="27.877" height="25.565"/>
	<path fill="#010101" d="M15.006,34.977c0,2.552-2.305,4.62-5.148,4.62l0,0c-2.843,0-5.148-2.068-5.148-4.62V21.516
		c0-2.55,2.305-4.619,5.148-4.619l0,0c2.843,0,5.148,2.068,5.148,4.619V34.977z"/>
	<path fill="#010101" d="M38.738,34.977c0,2.552-2.304,4.62-5.147,4.62l0,0c-2.842,0-5.147-2.068-5.147-4.62V21.516
		c0-2.55,2.305-4.619,5.147-4.619l0,0c2.844,0,5.147,2.068,5.147,4.619V34.977z"/>
	<rect x="8.924" y="16.897" fill="#010101" width="24.667" height="22.622"/>
	<rect x="16.139" y="43.028" fill="#010101" width="11" height="4.219"/>
	<path fill="#010101" d="M36.86,48.611c0,1.318-1.111,2.388-2.483,2.388H8.56c-1.372,0-2.483-1.069-2.483-2.388l0,0
		c0-1.318,1.111-2.388,2.483-2.388h25.817C35.749,46.224,36.86,47.293,36.86,48.611L36.86,48.611z"/>
</g>
</svg>
