<?xml version="1.0" encoding="utf-8"?>
<!-- Generator: Adobe Illustrator 14.0.0, SVG Export Plug-In . SVG Version: 6.00 Build 43363)  -->
<!DOCTYPE svg PUBLIC "-//W3C//DTD SVG 1.1//EN" "http://www.w3.org/Graphics/SVG/1.1/DTD/svg11.dtd">
<svg version="1.1" id="Layer_1" xmlns="http://www.w3.org/2000/svg" xmlns:xlink="http://www.w3.org/1999/xlink" x="0px" y="0px"
	 width="64px" height="64px" viewBox="0 0 64 64" enable-background="new 0 0 64 64" xml:space="preserve">
<g>
	<path fill="#010101" d="M63.989,20.406c0,3.755-3.285,6.799-7.338,6.799H7.35c-4.053,0-7.339-3.044-7.339-6.799l0,0
		c0-3.755,3.286-6.799,7.339-6.799h49.302C60.704,13.607,63.989,16.651,63.989,20.406L63.989,20.406z"/>
	<path fill="#010101" d="M63.989,54.75c0,3.755-3.285,6.799-7.338,6.799H7.35c-4.053,0-7.339-3.044-7.339-6.799l0,0
		c0-3.755,3.286-6.799,7.339-6.799h49.302C60.704,47.951,63.989,50.995,63.989,54.75L63.989,54.75z"/>
	<path fill="#010101" d="M13.608,54.843c0,3.704-2.978,6.706-6.651,6.706l0,0c-3.673,0-6.651-3.002-6.651-6.706V20.313
		c0-3.703,2.978-6.706,6.651-6.706l0,0c3.673,0,6.651,3.003,6.651,6.706V54.843z"/>
	<path fill="#010101" d="M63.989,34.887c0,2.208-2.535,3.999-5.665,3.999l0,0c-3.13,0-5.665-1.791-5.665-3.999V14.295
		c0-2.208,2.535-3.999,5.665-3.999l0,0c3.13,0,5.665,1.791,5.665,3.999V34.887z"/>
	<path fill="#010101" d="M28.252,16.571c0,2.697-2.731,4.881-6.103,4.881l0,0c-3.369,0-6.101-2.185-6.101-4.881V7.333
		c0-2.697,2.732-4.881,6.101-4.881l0,0c3.371,0,6.103,2.185,6.103,4.881V16.571z"/>
	<path fill="#010101" d="M36.271,16.571c0,2.697-2.731,4.881-6.101,4.881l0,0c-3.37,0-6.101-2.185-6.101-4.881V7.333
		c0-2.697,2.731-4.881,6.101-4.881l0,0c3.37,0,6.101,2.185,6.101,4.881V16.571z"/>
	<rect x="0.307" y="17.443" fill="#010101" width="63.599" height="36.333"/>
	<rect x="21.104" y="2.451" fill="#010101" width="9.065" height="5.055"/>
	<circle fill="#FFFFFF" cx="25.637" cy="37.578" r="16.736"/>
	<circle fill="#010101" cx="25.637" cy="37.578" r="11.332"/>
</g>
</svg>
