<?xml version="1.0" encoding="utf-8"?>
<!-- Generator: Adobe Illustrator 14.0.0, SVG Export Plug-In . SVG Version: 6.00 Build 43363)  -->
<!DOCTYPE svg PUBLIC "-//W3C//DTD SVG 1.1//EN" "http://www.w3.org/Graphics/SVG/1.1/DTD/svg11.dtd">
<svg version="1.1" id="Layer_1" xmlns="http://www.w3.org/2000/svg" xmlns:xlink="http://www.w3.org/1999/xlink" x="0px" y="0px"
	 width="64px" height="64px" viewBox="0 0 64 64" enable-background="new 0 0 64 64" xml:space="preserve">
<g>
	<path fill="#010101" d="M61.524,13.068c0,0-14.387,4.347-16.6,5.454c-2.213,1.107-11.541,5.534-12.33,17.232
		c0,0,8.853-15.652,20.709-17.232c0,0-20.393,17.232-25.295,29.722c0,0-3.872-10.711-19.602-22.845c0,0,9.01,0.554,16.441,13.833
		c0,0,2.845-7.588-10.277-14.385c0,0-8.694-3.637-12.963-4.111c0,0-5.059,8.825,2.688,16.348c7.746,7.523,17.391,4.835,17.391,4.835
		l6.322,9.012l8.537-11.224c0,0,12.49,1.74,18.655-3.952c6.166-5.691,7.273-6.166,8.537-12.964
		C65.003,15.994,61.524,13.068,61.524,13.068z"/>
</g>
</svg>
