<?xml version="1.0" encoding="utf-8"?>
<!-- Generator: Adobe Illustrator 14.0.0, SVG Export Plug-In . SVG Version: 6.00 Build 43363)  -->
<!DOCTYPE svg PUBLIC "-//W3C//DTD SVG 1.1//EN" "http://www.w3.org/Graphics/SVG/1.1/DTD/svg11.dtd">
<svg version="1.1" id="Layer_1" xmlns="http://www.w3.org/2000/svg" xmlns:xlink="http://www.w3.org/1999/xlink" x="0px" y="0px"
	 width="64px" height="64px" viewBox="0 0 64 64" enable-background="new 0 0 64 64" xml:space="preserve">
<g>
	<path fill="#010101" d="M55.624,40.124c0,0,0,23.845-23.665,23.845c-23.666,0-23.583-23.845-23.583-23.845
		c0-15.422,21.249-37.69,23.407-39.913c0.116-0.119,0.176-0.18,0.176-0.18S55.624,24.008,55.624,40.124z"/>
	<path fill="#FFFFFF" d="M33.387,52.14c0,0-5.057-0.29-5.057,3.748c0,4.036,5.057,4.036,5.057,4.036s14.972-0.097,14.972-14.128
		c0,0,0.722-5.959-3.82-5.959c-4.541,0-3.201,5.959-3.201,5.959S39.995,53.1,33.387,52.14z"/>
</g>
</svg>
