<?xml version="1.0" encoding="utf-8"?>
<!-- Generator: Adobe Illustrator 14.0.0, SVG Export Plug-In . SVG Version: 6.00 Build 43363)  -->
<!DOCTYPE svg PUBLIC "-//W3C//DTD SVG 1.1//EN" "http://www.w3.org/Graphics/SVG/1.1/DTD/svg11.dtd">
<svg version="1.1" id="Layer_1" xmlns="http://www.w3.org/2000/svg" xmlns:xlink="http://www.w3.org/1999/xlink" x="0px" y="0px"
	 width="64px" height="64px" viewBox="0 0 64 64" enable-background="new 0 0 64 64" xml:space="preserve">
<g>
	<circle fill="#030303" cx="32.137" cy="40.893" r="7.028"/>
	<path fill="#030303" d="M25.013,50.948C6.84,61.439,0.218,59.867,0.218,59.867s1.961-6.503,20.124-16.99
		c0,0-0.466,2.893,0.729,4.963C22.267,49.912,25.013,50.948,25.013,50.948z"/>
	<path fill="#030303" d="M27.438,29.971c0.001-20.983,4.674-25.933,4.674-25.933s4.651,4.95,4.652,25.923c0,0-2.272-1.85-4.664-1.85
		S27.438,29.971,27.438,29.971z"/>
	<path fill="#030303" d="M43.811,42.865C61.983,53.358,63.933,59.88,63.933,59.88s-6.612,1.554-24.776-8.932
		c0,0,2.739-1.043,3.935-3.113C44.286,45.764,43.811,42.865,43.811,42.865z"/>
</g>
</svg>
