<?xml version="1.0" encoding="utf-8"?>
<!-- Generator: Adobe Illustrator 14.0.0, SVG Export Plug-In . SVG Version: 6.00 Build 43363)  -->
<!DOCTYPE svg PUBLIC "-//W3C//DTD SVG 1.1//EN" "http://www.w3.org/Graphics/SVG/1.1/DTD/svg11.dtd">
<svg version="1.1" id="Layer_1" xmlns="http://www.w3.org/2000/svg" xmlns:xlink="http://www.w3.org/1999/xlink" x="0px" y="0px"
	 width="64px" height="64px" viewBox="0 0 64 64" enable-background="new 0 0 64 64" xml:space="preserve">
<g>
	<circle fill="#030303" cx="32" cy="32" r="32.009"/>
	<path fill="#FFFFFF" d="M59.19,32c0-9.715-5.096-18.24-12.761-23.049C42.248,6.327,37.301,4.81,32,4.81
		C16.983,4.81,4.81,16.983,4.81,32S16.983,59.19,32,59.19S59.19,47.017,59.19,32z"/>
	<path fill="#030303" d="M31.34,18.977c-0.822-0.39-0.66,6.325,0,7.18s7.405-1.668,7.241,6.243c0,0,1.647,1.963,7.242,0
		c0,0,11.027-1.306,0.988,5.112c0,0-2.14,0.988,0.987,4.938c0,0-1.311,4.253,4.199,7.97c5.51,3.716,2.414-3.022,2.414-3.022
		s-2.5-3.302-3.322-3.466s-3.493-5.462,2.304-6.747c0,0,2.799-4.115,0.165-6.913s-5.596-2.961-6.912-2.304s-5.925,6.253-4.938-2.14
		c0,0-3.457-2.798-7.571-2.633c0,0-0.986-1.728,1.646-1.481c2.633,0.247,6.089-0.042,6.089-0.042l7.38-10.688l0.603-2.519
		l-1.77-1.069l-1.861,1.429l-6.614,9.804L31.34,18.977z"/>
	<path fill="#030303" d="M14.267,11.39l-1.894,0.45l-0.429,1.801c0,0,5.49,4.453,6.313,6.017c0.823,1.563,1.975,1.234,3.703,7.735
		l-4.525,0.741c0,0-3.785,2.633-4.197,8.064c0,0,0.412,2.962,1.975,3.374c1.563,0.411,1.563,3.785-0.905,4.032
		s-2.363,2.551-2.363,2.551s0.659,3.291,5.008,4.938c0,0,4.267-2.057,5.008-2.551s5.881,3.823,5.985,10.347
		c0.104,6.522,2.838,0.371,2.838,0.371s-0.019-7.179-1.665-8.249s-3.044-5.514-6.007-5.761s-5.514,2.222-5.514,2.222
		s-3.044-0.493-0.576-2.386s2.633-4.938,1.563-7.159l-1.646-1.288c0,0-0.657-2.745,1.975-5.213c0,0,3.291,0.248,5.595-0.905
		c2.305-1.152,0.33-3.703,0.33-3.703s-1.811-8.313-3.868-9.217C18.915,16.695,17.519,11.927,14.267,11.39z"/>
</g>
</svg>
