<?xml version="1.0" encoding="utf-8"?>
<!-- Generator: Adobe Illustrator 14.0.0, SVG Export Plug-In . SVG Version: 6.00 Build 43363)  -->
<!DOCTYPE svg PUBLIC "-//W3C//DTD SVG 1.1//EN" "http://www.w3.org/Graphics/SVG/1.1/DTD/svg11.dtd">
<svg version="1.1" id="Layer_1" xmlns="http://www.w3.org/2000/svg" xmlns:xlink="http://www.w3.org/1999/xlink" x="0px" y="0px"
	 width="64px" height="64px" viewBox="0 0 64 64" enable-background="new 0 0 64 64" xml:space="preserve">
<path stroke="#010101" d="M9.499,12.877c3.217,6.642-3.113,6.746-3.113,6.746v6.019c6.538-0.312,2.594,6.746,2.594,6.746
	l4.255,3.529c5.396-4.255,6.435,2.698,6.435,2.698h5.708c1.453-6.953,7.161-2.699,7.161-2.699l2.802-4.255
	c-2.387-5.915,3.425-6.642,3.425-6.642v-5.604c-5.916-0.104-3.321-7.161-3.321-7.161l-3.632-3.632
	c-5.189,4.774-6.331-2.697-6.331-2.697h-5.916c-0.83,7.992-6.331,2.906-6.331,2.906L9.499,12.877z"/>
<path fill="none" stroke="#010101" d="M10.848,10.802"/>
<circle fill="#FFFFFF" stroke="#010101" cx="22.471" cy="22.01" r="6.019"/>
<path stroke="#010101" d="M38.183,29.238c2.228,4.599-2.155,4.67-2.155,4.67v4.168c4.527-0.216,1.796,4.67,1.796,4.67l2.946,2.443
	c3.736-2.945,4.455,1.869,4.455,1.869h3.951c1.006-4.814,4.958-1.869,4.958-1.869l1.94-2.946c-1.652-4.095,2.371-4.599,2.371-4.599
	v-3.88c-4.096-0.072-2.299-4.958-2.299-4.958l-2.516-2.515c-3.592,3.305-4.383-1.868-4.383-1.868h-4.096
	c-0.574,5.533-4.383,2.012-4.383,2.012L38.183,29.238z"/>
<path fill="none" stroke="#010101" d="M39.117,27.802"/>
<circle fill="#FFFFFF" stroke="#010101" cx="47.165" cy="35.562" r="4.167"/>
<path stroke="#010101" d="M21.018,44.668c1.665,3.437-1.611,3.49-1.611,3.49v3.115c3.383-0.162,1.342,3.49,1.342,3.49l2.202,1.826
	c2.792-2.202,3.33,1.396,3.33,1.396h2.953c0.752-3.599,3.706-1.397,3.706-1.397l1.449-2.202c-1.234-3.061,1.773-3.437,1.773-3.437
	v-2.899c-3.062-0.055-1.719-3.705-1.719-3.705l-1.88-1.881c-2.685,2.471-3.276-1.395-3.276-1.395h-3.061
	c-0.429,4.135-3.275,1.503-3.275,1.503L21.018,44.668z"/>
<path fill="none" stroke="#010101" d="M21.716,43.594"/>
<circle fill="#FFFFFF" stroke="#010101" cx="27.73" cy="49.394" r="3.115"/>
</svg>
