<?xml version="1.0" encoding="utf-8"?>
<!-- Generator: Adobe Illustrator 14.0.0, SVG Export Plug-In . SVG Version: 6.00 Build 43363)  -->
<!DOCTYPE svg PUBLIC "-//W3C//DTD SVG 1.1//EN" "http://www.w3.org/Graphics/SVG/1.1/DTD/svg11.dtd">
<svg version="1.1" id="Layer_1" xmlns="http://www.w3.org/2000/svg" xmlns:xlink="http://www.w3.org/1999/xlink" x="0px" y="0px"
	 width="64px" height="64px" viewBox="0 0 64 64" enable-background="new 0 0 64 64" xml:space="preserve">
<g>
	<path fill="#010101" d="M31.625,33.996c0,0,8.9-0.978,8.9-10.76c0-9.781-8.9-9.879-8.9-9.879h-2.153c0,0-3.422-7.139-11.835-5.478
		c-8.411,1.664-8.998,8.901-8.998,8.901s-9.39,2.25-8.606,10.172c0.782,7.923,8.216,7.043,8.216,7.043H31.625z"/>
	<path fill="#FFFFFF" d="M30.208,31.914c0,0,7.89-0.813,7.89-8.924c0-8.112-7.89-8.192-7.89-8.192h-1.909
		c0,0-3.035-5.92-10.493-4.543c-7.458,1.379-7.979,7.381-7.979,7.381s-8.326,1.866-7.631,8.437c0.693,6.569,7.285,5.841,7.285,5.841
		H30.208z"/>
	<path fill="#010101" d="M51.617,56.33c0,0,12.396-1.362,12.396-14.983c0-13.623-12.396-13.759-12.396-13.759h-2.996
		c0,0-4.767-9.943-16.482-7.628c-11.715,2.315-12.532,12.396-12.532,12.396S6.53,35.488,7.62,46.522
		c1.09,11.033,11.442,9.808,11.442,9.808H51.617z"/>
	<path fill="#FFFFFF" d="M18.346,41.006c0,0,2.503,0.153,2.503-1.992s-2.503-2.146-2.503-2.146s-7.407,0.051-7.407,7.509
		c0,0-0.357,3.167,1.89,3.167c2.247,0,1.583-3.167,1.583-3.167S15.077,40.495,18.346,41.006z"/>
</g>
</svg>
