<?xml version="1.0" encoding="utf-8"?>
<!-- Generator: Adobe Illustrator 14.0.0, SVG Export Plug-In . SVG Version: 6.00 Build 43363)  -->
<!DOCTYPE svg PUBLIC "-//W3C//DTD SVG 1.1//EN" "http://www.w3.org/Graphics/SVG/1.1/DTD/svg11.dtd">
<svg version="1.1" id="Layer_1" xmlns="http://www.w3.org/2000/svg" xmlns:xlink="http://www.w3.org/1999/xlink" x="0px" y="0px"
	 width="64px" height="64px" viewBox="0 0 64 64" enable-background="new 0 0 64 64" xml:space="preserve">
<g>
	<path fill="#010101" d="M52.702,55.853V22.399H11.297v33.453c0,0-0.028,8.102,11.852,8.102c11.88,0,16.952,0,16.952,0
		S52.702,63.926,52.702,55.853z"/>
	<path fill="#010101" d="M32,7.098v8.851H6.797c0,0,4.051-8.851,10.202-8.851S32,7.098,32,7.098z"/>
	<path fill="#010101" d="M32,7.098v8.851h25.203c0,0-4.051-8.851-10.201-8.851C40.851,7.098,32,7.098,32,7.098z"/>
	<path fill="#010101" d="M32,0.046v3.779h-8.101c0,0,1.302-3.779,3.278-3.779C29.156,0.046,32,0.046,32,0.046z"/>
	<path fill="#010101" d="M32,0.046v3.779h8.101c0,0-1.302-3.779-3.277-3.779C34.844,0.046,32,0.046,32,0.046z"/>
	<path fill="#FFFFFF" d="M38.718,32.737l-6.883-4.274l0.143,2.953c0,0-14.023,1.215-10.123,16.894c0,0,1.561-9.199,9.686-13.651
		l0.078,2.071L38.718,32.737z"/>
	<path fill="#FFFFFF" d="M24.831,51.448l6.884,4.273l-0.143-2.953c0,0,14.024-1.216,10.124-16.895c0,0-1.563,9.199-9.687,13.651
		l-0.077-2.07L24.831,51.448z"/>
</g>
</svg>
