<?xml version="1.0" encoding="utf-8"?>
<!-- Generator: Adobe Illustrator 14.0.0, SVG Export Plug-In . SVG Version: 6.00 Build 43363)  -->
<!DOCTYPE svg PUBLIC "-//W3C//DTD SVG 1.1//EN" "http://www.w3.org/Graphics/SVG/1.1/DTD/svg11.dtd">
<svg version="1.1" id="Layer_1" xmlns="http://www.w3.org/2000/svg" xmlns:xlink="http://www.w3.org/1999/xlink" x="0px" y="0px"
	 width="64px" height="64px" viewBox="0 0 64 64" enable-background="new 0 0 64 64" xml:space="preserve">
<g>
	<polygon fill="#010101" points="54.714,9.444 51.054,17.485 59.777,16.091 54.162,22.911 62.949,23.823 55.759,28.957 
		64.011,32.112 55.737,35.21 62.891,40.393 54.098,41.244 59.666,48.102 50.952,46.648 54.556,54.714 46.515,51.054 47.909,59.777 
		41.089,54.162 40.177,62.949 35.044,55.759 31.888,64.011 28.791,55.737 23.607,62.891 22.756,54.098 15.898,59.666 17.352,50.952 
		9.286,54.556 12.946,46.515 4.222,47.909 9.838,41.089 1.051,40.177 8.241,35.044 -0.011,31.888 8.263,28.79 1.109,23.607 
		9.902,22.756 4.334,15.898 13.048,17.352 9.444,9.286 17.485,12.946 16.091,4.222 22.911,9.838 23.823,1.051 28.957,8.241 
		32.112,-0.011 35.209,8.263 40.393,1.109 41.244,9.902 48.102,4.334 46.648,13.048 	"/>
	<circle fill="#FFFEFE" cx="32" cy="32" r="15.301"/>
	<circle fill="#010101" cx="32" cy="32" r="11.515"/>
</g>
</svg>
