<?xml version="1.0" encoding="utf-8"?>
<!-- Generator: Adobe Illustrator 14.0.0, SVG Export Plug-In . SVG Version: 6.00 Build 43363)  -->
<!DOCTYPE svg PUBLIC "-//W3C//DTD SVG 1.1//EN" "http://www.w3.org/Graphics/SVG/1.1/DTD/svg11.dtd">
<svg version="1.1" id="Layer_1" xmlns="http://www.w3.org/2000/svg" xmlns:xlink="http://www.w3.org/1999/xlink" x="0px" y="0px"
	 width="64px" height="64px" viewBox="0 0 64 64" enable-background="new 0 0 64 64" xml:space="preserve">
<g>
	<path fill="#010101" d="M34.514,50.705c0,7.328-5.856,13.27-13.081,13.27h-6.54c-7.225,0-13.081-5.941-13.081-13.27V13.294
		c0-7.328,5.856-13.269,13.081-13.269h6.54c7.225,0,13.081,5.941,13.081,13.269V50.705z"/>
	<path fill="#010101" d="M62.188,50.705c0,7.328-5.855,13.27-13.08,13.27h-6.54c-7.225,0-13.081-5.941-13.081-13.27V13.294
		c0-7.328,5.856-13.269,13.081-13.269h6.54c7.225,0,13.08,5.941,13.08,13.269V50.705z"/>
	<rect x="14.893" y="0.026" fill="#010101" width="30.944" height="63.949"/>
	<circle fill="#FFFFFF" cx="31.97" cy="32" r="16.713"/>
	<rect x="29.487" y="22.008" fill="#010101" width="5.027" height="19.076"/>
	<rect x="22.433" y="29.487" fill="#010101" width="19.075" height="5.027"/>
	<path fill="#FFFFFF" d="M56.677,21.826h2.135v-9.855c0,0-1.771-7.605-7.539-7.585c-3.861,0.014-8.811,0-8.811,0v2.18l8.765-0.09
		c0,0,4.36,0.635,5.496,5.496L56.677,21.826z"/>
	<path fill="#FFFFFF" d="M7.627,42.583H5.491v9.854c0,0,1.771,7.605,7.54,7.586c3.861-0.015,8.811,0,8.811,0v-2.18l-8.765,0.089
		c0,0-4.36-0.635-5.496-5.495L7.627,42.583z"/>
</g>
</svg>
