<?xml version="1.0" encoding="utf-8"?>
<!-- Generator: Adobe Illustrator 14.0.0, SVG Export Plug-In . SVG Version: 6.00 Build 43363)  -->
<!DOCTYPE svg PUBLIC "-//W3C//DTD SVG 1.1//EN" "http://www.w3.org/Graphics/SVG/1.1/DTD/svg11.dtd">
<svg version="1.1" id="Layer_1" xmlns="http://www.w3.org/2000/svg" xmlns:xlink="http://www.w3.org/1999/xlink" x="0px" y="0px"
	 width="64px" height="64px" viewBox="0 0 64 64" enable-background="new 0 0 64 64" xml:space="preserve">
<g>
	<path fill="#010101" d="M59.073,33.56c5.898,5.643,6.598,14.484,1.562,19.747l-6.077,6.355c-5.034,5.264-13.899,4.957-19.798-0.686
		L4.926,30.439c-5.897-5.642-6.597-14.486-1.562-19.748l6.077-6.355c5.036-5.264,13.901-4.956,19.798,0.687L59.073,33.56z"/>
	<path fill="#010101" d="M30.44,59.073c-5.643,5.898-14.484,6.598-19.748,1.562l-6.354-6.077
		c-5.265-5.034-4.958-13.899,0.685-19.798L33.561,4.926c5.642-5.897,14.486-6.597,19.747-1.562l6.356,6.077
		c5.263,5.036,4.955,13.901-0.688,19.798L30.44,59.073z"/>
	<path fill="#FFFFFF" d="M30.586,56.548c-5.117,5.35-13.133,5.982-17.906,1.416l-5.762-5.51C2.145,47.89,2.424,39.851,7.54,34.502
		L33.415,7.451C38.53,2.104,46.55,1.469,51.32,6.035l5.764,5.51c4.772,4.566,4.493,12.604-0.623,17.951L30.586,56.548z"/>
	
		<rect x="21.416" y="25.947" transform="matrix(0.6912 -0.7226 0.7226 0.6912 -23.5744 29.1452)" fill="#030303" width="1.804" height="32.424"/>
	
		<rect x="39.828" y="6.944" transform="matrix(0.6918 -0.7221 0.7221 0.6918 -4.0468 36.4968)" fill="#030303" width="1.804" height="32.089"/>
	<circle fill="#010101" cx="30.395" cy="19.31" r="1.12"/>
	<circle fill="#010101" cx="33.38" cy="24.161" r="1.12"/>
	<circle fill="#010101" cx="27.533" cy="24.161" r="1.119"/>
	<circle fill="#010101" cx="41.403" cy="28.142" r="1.119"/>
	<circle fill="#010101" cx="44.389" cy="34.112" r="1.119"/>
	<circle fill="#010101" cx="38.542" cy="34.112" r="1.12"/>
	<circle fill="#010101" cx="22.309" cy="27.707" r="1.12"/>
	<circle fill="#010101" cx="25.294" cy="32.558" r="1.12"/>
	<circle fill="#010101" cx="19.448" cy="32.558" r="1.119"/>
	<circle fill="#010101" cx="32.136" cy="37.409" r="1.12"/>
	<circle fill="#010101" cx="35.122" cy="42.261" r="1.12"/>
	<circle fill="#010101" cx="29.275" cy="42.261" r="1.12"/>
</g>
</svg>
