<?xml version="1.0" encoding="utf-8"?>
<!-- Generator: Adobe Illustrator 14.0.0, SVG Export Plug-In . SVG Version: 6.00 Build 43363)  -->
<!DOCTYPE svg PUBLIC "-//W3C//DTD SVG 1.1//EN" "http://www.w3.org/Graphics/SVG/1.1/DTD/svg11.dtd">
<svg version="1.1" id="Layer_1" xmlns="http://www.w3.org/2000/svg" xmlns:xlink="http://www.w3.org/1999/xlink" x="0px" y="0px"
	 width="64px" height="64px" viewBox="0 0 64 64" enable-background="new 0 0 64 64" xml:space="preserve">
<g>
	<polygon fill="none" points="61.27,63.984 2.697,63.984 2.697,0.135 61.27,2.919 	"/>
	<ellipse fill="#030303" cx="5.232" cy="61.499" rx="2.535" ry="2.485"/>
	<path fill="#030303" d="M31.984,27.388c0,0-19.966,0.851-29.287,34.111h5.069c0,0,9.363-26.417,24.217-29.44V27.388z"/>
	<path fill="none" d="M31.984,27.388v4.67V27.388z"/>
	<ellipse fill="#030303" cx="58.767" cy="2.297" rx="2.536" ry="2.168"/>
	<path fill="#010101" d="M32,32.059c0,0,19.977-0.742,29.303-29.761H56.23c0,0-9.385,22.453-24.247,25.091L32,32.059z"/>
	<ellipse fill="#010101" cx="58.765" cy="61.499" rx="2.538" ry="2.485"/>
	<path fill="#030303" d="M42.686,31.652c6.255,4.271,13.835,12.802,18.617,29.847h-5.075c0,0-7.171-20.209-18.917-27.298
		C35.626,33.186,36.735,27.591,42.686,31.652z"/>
	<path fill="#FFFFFF" d="M42.758,28.3c0,0-5.037,2.741-7.815,3.27c-2.779,0.528,0.949,2.491,0.949,2.491s8.765-2.552,9.812-3.402
		C46.749,29.808,42.758,28.3,42.758,28.3z"/>
	<ellipse fill="#010101" cx="5.235" cy="2.136" rx="2.538" ry="2.121"/>
	<path fill="#030303" d="M21.314,27.593C15.06,23.951,7.479,16.674,2.697,2.136h5.075c0,0,7.17,17.237,18.917,23.283
		C28.374,26.286,27.265,31.057,21.314,27.593z"/>
	<path fill="#FFFFFF" d="M30.719,27.557c0,0-4.113,0.585-7.571,2.926L19.213,28.3c0,0,6.999-3.659,9.092-3.659L30.719,27.557z"/>
	<rect x="13.261" y="1.006" fill="#010101" width="37.516" height="1.415"/>
	<rect x="18.439" y="8.157" fill="#010101" width="27.089" height="1.415"/>
	<rect x="23.584" y="14.78" fill="#010101" width="16.8" height="1.415"/>
	<rect x="27.683" y="21.587" fill="#010101" width="8.601" height="1.415"/>
	<rect x="13.226" y="60.847" fill="#010101" width="37.515" height="1.415"/>
	<rect x="18.474" y="53.697" fill="#010101" width="27.088" height="1.414"/>
	<rect x="23.619" y="47.074" fill="#010101" width="16.799" height="1.415"/>
	<rect x="27.718" y="40.266" fill="#010101" width="8.602" height="1.415"/>
</g>
</svg>
