<?xml version="1.0" encoding="utf-8"?>
<!-- Generator: Adobe Illustrator 14.0.0, SVG Export Plug-In . SVG Version: 6.00 Build 43363)  -->
<!DOCTYPE svg PUBLIC "-//W3C//DTD SVG 1.1//EN" "http://www.w3.org/Graphics/SVG/1.1/DTD/svg11.dtd">
<svg version="1.1" id="Layer_1" xmlns="http://www.w3.org/2000/svg" xmlns:xlink="http://www.w3.org/1999/xlink" x="0px" y="0px"
	 width="64px" height="64px" viewBox="0 0 64 64" enable-background="new 0 0 64 64" xml:space="preserve">
<g>
	<path fill="#010101" d="M8.689,41.31c-3.467,2.991-3.863,8.213-0.887,11.658l0,0c2.975,3.448,8.196,3.82,11.662,0.83L61.13,17.842
		c3.465-2.99,3.862-8.211,0.887-11.658l0,0c-2.977-3.448-8.197-3.818-11.663-0.83L8.689,41.31z"/>
	<path d="M1.721,52.498c-2.021,1.743-2.316,4.713-0.66,6.63l0,0c1.655,1.918,4.633,2.062,6.653,0.318l24.285-20.957
		c2.02-1.742,2.315-4.713,0.661-6.63l0,0c-1.656-1.918-4.636-2.059-6.655-0.318L1.721,52.498z"/>
	
		<rect x="35.963" y="18.999" transform="matrix(0.7511 -0.6601 0.6601 0.7511 -5.9134 30.516)" fill="#FFFFFF" width="3.107" height="8.205"/>
	
		<rect x="27.563" y="26.22" transform="matrix(0.7511 -0.6601 0.6601 0.7511 -12.7715 26.7675)" fill="#FFFFFF" width="3.107" height="8.205"/>
	
		<rect x="19.566" y="33.112" transform="matrix(0.7511 -0.6602 0.6602 0.7511 -19.3131 23.2082)" fill="#FFFFFF" width="3.108" height="8.206"/>
	<path fill="#FFFFFF" d="M55.517,21.038c-2.245,2.038-6.1,1.448-8.61-1.319l0,0c-2.512-2.766-2.728-6.658-0.483-8.696l5.7-5.176
		c2.245-2.038,6.1-1.449,8.612,1.317l0,0c2.51,2.766,2.726,6.66,0.481,8.697L55.517,21.038z"/>
	<polygon fill="#FFFFFF" points="50.965,24.933 56.458,20.184 48.148,9.456 42.49,14.546 	"/>
</g>
</svg>
