<?xml version="1.0" encoding="utf-8"?>
<!-- Generator: Adobe Illustrator 14.0.0, SVG Export Plug-In . SVG Version: 6.00 Build 43363)  -->
<!DOCTYPE svg PUBLIC "-//W3C//DTD SVG 1.1//EN" "http://www.w3.org/Graphics/SVG/1.1/DTD/svg11.dtd">
<svg version="1.1" id="Layer_1" xmlns="http://www.w3.org/2000/svg" xmlns:xlink="http://www.w3.org/1999/xlink" x="0px" y="0px"
	 width="64px" height="64px" viewBox="0 0 64 64" enable-background="new 0 0 64 64" xml:space="preserve">
<path fill="#010101" stroke="#000000" d="M59.167,17c0-6.627-5.373-12-12-12H16.833c-6.627,0-12,5.373-12,12v30.334
	c0,6.627,5.373,12,12,12h30.334c6.627,0,12-5.373,12-12V17z"/>
<rect x="10" y="31.833" fill="#FFFFFF" stroke="#030303" width="44.333" height="21.417"/>
<circle fill="#030303" stroke="#020202" cx="32" cy="31.833" r="17.5"/>
<circle fill="#FFFFFF" stroke="#000000" cx="32" cy="32.167" r="10.334"/>
<path fill="#F9F9F9" d="M54.333,16.25c0,3.083-2.5,5.583-5.583,5.583h-0.833c-3.083,0-5.583-2.5-5.583-5.583l0,0
	c0-3.083,2.5-5.583,5.583-5.583h0.833C51.833,10.667,54.333,13.167,54.333,16.25L54.333,16.25z"/>
</svg>
