<?xml version="1.0" encoding="utf-8"?>
<!-- Generator: Adobe Illustrator 14.0.0, SVG Export Plug-In . SVG Version: 6.00 Build 43363)  -->
<!DOCTYPE svg PUBLIC "-//W3C//DTD SVG 1.1//EN" "http://www.w3.org/Graphics/SVG/1.1/DTD/svg11.dtd">
<svg version="1.1" id="Layer_1" xmlns="http://www.w3.org/2000/svg" xmlns:xlink="http://www.w3.org/1999/xlink" x="0px" y="0px"
	 width="64px" height="64px" viewBox="0 0 64 64" enable-background="new 0 0 64 64" xml:space="preserve">
<g>
	
		<rect x="55.39" y="3.001" transform="matrix(-0.7511 0.6601 -0.6601 -0.7511 107.5699 -19.5487)" fill="#010101" width="4.159" height="15.002"/>
	
		<rect x="52.758" y="6.999" transform="matrix(-0.7512 0.6601 -0.6601 -0.7512 104.469 -13.8085)" fill="#010101" width="4.159" height="11.571"/>
	<polygon fill="#010101" points="42.263,7.764 44.391,10.277 10.939,39.89 13.293,42.62 7.696,47.41 10.047,50.239 0.018,59.176 
		1.204,60.506 11.234,51.569 13.124,53.751 18.72,48.961 22.595,53.396 56.076,23.853 57.88,25.953 59.807,24.164 44.262,6.081 	"/>
	<polygon fill="#FFFFFF" points="22.335,49.796 14.445,40.721 18.329,37.397 22.586,42.188 24.715,40.239 20.457,35.45 
		27.986,28.842 32.243,33.631 34.372,31.684 30.114,26.894 38.004,19.955 42.262,24.745 44.391,22.797 40.133,18.007 46.335,12.517 
		54.138,21.643 	"/>
</g>
</svg>
