<?xml version="1.0" encoding="utf-8"?>
<!-- Generator: Adobe Illustrator 14.0.0, SVG Export Plug-In . SVG Version: 6.00 Build 43363)  -->
<!DOCTYPE svg PUBLIC "-//W3C//DTD SVG 1.1//EN" "http://www.w3.org/Graphics/SVG/1.1/DTD/svg11.dtd">
<svg version="1.1" id="Layer_1" xmlns="http://www.w3.org/2000/svg" xmlns:xlink="http://www.w3.org/1999/xlink" x="0px" y="0px"
	 width="64px" height="64px" viewBox="0 0 64 64" enable-background="new 0 0 64 64" xml:space="preserve">
<g>
	<path fill="none" stroke="#010101" stroke-width="2" d="M31.976,2.219c0,0-8.944,0-8.944,29.781s8.944,29.781,8.944,29.781
		s9.041,0,9.041-29.781S31.976,2.219,31.976,2.219z"/>
	<path fill="none" stroke="#010101" stroke-width="2" d="M9.981,10.975c0,0-6.324,6.051,15.684,27.109
		c22.01,21.059,28.333,15.008,28.333,15.008s6.394-6.117-15.615-27.176C16.375,4.857,9.981,10.975,9.981,10.975z"/>
	<path fill="none" stroke="#010101" stroke-width="2" d="M0.875,32.037c0,0,0,8.558,31.125,8.558s31.125-8.558,31.125-8.558
		s0-8.65-31.125-8.65C0.875,23.386,0.875,32.037,0.875,32.037z"/>
	<path fill="none" stroke="#010101" stroke-width="2" d="M10.025,53.082c0,0,6.324,6.051,28.333-15.008
		c22.009-21.058,15.684-27.109,15.684-27.109s-6.392-6.116-28.4,14.942C3.632,46.964,10.025,53.082,10.025,53.082z"/>
	<ellipse fill="#010101" cx="31.97" cy="31.99" rx="4.67" ry="4.469"/>
</g>
</svg>
