<?xml version="1.0" encoding="utf-8"?>
<!-- Generator: Adobe Illustrator 14.0.0, SVG Export Plug-In . SVG Version: 6.00 Build 43363)  -->
<!DOCTYPE svg PUBLIC "-//W3C//DTD SVG 1.1//EN" "http://www.w3.org/Graphics/SVG/1.1/DTD/svg11.dtd">
<svg version="1.1" id="Layer_1" xmlns="http://www.w3.org/2000/svg" xmlns:xlink="http://www.w3.org/1999/xlink" x="0px" y="0px"
	 width="64px" height="64px" viewBox="0 0 64 64" enable-background="new 0 0 64 64" xml:space="preserve">
<g>
	<path fill="#030303" d="M43.379,53.747c0,5.645-5.095,10.222-11.379,10.222l0,0c-6.284,0-11.378-4.577-11.378-10.222V10.253
		c0-5.645,5.094-10.222,11.378-10.222l0,0c6.284,0,11.379,4.577,11.379,10.222V53.747z"/>
	<path fill="#FFFFFF" d="M40.489,51.168c0,4.975-3.768,9.008-8.415,9.008l0,0c-4.648,0-8.416-4.033-8.416-9.008V12.833
		c0-4.975,3.768-9.008,8.416-9.008l0,0c4.647,0,8.415,4.033,8.415,9.008V51.168z"/>
	<rect x="23.512" y="31.683" fill="#030303" width="16.978" height="28.854"/>
	<path fill="#FFFFFF" d="M34.732,54.374c0,0.597,0.501,1.082,1.117,1.082l0,0c0.617,0,1.118-0.485,1.118-1.082v-22.49
		c0-0.597-0.501-1.082-1.118-1.082l0,0c-0.616,0-1.117,0.484-1.117,1.082V54.374z"/>
	<path fill="#FFFFFF" d="M31.219,57.746c-0.104,0.124,0.216,0.566,0.716,0.99l0,0c0.5,0.425,0.989,0.669,1.094,0.546l3.92-4.613
		c0.104-0.123-0.216-0.564-0.715-0.99l0,0c-0.5-0.423-0.988-0.667-1.095-0.546L31.219,57.746z"/>
</g>
</svg>
