<?xml version="1.0" encoding="utf-8"?>
<!-- Generator: Adobe Illustrator 14.0.0, SVG Export Plug-In . SVG Version: 6.00 Build 43363)  -->
<!DOCTYPE svg PUBLIC "-//W3C//DTD SVG 1.1//EN" "http://www.w3.org/Graphics/SVG/1.1/DTD/svg11.dtd">
<svg version="1.1" id="Layer_1" xmlns="http://www.w3.org/2000/svg" xmlns:xlink="http://www.w3.org/1999/xlink" x="0px" y="0px"
	 width="64px" height="64px" viewBox="0 0 64 64" enable-background="new 0 0 64 64" xml:space="preserve">
<g>
	<path fill="#010101" d="M44.16,25.389c0,6.272-5.354,11.357-11.959,11.357h-3.488c-6.605,0-11.96-5.085-11.96-11.357V15.214
		c0-6.272,5.355-11.357,11.96-11.357h3.488c6.605,0,11.959,5.085,11.959,11.357V25.389z"/>
	<rect x="22.18" y="34.497" fill="#010101" width="16.554" height="9.266"/>
	<path fill="#010101" d="M30.457,60.06H4.402c0,0-3.947-0.877-3.947-5.262c0-4.386,4.97-8.039,5.701-8.624
		s16.024-4.093,16.024-4.093h8.277V60.06z"/>
	<path fill="#010101" d="M30.347,60.06h26.405c0,0,3.999-0.877,3.999-5.262c0-4.386-5.037-8.039-5.777-8.624
		s-16.239-4.093-16.239-4.093h-8.388V60.06z"/>
	<path fill="#FFFEFE" d="M64.003,51.254V36.38c0,0-0.028-2.708-2.631-2.708c-2.604,0-15.769,0-15.769,0s-2.649,0.012-2.649,2.708
		s0,14.874,0,14.874s0.009,2.676,2.649,2.676s15.769,0,15.769,0S64.003,53.894,64.003,51.254z"/>
	<path fill="#010101" d="M61.372,49.535V38.171c0,0,0.044-1.791-1.791-1.791c-1.836,0-12.169,0-12.169,0s-1.789,0.009-1.809,1.791
		c-0.019,1.783,0,11.364,0,11.364s-0.012,1.719,1.809,1.719s12.169,0,12.169,0S61.372,51.262,61.372,49.535z"/>
	<path fill="#FFFFFF" d="M57.827,44.274c0,0.767-0.622,1.389-1.389,1.389h-5.556c-0.766,0-1.388-0.622-1.388-1.389l0,0
		c0-0.768,0.622-1.389,1.388-1.389h5.556C57.205,42.886,57.827,43.507,57.827,44.274L57.827,44.274z"/>
</g>
</svg>
