<?xml version="1.0" encoding="utf-8"?>
<!-- Generator: Adobe Illustrator 14.0.0, SVG Export Plug-In . SVG Version: 6.00 Build 43363)  -->
<!DOCTYPE svg PUBLIC "-//W3C//DTD SVG 1.1//EN" "http://www.w3.org/Graphics/SVG/1.1/DTD/svg11.dtd">
<svg version="1.1" id="Layer_1" xmlns="http://www.w3.org/2000/svg" xmlns:xlink="http://www.w3.org/1999/xlink" x="0px" y="0px"
	 width="64px" height="64px" viewBox="0 0 64 64" enable-background="new 0 0 64 64" xml:space="preserve">
<g>
	<path fill="#010101" d="M26.949,51.999c0,5.766-5.788,10.441-12.928,10.441l0,0c-7.14,0-12.927-4.676-12.927-10.441V12.214
		c0-5.767,5.788-10.442,12.927-10.442l0,0c7.14,0,12.928,4.676,12.928,10.442V51.999z"/>
	<path fill="#FFFFFF" d="M41.657,52.888c0,6.057-7.044,10.966-15.734,10.966l0,0c-8.688,0-15.732-4.909-15.732-10.966V11.112
		c0-6.056,7.044-10.966,15.732-10.966l0,0c8.69,0,15.734,4.91,15.734,10.966V52.888z"/>
	<path fill="#010101" d="M62.906,53.481V11.112c0,0-0.066-7.716-6.241-7.716s-37.402,0-37.402,0s-6.286,0.033-6.286,7.716
		c0,7.679,0,42.369,0,42.369s0.023,7.623,6.286,7.623c6.264,0,37.402,0,37.402,0S62.906,61,62.906,53.481z"/>
	<path fill="#FFFFFF" d="M56.665,48.586V16.212c0,0,0.105-5.1-4.248-5.1s-28.864,0-28.864,0s-4.245,0.023-4.29,5.1
		c-0.044,5.077,0,32.374,0,32.374s-0.028,4.896,4.29,4.896c4.316,0,28.864,0,28.864,0S56.665,53.503,56.665,48.586z"/>
	<path fill="#010101" d="M44.207,28.043c0,2.946-2.515,5.335-5.617,5.335h-1.639c-3.103,0-5.617-2.389-5.617-5.335v-4.779
		c0-2.945,2.515-5.334,5.617-5.334h1.639c3.103,0,5.617,2.389,5.617,5.334V28.043z"/>
	<rect x="33.883" y="32.322" fill="#010101" width="7.774" height="4.352"/>
	<path fill="#010101" d="M37.771,44.328H25.534c0,0-1.855-0.414-1.855-2.471c0-2.062,2.335-3.776,2.679-4.052
		c0.343-0.275,7.525-1.923,7.525-1.923h3.888V44.328z"/>
	<path fill="#010101" d="M37.771,44.328h12.356c0,0,1.873-0.414,1.873-2.471c0-2.062-2.357-3.776-2.705-4.052
		c-0.346-0.275-7.6-1.923-7.6-1.923h-3.925V44.328z"/>
</g>
</svg>
