<?xml version="1.0" encoding="utf-8"?>
<!-- Generator: Adobe Illustrator 14.0.0, SVG Export Plug-In . SVG Version: 6.00 Build 43363)  -->
<!DOCTYPE svg PUBLIC "-//W3C//DTD SVG 1.1//EN" "http://www.w3.org/Graphics/SVG/1.1/DTD/svg11.dtd">
<svg version="1.1" id="Layer_1" xmlns="http://www.w3.org/2000/svg" xmlns:xlink="http://www.w3.org/1999/xlink" x="0px" y="0px"
	 width="64px" height="64px" viewBox="0 0 64 64" enable-background="new 0 0 64 64" xml:space="preserve">
<g>
	<path fill="#010101" d="M34.663,40.896c0,5.474-6.206,9.909-13.864,9.909h-6.932c-7.658,0-13.865-4.436-13.865-9.909V12.952
		c0-5.473,6.208-9.911,13.865-9.911h6.932c7.658,0,13.864,4.438,13.864,9.911V40.896z"/>
	<path fill="#010101" d="M63.997,40.896c0,5.474-6.207,9.909-13.865,9.909h-6.931c-7.658,0-13.865-4.436-13.865-9.909V12.952
		c0-5.473,6.207-9.911,13.865-9.911h6.931c7.658,0,13.865,4.438,13.865,9.911V40.896z"/>
	<rect x="13.868" y="3.042" fill="#010101" width="32.798" height="47.764"/>
	<polygon fill="#010101" points="42.215,60.959 50.658,49.309 31.409,49.309 	"/>
	<path fill="#FFFFFF" d="M33.968,37.248c0,4.042-4.585,7.319-10.243,7.319h-5.121c-5.658,0-10.244-3.277-10.244-7.319V16.601
		c0-4.044,4.586-7.322,10.244-7.322h5.121c5.657,0,10.243,3.278,10.243,7.322V37.248z"/>
	<path fill="#FFFFFF" d="M55.64,37.248c0,4.042-4.585,7.319-10.243,7.319h-5.121c-5.657,0-10.243-3.277-10.243-7.319V16.601
		c0-4.044,4.586-7.322,10.243-7.322h5.121c5.658,0,10.243,3.278,10.243,7.322V37.248z"/>
	<rect x="18.604" y="9.279" fill="#FFFFFF" width="24.233" height="35.288"/>
</g>
</svg>
