<?xml version="1.0" encoding="utf-8"?>
<!-- Generator: Adobe Illustrator 14.0.0, SVG Export Plug-In . SVG Version: 6.00 Build 43363)  -->
<!DOCTYPE svg PUBLIC "-//W3C//DTD SVG 1.1//EN" "http://www.w3.org/Graphics/SVG/1.1/DTD/svg11.dtd">
<svg version="1.1" id="Layer_1" xmlns="http://www.w3.org/2000/svg" xmlns:xlink="http://www.w3.org/1999/xlink" x="0px" y="0px"
	 width="64px" height="64px" viewBox="0 0 64 64" enable-background="new 0 0 64 64" xml:space="preserve">
<g>
	<path fill="#010101" d="M34.664,40.898c0,5.475-6.208,9.912-13.867,9.912h-6.934c-7.659,0-13.868-4.438-13.868-9.912V12.948
		c0-5.475,6.209-9.913,13.868-9.913h6.934c7.659,0,13.867,4.438,13.867,9.913V40.898z"/>
	<path fill="#010101" d="M64.005,40.898c0,5.475-6.209,9.912-13.868,9.912h-6.934c-7.659,0-13.867-4.438-13.867-9.912V12.948
		c0-5.475,6.208-9.913,13.867-9.913h6.934c7.659,0,13.868,4.438,13.868,9.913V40.898z"/>
	<rect x="13.863" y="3.035" fill="#010101" width="32.807" height="47.776"/>
	<circle fill="#FFFFFF" cx="32.591" cy="26.922" r="17.396"/>
	<circle fill="#010101" cx="32.591" cy="26.922" r="13.741"/>
	<path fill="#FFFFFF" d="M38.333,26.933c0,1.259-1.021,2.28-2.279,2.28h-7.601c-1.259,0-2.28-1.021-2.28-2.28l0,0
		c0-1.259,1.021-2.28,2.28-2.28h7.601C37.313,24.653,38.333,25.674,38.333,26.933L38.333,26.933z"/>
	<polygon fill="#010101" points="42.218,60.966 50.663,49.313 31.409,49.313 	"/>
	<path fill="#FFFFFF" d="M32.253,33.014c-1.259,0-2.28-1.022-2.28-2.281v-7.6c0-1.259,1.021-2.28,2.28-2.28l0,0
		c1.258,0,2.28,1.021,2.28,2.28v7.6C34.533,31.992,33.512,33.014,32.253,33.014L32.253,33.014z"/>
</g>
</svg>
