<?xml version="1.0" encoding="utf-8"?>
<!-- Generator: Adobe Illustrator 14.0.0, SVG Export Plug-In . SVG Version: 6.00 Build 43363)  -->
<!DOCTYPE svg PUBLIC "-//W3C//DTD SVG 1.1//EN" "http://www.w3.org/Graphics/SVG/1.1/DTD/svg11.dtd">
<svg version="1.1" id="Layer_1" xmlns="http://www.w3.org/2000/svg" xmlns:xlink="http://www.w3.org/1999/xlink" x="0px" y="0px"
	 width="64px" height="64px" viewBox="0 0 64 64" enable-background="new 0 0 64 64" xml:space="preserve">
<g>
	<path fill="#010101" d="M63.979,19.822c0,0-7.151-13.494-31.979-13.494S0.021,19.822,0.021,19.822l7.151,6.477
		c0,0,11.335-9.85,24.828-9.985c13.493-0.135,24.558,9.985,24.558,9.985L63.979,19.822z"/>
	<path fill="#010101" d="M51.431,29.384c0,0-4.346-8.752-19.431-8.752c-15.085,0-19.431,8.752-19.431,8.752l4.345,4.2
		c0,0,6.887-6.388,15.085-6.475c8.198-0.088,14.922,6.475,14.922,6.475L51.431,29.384z"/>
	<path fill="#010101" d="M45.088,36.688c0,0-5.666-5.262-13.088-5.262s-13.224,5.262-13.224,5.262l4.183,4.184
		c0,0,2.834-3.238,9.041-3.374c6.206-0.135,9.04,3.374,9.04,3.374L45.088,36.688z"/>
	<circle fill="#010101" cx="31.932" cy="49.778" r="7.893"/>
</g>
</svg>
