<?xml version="1.0" encoding="utf-8"?>
<!-- Generator: Adobe Illustrator 14.0.0, SVG Export Plug-In . SVG Version: 6.00 Build 43363)  -->
<!DOCTYPE svg PUBLIC "-//W3C//DTD SVG 1.1//EN" "http://www.w3.org/Graphics/SVG/1.1/DTD/svg11.dtd">
<svg version="1.1" id="Layer_1" xmlns="http://www.w3.org/2000/svg" xmlns:xlink="http://www.w3.org/1999/xlink" x="0px" y="0px"
	 width="64px" height="64px" viewBox="0 0 64 64" enable-background="new 0 0 64 64" xml:space="preserve">
<g>
	<path fill="#010101" d="M43.061,24.101c0,4.655-4.36,8.429-9.741,8.429H30.48c-5.378,0-9.741-3.774-9.741-8.429v-7.549
		c0-4.654,4.363-8.427,9.741-8.427h2.839c5.381,0,9.741,3.772,9.741,8.427V24.101z"/>
	<path fill="#010101" d="M15.487,50.034c0,3.228-3.004,5.841-6.709,5.841H6.821c-3.705,0-6.708-2.613-6.708-5.841v-5.229
		c0-3.225,3.003-5.839,6.708-5.839h1.957c3.705,0,6.709,2.614,6.709,5.839V50.034z"/>
	<path fill="#010101" d="M39.586,50.034c0,3.228-3.002,5.841-6.708,5.841h-1.955c-3.705,0-6.709-2.613-6.709-5.841v-5.229
		c0-3.225,3.004-5.839,6.709-5.839h1.955c3.706,0,6.708,2.614,6.708,5.839V50.034z"/>
	<path fill="#010101" d="M63.886,50.034c0,3.228-3.003,5.841-6.707,5.841h-1.957c-3.704,0-6.708-2.613-6.708-5.841v-5.229
		c0-3.225,3.004-5.839,6.708-5.839h1.957c3.704,0,6.707,2.614,6.707,5.839V50.034z"/>
	
		<rect x="16.219" y="27.118" transform="matrix(-0.7512 -0.6601 0.6601 -0.7512 8.6156 74.561)" fill="#010101" width="4.283" height="17.078"/>
	
		<rect x="29.759" y="31.28" transform="matrix(-1 0.0032 -0.0032 -1 63.9122 70.7217)" fill="#010101" width="4.282" height="8.264"/>
	
		<rect x="43.698" y="26.872" transform="matrix(-0.7221 0.6918 -0.6918 -0.7221 103.4375 29.2698)" fill="#010101" width="4.283" height="17.077"/>
</g>
</svg>
