<?xml version="1.0" encoding="utf-8"?>
<!-- Generator: Adobe Illustrator 14.0.0, SVG Export Plug-In . SVG Version: 6.00 Build 43363)  -->
<!DOCTYPE svg PUBLIC "-//W3C//DTD SVG 1.1//EN" "http://www.w3.org/Graphics/SVG/1.1/DTD/svg11.dtd">
<svg version="1.1" id="Layer_1" xmlns="http://www.w3.org/2000/svg" xmlns:xlink="http://www.w3.org/1999/xlink" x="0px" y="0px"
	 width="64px" height="64px" viewBox="0 0 64 64" enable-background="new 0 0 64 64" xml:space="preserve">
<g>
	<path fill="#010101" d="M56.202,19.207H7.736c0,0-2.411,1.571-2.411,3.764c0,2.193-2.823,33.928-2.823,33.928v5.207
		c0,0,0.411,1.828,2.823,1.828c2.411,0,53.317,0,53.317,0s2.826,0.254,2.826-1.828s0-5.207,0-5.207l-2.826-33.928
		C58.642,22.971,57.422,19.207,56.202,19.207z"/>
	<polygon fill="#FFFFFF" points="15.848,26.259 47.856,26.259 49.83,48.95 13.766,48.95 	"/>
	<path fill="#FFFFFF" d="M61.468,56.898v5.207c0,0,0.11,1.828-2.826,1.828c-2.938,0-53.317,0-53.317,0s-2.823,0.007-2.823-2.229
		c0-2.238,0-4.806,0-4.806l0.267-3.015h58.449L61.468,56.898z"/>
	<circle fill="#010101" cx="33.569" cy="60.535" r="1.168"/>
	<circle fill="#010101" cx="37.735" cy="60.535" r="1.169"/>
	<circle fill="#010101" cx="41.9" cy="60.535" r="1.169"/>
	<circle fill="#010101" cx="46.066" cy="60.535" r="1.169"/>
	<circle fill="#010101" cx="49.831" cy="60.535" r="1.169"/>
	<path fill="#010101" d="M13.555,1.946c-0.273-0.784,0.028-1.602,0.677-1.829l0,0c0.647-0.228,1.394,0.225,1.667,1.007l6.131,17.53
		c0.274,0.786-0.027,1.604-0.676,1.829l0,0c-0.646,0.228-1.393-0.225-1.668-1.008L13.555,1.946z"/>
	<path fill="#010101" d="M47.883,1.619c0.318-0.768,1.088-1.177,1.724-0.916l0,0c0.634,0.261,0.891,1.096,0.574,1.862l-7.084,17.166
		c-0.318,0.769-1.088,1.18-1.721,0.916l0,0c-0.635-0.26-0.892-1.093-0.578-1.861L47.883,1.619z"/>
	<path fill="#010101" d="M40.66,34.854c0,0-1.939-3.661-8.675-3.661s-8.676,3.661-8.676,3.661l1.94,1.757
		c0,0,3.075-2.673,6.735-2.71c3.66-0.036,6.662,2.71,6.662,2.71L40.66,34.854z"/>
	<path fill="#010101" d="M37.257,37.447c0,0-1.179-2.373-5.271-2.373c-4.092,0-5.271,2.373-5.271,2.373l1.18,1.14
		c0,0,1.868-1.733,4.092-1.757c2.224-0.024,4.047,1.757,4.047,1.757L37.257,37.447z"/>
	<path fill="#010101" d="M35.536,39.429c0,0-1.537-1.428-3.551-1.428c-2.013,0-3.587,1.428-3.587,1.428l1.135,1.135
		c0,0,0.769-0.88,2.453-0.916c1.684-0.034,2.453,0.916,2.453,0.916L35.536,39.429z"/>
	<path fill="#010101" d="M34.107,42.979c0-1.183-0.957-2.142-2.14-2.142c-1.183,0-2.142,0.959-2.142,2.142
		c0,1.186,0.959,2.143,2.142,2.143C33.15,45.121,34.107,44.164,34.107,42.979z"/>
</g>
</svg>
