<?xml version="1.0" encoding="utf-8"?>
<!-- Generator: Adobe Illustrator 14.0.0, SVG Export Plug-In . SVG Version: 6.00 Build 43363)  -->
<!DOCTYPE svg PUBLIC "-//W3C//DTD SVG 1.1//EN" "http://www.w3.org/Graphics/SVG/1.1/DTD/svg11.dtd">
<svg version="1.1" id="Layer_1" xmlns="http://www.w3.org/2000/svg" xmlns:xlink="http://www.w3.org/1999/xlink" x="0px" y="0px"
	 width="64px" height="64px" viewBox="0 0 64 64" enable-background="new 0 0 64 64" xml:space="preserve">
<g>
	
		<rect x="3.395" y="45.312" transform="matrix(-0.7144 0.6997 -0.6997 -0.7144 55.6532 83.5479)" fill="#010101" width="14.765" height="15.638"/>
	
		<rect x="3.854" y="45.779" transform="matrix(-0.7144 0.6997 -0.6997 -0.7144 55.7547 82.9947)" fill="#FFFFFF" width="14.173" height="14.193"/>
	
		<rect x="7.104" y="16.947" transform="matrix(-0.7145 0.6997 -0.6997 -0.7145 80.8996 23.213)" fill="#010101" width="57.219" height="22.335"/>
	
		<rect x="14.639" y="29.37" transform="matrix(-0.7145 0.6997 -0.6997 -0.7145 76.7135 32.0477)" fill="#FFFFFF" width="34.357" height="4.613"/>
	<path fill="#030303" d="M14.124,56.769c0.271,0.328,0.225,0.814-0.104,1.086l0,0c-0.329,0.271-0.814,0.226-1.086-0.104l-0.82-0.992
		c-0.271-0.328-0.225-0.814,0.104-1.086l0,0c0.329-0.271,0.815-0.226,1.086,0.104L14.124,56.769z"/>
	<path fill="#030303" d="M15.561,54.623c0.104,0.12,0.033,0.354-0.161,0.522l0,0c-0.192,0.166-0.434,0.206-0.539,0.085l-0.316-0.364
		c-0.104-0.12-0.032-0.354,0.16-0.521l0,0c0.194-0.169,0.435-0.207,0.539-0.087L15.561,54.623z"/>
	<path fill="#030303" d="M8.39,50.672c0.271,0.327,0.225,0.814-0.104,1.086l0,0c-0.329,0.271-0.814,0.226-1.086-0.105l-0.82-0.991
		c-0.272-0.328-0.225-0.815,0.103-1.087l0,0c0.329-0.271,0.815-0.225,1.086,0.104L8.39,50.672z"/>
	<path fill="#030303" d="M9.827,48.525c0.105,0.121,0.033,0.354-0.161,0.522l0,0c-0.192,0.168-0.434,0.207-0.539,0.086L8.811,48.77
		c-0.104-0.12-0.032-0.354,0.16-0.521l0,0c0.194-0.167,0.435-0.206,0.54-0.086L9.827,48.525z"/>
	<circle fill="#010101" cx="59.447" cy="4.719" r="2.84"/>
	<circle fill="#FFFFFF" cx="59.446" cy="4.719" r="2.478"/>
	<path fill="#010101" d="M55.285,8.649c0.546,0.606,1.476,0.661,2.075,0.121l1.243-1.118c0.6-0.541,0.643-1.471,0.096-2.077l0,0
		c-0.544-0.606-1.474-0.66-2.073-0.12l-1.243,1.118C54.783,7.113,54.739,8.044,55.285,8.649L55.285,8.649z"/>
</g>
</svg>
