<?xml version="1.0" encoding="utf-8"?>
<!-- Generator: Adobe Illustrator 14.0.0, SVG Export Plug-In . SVG Version: 6.00 Build 43363)  -->
<!DOCTYPE svg PUBLIC "-//W3C//DTD SVG 1.1//EN" "http://www.w3.org/Graphics/SVG/1.1/DTD/svg11.dtd">
<svg version="1.1" id="Layer_1" xmlns="http://www.w3.org/2000/svg" xmlns:xlink="http://www.w3.org/1999/xlink" x="0px" y="0px"
	 width="64px" height="64px" viewBox="0 0 64 64" enable-background="new 0 0 64 64" xml:space="preserve">
<ellipse stroke="#FFFFFF" stroke-width="0.25" cx="43.889" cy="11.994" rx="12.178" ry="7.291"/>
<ellipse fill="#FFFFFF" stroke="#020202" stroke-width="0.25" cx="43.821" cy="12.638" rx="11.217" ry="6.647"/>
<path fill="none" stroke="#000000" stroke-width="0.25" d="M37.944,18.3c0,0,1.976,3.715,0,4.997"/>
<line fill="none" stroke="#000000" stroke-width="0.25" x1="34.688" y1="11.279" x2="50.871" y2="11.279"/>
<line fill="none" stroke="#000000" stroke-width="0.25" x1="35.797" y1="14.003" x2="47.827" y2="14.003"/>
<path fill="#FCFCFC" stroke="#000000" stroke-width="0.25" d="M34.382,26.991c0-1.283-0.26-2.506-0.73-3.618
	c-1.411-3.335-4.713-5.676-8.563-5.676c-5.133,0-9.294,4.161-9.294,9.294c0,5.133,4.161,9.293,9.294,9.293
	C30.221,36.284,34.382,32.124,34.382,26.991z"/>
<g id="XMLID_1_">
	<g>
		<path d="M33.336,22.705c-5.693,3.879-9.85-0.995-8.248,0.768c0,0-3.846,6.877-9.294,3.519c0,0-0.247-7.206,6.847-8.967
			C29.735,16.261,33.336,22.705,33.336,22.705z"/>
	</g>
	<g>
		<path fill="none" stroke="#000000" stroke-width="0.25" d="M33.336,22.705c-5.693,3.879-9.85-0.995-8.248,0.768
			c0,0-3.846,6.877-9.294,3.519c0,0-0.247-7.206,6.847-8.967C29.735,16.261,33.336,22.705,33.336,22.705z"/>
	</g>
</g>
<g id="XMLID_2_">
	<g>
		<path d="M39.082,57.283c0,1.281-2.724,2.884-2.724,2.884H24.66l7.531-23.876c0,0,1.923-0.16,4.327,1.122
			c2.401,1.282,2.563,3.176,2.563,3.176S39.082,56.001,39.082,57.283z"/>
	</g>
	<g>
	</g>
</g>
<path d="M13.123,60.167c-3.205-1.762-2.564-4.007-2.564-4.007s-0.161-13.78,0-15.572c0.16-1.792,2.884-3.495,2.884-3.495h4.082
	l7.135,23.074"/>
<path fill="none" d="M24.66,60.167H13.123H24.66z"/>
<rect x="21.856" y="37.917" fill="none" width="5.608" height="10.309"/>
<polygon fill="#020202" points="27.759,41.572 24.66,52.155 22.417,41.365 24.941,38.214 "/>
</svg>
