<?xml version="1.0" encoding="utf-8"?>
<!-- Generator: Adobe Illustrator 14.0.0, SVG Export Plug-In . SVG Version: 6.00 Build 43363)  -->
<!DOCTYPE svg PUBLIC "-//W3C//DTD SVG 1.1//EN" "http://www.w3.org/Graphics/SVG/1.1/DTD/svg11.dtd">
<svg version="1.1" id="Layer_1" xmlns="http://www.w3.org/2000/svg" xmlns:xlink="http://www.w3.org/1999/xlink" x="0px" y="0px"
	 width="64px" height="64px" viewBox="0 0 64 64" enable-background="new 0 0 64 64" xml:space="preserve">
<g>
	<path fill="#010101" d="M9.151,59.104c0,2.677,2.39,4.848,5.339,4.848l0,0c2.949,0,5.339-2.171,5.339-4.848V40.447
		c0-2.677-2.39-4.848-5.339-4.848l0,0c-2.949,0-5.339,2.171-5.339,4.848V59.104z"/>
	<path fill="#010101" d="M17.375,39.371c0,1.713-1.319,3.102-2.946,3.102l0,0c-1.626,0-2.945-1.389-2.945-3.102V28.515
		c0-1.713,1.319-3.102,2.945-3.102l0,0c1.627,0,2.946,1.389,2.946,3.102V39.371z"/>
	<polygon fill="#010101" points="14.49,0.866 12.956,3.566 12.956,27.622 15.779,27.622 15.779,3.443 	"/>
	<rect x="16.055" y="40.386" fill="#FFFFFF" width="1.933" height="19.638"/>
	<rect x="11.146" y="40.54" fill="#FFFFFF" width="1.963" height="19.637"/>
	<circle fill="#010101" cx="40.613" cy="15.226" r="14.237"/>
	<path fill="#FFFFFF" d="M33.252,17.723c0,0-0.307,3.15,2.946,3.085c3.252-0.064,8.837,0.001,8.837,0.001s2.945,0.642,2.945-3.086
		c0-3.727,0-17.675,0-17.675H33.244L33.252,17.723z"/>
	<path fill="#010101" d="M35.622,61.007l1.113-29.293h7.794l1.156,29.293c0,0-2.046,2.943-5.073,2.944S35.622,61.007,35.622,61.007z
		"/>
	<path fill="#FFFFFF" d="M44.704,58.96c0.016,0.543-0.809,0.719-1.352,0.733l0,0c-0.541,0.015-0.993-0.412-1.009-0.955L42.047,47.86
		c-0.016-0.543,0.412-0.993,0.955-1.009l0,0c0.542-0.015,0.993,0.412,1.009,0.955L44.704,58.96z"/>
</g>
</svg>
