<?xml version="1.0" encoding="utf-8"?>
<!-- Generator: Adobe Illustrator 14.0.0, SVG Export Plug-In . SVG Version: 6.00 Build 43363)  -->
<!DOCTYPE svg PUBLIC "-//W3C//DTD SVG 1.1//EN" "http://www.w3.org/Graphics/SVG/1.1/DTD/svg11.dtd">
<svg version="1.1" id="Layer_1" xmlns="http://www.w3.org/2000/svg" xmlns:xlink="http://www.w3.org/1999/xlink" x="0px" y="0px"
	 width="64px" height="64px" viewBox="0 0 64 64" enable-background="new 0 0 64 64" xml:space="preserve">
<g>
	<rect x="4.095" y="0.029" fill="#010101" width="34.943" height="63.941"/>
	<rect x="8.827" y="4.761" fill="#FFFFFF" width="25.48" height="29.484"/>
	<rect x="13.801" y="40.918" fill="#FFFFFF" width="15.53" height="16.258"/>
	<rect x="17.805" y="44.679" fill="#010101" width="7.765" height="8.736"/>
	<rect x="30.302" y="44.679" fill="#FFFFFF" width="0.971" height="8.736"/>
	<rect x="12.043" y="44.771" fill="#FFFFFF" width="0.971" height="8.735"/>
	<rect x="38.311" y="54.628" fill="#010101" width="6.431" height="6.553"/>
	<path fill="#010101" d="M42.071,50.261c0-0.738,0.598-1.335,1.335-1.335l0,0c0.737,0,1.335,0.597,1.335,1.335v5.338
		c0,0.737-0.598,1.335-1.335,1.335l0,0c-0.737,0-1.335-0.598-1.335-1.335V50.261z"/>
	<circle fill="#010101" cx="52.991" cy="9.372" r="3.883"/>
	<circle fill="#010101" cx="56.022" cy="22.03" r="3.883"/>
	<path fill="#010101" d="M38.216,25.63c0,0,6.163,0.932,10.712-6.986c0,0,0.306-0.627,0.465-2.073
		c0.023-0.219,0.43-1.473,0.692-1.891c0.691-1.1,0.691-1.1,0.691-1.1l1.082,0.079c0,0,1.093,0.485,0.839,1.278
		c-0.216,0.675-0.189,0.573-0.558,1.473c-0.365,0.894-0.849,1.894-1.252,2.144c-1.032,0.638-1.96,2.711-1.96,2.711
		s-5.027,6.462-10.712,5.763C32.53,26.329,38.216,25.63,38.216,25.63z"/>
	<path fill="#010101" d="M53.416,28.26c0,0,1.476-4.206-1.8-1.941c0,0-3.68,6.592-6.106,6.754s-7.037-5.055-7.037-5.055v2.507
		c0,0,4.771,4.691,6.955,4.247c2.185-0.444,4.895-3.68,4.895-3.68L53.416,28.26z"/>
	<path fill="#010101" d="M43.972,50.018c0,0-1.416-7.846-6.066-7.765c-4.65,0.08,0,1.374,0,1.374s2.913-0.12,5.178,6.391H43.972z"/>
</g>
</svg>
