<?xml version="1.0" encoding="utf-8"?>
<!-- Generator: Adobe Illustrator 14.0.0, SVG Export Plug-In . SVG Version: 6.00 Build 43363)  -->
<!DOCTYPE svg PUBLIC "-//W3C//DTD SVG 1.1//EN" "http://www.w3.org/Graphics/SVG/1.1/DTD/svg11.dtd">
<svg version="1.1" id="Layer_1" xmlns="http://www.w3.org/2000/svg" xmlns:xlink="http://www.w3.org/1999/xlink" x="0px" y="0px"
	 width="64px" height="64px" viewBox="0 0 64 64" enable-background="new 0 0 64 64" xml:space="preserve">
<g>
	<rect x="3.664" y="1.409" fill="#030303" width="55.456" height="32.106"/>
	<rect x="5.731" y="3.354" fill="#FFFFFF" width="51.442" height="29.309"/>
	<polygon fill="#010101" points="63.255,57.959 0.016,57.959 3.664,35.582 59.12,35.582 	"/>
	<rect x="0.016" y="59.976" fill="#010101" width="63.969" height="2.615"/>
	<polygon fill="#FFFFFF" points="36.926,50.966 5.063,50.966 7.738,38.562 34.979,38.562 	"/>
	<rect x="6.583" y="41.303" fill="#010101" width="29.567" height="1.051"/>
	<rect x="5.731" y="44.297" fill="#010101" width="31.194" height="0.938"/>
	<rect x="5.184" y="48.164" fill="#010101" width="31.593" height="0.978"/>
	<polygon fill="#010101" points="9.471,50.966 7.738,50.966 9.915,38.562 11.204,38.562 	"/>
	<polygon fill="#010101" points="12.815,50.966 11.569,50.966 13.271,38.562 14.488,38.562 	"/>
	<polygon fill="#010101" points="16.43,49.142 16.43,50.966 15.157,50.966 16.434,38.562 17.376,38.562 	"/>
	<path fill="#010101" d="M16.43,49.142"/>
	<polygon fill="#010101" points="19.748,48.164 18.41,48.164 19.383,38.562 20.295,38.562 	"/>
	<rect x="22.301" y="38.562" fill="#010101" width="0.973" height="9.82"/>
	<polygon fill="#010101" points="33.946,50.966 32.517,50.966 32.03,38.562 32.973,38.562 	"/>
	<rect x="29.112" y="38.562" fill="#010101" width="0.912" height="12.404"/>
	<rect x="25.22" y="38.562" fill="#010101" width="1.854" height="12.404"/>
	<polygon fill="#FDFEFF" points="59.12,51.271 49.573,51.271 47.627,38.562 56.384,38.562 	"/>
	<rect x="45.256" y="41.303" fill="#010101" width="12.344" height="1.051"/>
	<rect x="46.046" y="44.24" fill="#010101" width="12.345" height="1.051"/>
	<rect x="46.776" y="48.128" fill="#010101" width="12.344" height="1.051"/>
	<polygon fill="#010101" points="56.931,53.581 55.897,53.581 52.492,37.041 53.374,37.041 	"/>
	<polygon fill="#010101" points="53.374,53.035 52.34,53.035 48.935,36.496 49.816,36.496 	"/>
	<polygon fill="#FDFEFF" points="44.243,48.179 41.446,48.179 41.688,46.288 43.675,46.254 	"/>
	<polygon fill="#FDFEFF" points="41.08,51.271 38.283,51.271 38.688,49.146 40.635,49.169 	"/>
	<polygon fill="#FDFEFF" points="44.243,51.271 41.446,51.271 41.81,49.142 43.959,49.169 	"/>
	<polygon fill="#FDFEFF" points="47.627,51.271 44.83,51.271 45.054,49.142 46.776,49.169 	"/>
</g>
</svg>
