<?xml version="1.0" encoding="utf-8"?>
<!-- Generator: Adobe Illustrator 14.0.0, SVG Export Plug-In . SVG Version: 6.00 Build 43363)  -->
<!DOCTYPE svg PUBLIC "-//W3C//DTD SVG 1.1//EN" "http://www.w3.org/Graphics/SVG/1.1/DTD/svg11.dtd">
<svg version="1.1" id="Layer_1" xmlns="http://www.w3.org/2000/svg" xmlns:xlink="http://www.w3.org/1999/xlink" x="0px" y="0px"
	 width="64px" height="64px" viewBox="0 0 64 64" enable-background="new 0 0 64 64" xml:space="preserve">
<path d="M20.608,27.319c0,0.585,0.474,1.06,1.06,1.06l0,0c0.585,0,1.06-0.474,1.06-1.06v-5.122c0-0.585-0.475-1.06-1.06-1.06l0,0
	c-0.585,0-1.06,0.475-1.06,1.06V27.319z"/>
<path d="M40.92,27.319c0,0.585,0.474,1.06,1.06,1.06l0,0c0.585,0,1.06-0.474,1.06-1.06v-5.122c0-0.585-0.475-1.06-1.06-1.06l0,0
	c-0.586,0-1.06,0.475-1.06,1.06V27.319z"/>
<path d="M46.203,25.995c0.643,0,1.164-0.712,1.164-1.589l0,0c0-0.878-0.521-1.589-1.164-1.589h-5.622
	c-0.643,0-1.163,0.711-1.163,1.589l0,0c0,0.877,0.521,1.589,1.163,1.589H46.203z"/>
<path d="M23.418,25.995c0.643,0,1.164-0.712,1.164-1.589l0,0c0-0.878-0.521-1.589-1.164-1.589h-5.622
	c-0.642,0-1.162,0.711-1.162,1.589l0,0c0,0.877,0.52,1.589,1.162,1.589H23.418z"/>
<rect x="22.198" y="11.776" width="19.251" height="27.73"/>
<ellipse cx="32.089" cy="11.776" rx="9.538" ry="9.096"/>
<ellipse cx="31.735" cy="38.447" rx="9.537" ry="9.096"/>
<rect x="44.055" y="25.995" width="1.898" height="14.307"/>
<rect x="18.268" y="25.995" width="1.898" height="14.307"/>
<path d="M44.055,40.036c0,0-2.075,9.793-11.967,9.793c-9.89,0-11.922-9.513-11.922-9.513h-1.898c0,0,0.309,11.283,13.82,11.377
	c13.513,0.093,13.865-11.377,13.865-11.377L44.055,40.036z"/>
<rect x="30.94" y="51.251" width="2.473" height="6.978"/>
<path d="M44.055,61.32H20.166c0,0,0.177-3.444,2.562-4.063c2.384-0.618,18.722,0,18.722,0S43.304,56.991,44.055,61.32z"/>
<ellipse fill="#F9F9FA" cx="27.496" cy="9.127" rx="0.868" ry="0.802"/>
<ellipse fill="#F9F9FA" cx="30.455" cy="9.127" rx="0.869" ry="0.802"/>
<ellipse fill="#F9F9FA" cx="26.51" cy="11.776" rx="0.869" ry="0.802"/>
<ellipse fill="#F9F9FA" cx="29.425" cy="11.776" rx="0.868" ry="0.802"/>
<ellipse fill="#F9F9FA" cx="29.233" cy="7.096" rx="0.869" ry="0.802"/>
<ellipse fill="#F9F9FA" cx="33.398" cy="9.127" rx="0.869" ry="0.802"/>
<ellipse fill="#F9F9FA" cx="32.03" cy="11.776" rx="0.869" ry="0.802"/>
<ellipse fill="#F9F9FA" cx="32" cy="7.096" rx="0.868" ry="0.802"/>
<ellipse fill="#F9F9FA" cx="34.84" cy="7.096" rx="0.869" ry="0.802"/>
<ellipse fill="#F9F9FA" cx="36.401" cy="9.127" rx="0.869" ry="0.802"/>
<ellipse fill="#F9F9FA" cx="34.93" cy="11.776" rx="0.869" ry="0.802"/>
<ellipse fill="#F9F9FA" cx="37.52" cy="11.776" rx="0.869" ry="0.802"/>
<ellipse fill="#F9F9FA" cx="25.112" cy="14.514" rx="0.868" ry="0.802"/>
<ellipse fill="#F9F9FA" cx="27.747" cy="14.514" rx="0.868" ry="0.802"/>
<ellipse fill="#F9F9FA" cx="30.308" cy="14.514" rx="0.869" ry="0.802"/>
<ellipse fill="#F9F9FA" cx="32.914" cy="14.514" rx="0.869" ry="0.802"/>
<ellipse fill="#F9F9FA" cx="35.813" cy="14.514" rx="0.869" ry="0.802"/>
<ellipse fill="#F9F9FA" cx="38.403" cy="14.514" rx="0.868" ry="0.802"/>
<ellipse fill="#F9F9FA" cx="26.694" cy="16.892" rx="0.868" ry="0.802"/>
<ellipse fill="#F9F9FA" cx="29.329" cy="16.892" rx="0.868" ry="0.802"/>
<ellipse fill="#F9F9FA" cx="31.89" cy="16.892" rx="0.869" ry="0.802"/>
<ellipse fill="#F9F9FA" cx="34.495" cy="16.892" rx="0.868" ry="0.802"/>
<ellipse fill="#F9F9FA" cx="37.395" cy="16.892" rx="0.869" ry="0.802"/>
</svg>
