<?xml version="1.0" encoding="utf-8"?>
<!-- Generator: Adobe Illustrator 14.0.0, SVG Export Plug-In . SVG Version: 6.00 Build 43363)  -->
<!DOCTYPE svg PUBLIC "-//W3C//DTD SVG 1.1//EN" "http://www.w3.org/Graphics/SVG/1.1/DTD/svg11.dtd">
<svg version="1.1" id="Layer_1" xmlns="http://www.w3.org/2000/svg" xmlns:xlink="http://www.w3.org/1999/xlink" x="0px" y="0px"
	 width="64px" height="64px" viewBox="0 0 64 64" enable-background="new 0 0 64 64" xml:space="preserve">
<line fill="none" stroke="#000000" stroke-width="2" x1="43.088" y1="8.015" x2="43.088" y2="21.577"/>
<line fill="none" stroke="#000000" stroke-width="2" x1="50.245" y1="14.984" x2="35.931" y2="14.984"/>
<circle fill="none" stroke="#000000" stroke-width="2" cx="43.088" cy="14.984" r="11.866"/>
<circle fill="none" stroke="#FFFFFF" stroke-width="2" cx="26.324" cy="19.358" r="13.373"/>
<path d="M38.567,19.358c0-6.762-5.481-12.243-12.243-12.243s-12.243,5.481-12.243,12.243c0,3.224,1.247,6.157,3.284,8.343
	c2.235,2.399,5.422,3.9,8.959,3.9C33.086,31.601,38.567,26.12,38.567,19.358z"/>
<path d="M26.324,63.015c0,0,16.952,0.035,18.083-15.257c0,0-1.132-7.579-2.826-11.112c-2.449-5.109-2.449-5.109-6.216-9.053
	c0,0-7.937,7.365-18,0.109c0,0-7.239,6.685-8.181,16.667C8.242,54.351,12.386,61.884,26.324,63.015z"/>
</svg>
