<?xml version="1.0" encoding="utf-8"?>
<!-- Generator: Adobe Illustrator 14.0.0, SVG Export Plug-In . SVG Version: 6.00 Build 43363)  -->
<!DOCTYPE svg PUBLIC "-//W3C//DTD SVG 1.1//EN" "http://www.w3.org/Graphics/SVG/1.1/DTD/svg11.dtd">
<svg version="1.1" id="Layer_1" xmlns="http://www.w3.org/2000/svg" xmlns:xlink="http://www.w3.org/1999/xlink" x="0px" y="0px"
	 width="64px" height="64px" viewBox="0 0 64 64" enable-background="new 0 0 64 64" xml:space="preserve">
<path d="M35.783,28.665c0-4.794-4.625-8.682-10.33-8.682h-10.34c-5.705,0-10.329,3.887-10.329,8.682v8.691
	c0,4.794,4.625,8.681,10.329,8.681h10.34c5.705,0,10.33-3.887,10.33-8.681V28.665z"/>
<path fill="#F9F9F9" d="M33.398,29.334c0-4.057-3.914-7.346-8.74-7.346h-8.75c-4.827,0-8.74,3.289-8.74,7.346v7.354
	c0,4.057,3.913,7.347,8.74,7.347h8.75c4.827,0,8.74-3.29,8.74-7.347V29.334z"/>
<path d="M15.586,46.037c0,0,0.164,5.247-0.801,6.146c-0.595,0.555,5.499-6.146,5.499-6.146"/>
<path fill="#FFFFFF" d="M16.07,42.932c0,0,1.016,5.279,0.051,6.179c-0.595,0.555,4.163-6.179,4.163-6.179"/>
<path d="M20.655,19.371c0-5.859,5.84-10.61,13.044-10.61h13.06c7.204,0,13.044,4.751,13.044,10.61v10.622
	c0,5.86-5.84,10.61-13.044,10.61h-13.06c-7.204,0-13.044-4.75-13.044-10.61V19.371z"/>
<path fill="#F9F9F9" d="M23.667,20.188c0-4.958,4.942-8.978,11.038-8.978h11.05c6.097,0,11.038,4.02,11.038,8.978v8.987
	c0,4.958-4.941,8.978-11.038,8.978h-11.05c-6.096,0-11.038-4.021-11.038-8.978V20.188z"/>
<path d="M46.162,40.603c0,0-0.207,6.412,1.011,7.511c0.752,0.679-6.943-7.511-6.943-7.511"/>
<path fill="#FFFFFF" d="M45.551,36.807c0,0-1.282,6.452-0.065,7.551c0.753,0.678-5.256-7.551-5.256-7.551"/>
</svg>
