<?xml version="1.0" encoding="utf-8"?>
<!-- Generator: Adobe Illustrator 14.0.0, SVG Export Plug-In . SVG Version: 6.00 Build 43363)  -->
<!DOCTYPE svg PUBLIC "-//W3C//DTD SVG 1.1//EN" "http://www.w3.org/Graphics/SVG/1.1/DTD/svg11.dtd">
<svg version="1.1" id="Layer_1" xmlns="http://www.w3.org/2000/svg" xmlns:xlink="http://www.w3.org/1999/xlink" x="0px" y="0px"
	 width="64px" height="64px" viewBox="0 0 64 64" enable-background="new 0 0 64 64" xml:space="preserve">
<circle cx="31.667" cy="14.167" r="4.333"/>
<path fill="none" stroke="#000000" stroke-width="2" stroke-linecap="round" d="M19.5,5.333c0,0-6.5,7.333,0,17.833"/>
<path fill="none" stroke="#000000" stroke-width="2" stroke-linecap="round" d="M23.545,7.421c0,0-4.917,5.548,0,13.491"/>
<path fill="none" stroke="#000000" stroke-width="2" stroke-linecap="round" d="M43.815,23.083c0,0,6.5-7.333,0-17.833"/>
<path fill="none" stroke="#000000" stroke-width="2" stroke-linecap="round" d="M39.771,20.995c0,0,4.918-5.548,0-13.491"/>
<line fill="#020202" stroke="#070808" stroke-width="0.25" stroke-linecap="round" x1="30.167" y1="20.167" x2="33" y2="20.167"/>
<line fill="#020202" stroke="#070808" stroke-width="0.25" stroke-linecap="round" x1="33" y1="20.167" x2="47.5" y2="56"/>
<line fill="#020202" x1="47.5" y1="56" x2="45.26" y2="57.167"/>
<line fill="#020202" stroke="#070808" stroke-width="0.25" stroke-linecap="round" x1="44.5" y1="57.167" x2="33" y2="24.167"/>
<line fill="#020202" stroke="#070808" stroke-width="0.25" stroke-linecap="round" x1="33" y1="24.167" x2="33" y2="20.167"/>
<line fill="#020202" stroke="#070808" stroke-width="0.25" stroke-linecap="round" x1="33" y1="24.167" x2="34" y2="58.333"/>
<line fill="#020202" stroke="#070808" stroke-width="0.25" stroke-linecap="round" x1="34" y1="58.333" x2="31.667" y2="59.667"/>
<line fill="#020202" stroke="#070808" stroke-width="0.25" stroke-linecap="round" x1="31.667" y1="59.667" x2="29.667" y2="58.333"/>
<line fill="#020202" stroke="#070808" stroke-width="0.25" stroke-linecap="round" x1="29.667" y1="58.333" x2="30.167" y2="20.167"/>
<line fill="#020202" stroke="#070808" stroke-width="0.25" stroke-linecap="round" x1="47.5" y1="56" x2="44.5" y2="57.167"/>
<line fill="#020202" stroke="#070808" stroke-width="0.25" stroke-linecap="round" x1="30.167" y1="20.167" x2="15.833" y2="56"/>
<line fill="#020202" stroke="#070808" stroke-width="0.25" stroke-linecap="round" x1="15.833" y1="56" x2="18.056" y2="57.167"/>
<line fill="#020202" stroke="#070808" stroke-width="0.25" stroke-linecap="round" x1="18.056" y1="57.167" x2="30.106" y2="24.776"/>
<line fill="#020202" stroke="#070808" stroke-width="0.25" stroke-linecap="round" x1="26.803" y1="33.655" x2="36.295" y2="33.655"/>
<line fill="#020202" stroke="#070808" stroke-width="0.25" stroke-linecap="round" x1="37.123" y1="36" x2="25.931" y2="36"/>
<line fill="#020202" stroke="#070808" stroke-width="0.25" stroke-linecap="round" x1="38.75" y1="40.667" x2="24.194" y2="40.667"/>
<line fill="#020202" stroke="#070808" stroke-width="0.25" stroke-linecap="round" x1="39.538" y1="42.929" x2="33.57" y2="43.67"/>
<line fill="#020202" stroke="#070808" stroke-width="0.25" stroke-linecap="round" x1="29.667" y1="43.67" x2="23.545" y2="42.929"/>
<line fill="#020202" stroke="#070808" stroke-width="0.25" stroke-linecap="round" x1="21.838" y1="47.002" x2="29.667" y2="48.167"/>
<line fill="#020202" stroke="#070808" stroke-width="0.25" stroke-linecap="round" x1="33.703" y1="48.167" x2="40.958" y2="47.002"/>
<line fill="#020202" stroke="#070808" stroke-width="0.25" stroke-linecap="round" x1="41.741" y1="49.249" x2="33.775" y2="50.669"/>
<line fill="#020202" stroke="#070808" stroke-width="0.25" stroke-linecap="round" x1="21.001" y1="49.249" x2="29.768" y2="50.669"/>
<line fill="none" stroke="#070808" stroke-width="0.25" x1="30.167" y1="20.167" x2="30.106" y2="24.776"/>
<polygon fill="#020202" stroke="#070808" stroke-width="0.25" stroke-linecap="round" points="29.667,58.333 31.667,59.667 
	34,58.333 33,20.167 30.167,20.167 "/>
<polygon fill="#020202" stroke="#070808" stroke-width="0.25" stroke-linecap="round" points="15.833,56 18.056,57.167 
	30.106,24.776 30.167,20.167 "/>
<polygon fill="#020202" stroke="#070808" stroke-width="0.25" stroke-linecap="round" points="47.5,56 44.5,57.167 33,24.167 
	33,20.167 "/>
<polygon fill="#020202" stroke="#070808" stroke-width="0.25" stroke-linecap="round" points="37.123,36 25.931,36 26.803,33.655 
	36.125,33.655 "/>
<polygon fill="#020202" stroke="#070808" stroke-width="0.25" stroke-linecap="round" points="39.538,42.929 33.57,43.67 
	29.667,43.67 23.545,42.929 24.194,40.667 38.54,40.584 "/>
<polygon fill="#020202" stroke="#070808" stroke-width="0.25" stroke-linecap="round" points="21.001,49.249 29.768,50.669 
	33.775,50.669 41.741,49.249 40.958,47.002 33.703,48.167 29.667,48.167 21.838,47.002 "/>
</svg>
