<?xml version="1.0" encoding="utf-8"?>
<!-- Generator: Adobe Illustrator 14.0.0, SVG Export Plug-In . SVG Version: 6.00 Build 43363)  -->
<!DOCTYPE svg PUBLIC "-//W3C//DTD SVG 1.1//EN" "http://www.w3.org/Graphics/SVG/1.1/DTD/svg11.dtd">
<svg version="1.1" id="Layer_1" xmlns="http://www.w3.org/2000/svg" xmlns:xlink="http://www.w3.org/1999/xlink" x="0px" y="0px"
	 width="64px" height="64px" viewBox="0 0 64 64" enable-background="new 0 0 64 64" xml:space="preserve">
<circle cx="41.087" cy="18.023" r="13.861"/>
<path d="M3.836,19.292c0,0,5.443,3.326,11.43,1.512c5.987-1.815,11.974-4.234,11.974-4.234s0.134,8.206,4.543,10.989
	c4.412,2.783,6.848,3.29,12.583,2.804c5.734-0.486,9.816-9.862,8.999-18.027c-0.816-8.166,5.988,11.19,0,21.472
	C47.38,44.09,38.67,46.51,38.67,46.51s-13.607,3.621-22.315,1.66c0,0,4.082-3.172,5.17-6.196
	C22.614,38.949,14.994,48.021,3.836,19.292z"/>
<polygon points="49.877,8.379 55.237,6.184 52.557,10.515 "/>
<polygon points="54.762,13.691 58.413,10.377 51.68,10.377 "/>
<polygon points="29.991,47.567 31.847,46.958 37.911,61.338 31.558,50.596 29.826,61.338 "/>
<circle fill="#FFFFFF" cx="43.975" cy="12.11" r="2.887"/>
<circle cx="43.975" cy="12.11" r="1.733"/>
</svg>
