<?xml version="1.0" encoding="utf-8"?>
<!-- Generator: Adobe Illustrator 14.0.0, SVG Export Plug-In . SVG Version: 6.00 Build 43363)  -->
<!DOCTYPE svg PUBLIC "-//W3C//DTD SVG 1.1//EN" "http://www.w3.org/Graphics/SVG/1.1/DTD/svg11.dtd">
<svg version="1.1" id="Layer_1" xmlns="http://www.w3.org/2000/svg" xmlns:xlink="http://www.w3.org/1999/xlink" x="0px" y="0px"
	 width="64px" height="64px" viewBox="0 0 64 64" enable-background="new 0 0 64 64" xml:space="preserve">
<path d="M12.637,2.816h41.966c0,0,2.557,1.356,2.557,3.166c0,1.809,0,52.758,0,52.758s-0.902,1.657-3.158,1.809
	c-2.257,0.15-41.365,0-41.365,0s-2.256-0.754-2.708-2.563c-0.451-1.809,0-8.291,0-8.291h3.008v6.181c0,0,0.602,1.959,2.106,1.809
	c1.504-0.15,4.813,0,4.813,0V5.68h-4.813c0,0-2.106,0.754-2.106,2.261s0,6.029,0,6.029H9.729v-8.14
	C9.729,5.831,9.779,2.816,12.637,2.816z"/>
<path fill="none" stroke="#000000" d="M12.995,20.753"/>
<rect x="9.628" y="20.753" width="3.366" height="7.838"/>
<rect x="9.629" y="34.621" width="3.366" height="7.838"/>
<path d="M14.803,17.529c0-1.283-0.303-2.321-0.676-2.321H7.642c-0.374,0-0.677,1.038-0.677,2.321l0,0c0,1.282,0.303,2.32,0.677,2.32
	h6.485C14.5,19.849,14.803,18.812,14.803,17.529L14.803,17.529z"/>
<path d="M14.803,31.715c0-1.284-0.303-2.32-0.676-2.32H7.641c-0.374,0-0.676,1.037-0.676,2.32l0,0c0,1.283,0.303,2.32,0.676,2.32
	h6.486C14.5,34.035,14.803,32.998,14.803,31.715L14.803,31.715z"/>
<path d="M14.803,45.884c0-1.283-0.303-2.319-0.676-2.319H7.641c-0.374,0-0.676,1.036-0.676,2.319l0,0c0,1.284,0.303,2.32,0.676,2.32
	h6.486C14.5,48.204,14.803,47.168,14.803,45.884L14.803,45.884z"/>
<path fill="#FFFFFF" d="M48.568,38.54c0-3.912-1.962-9.219-5.125-11.041c-1.548-0.892-3.512,0.49-5.427,0.49
	c-2.148,0-2.905-1.103-4.571,0c-2.856,1.888-5.98,6.873-5.98,10.551c0,5.827,4.724,10.552,10.552,10.552
	C43.844,49.092,48.568,44.367,48.568,38.54z"/>
<circle fill="#FCFCFC" cx="38.017" cy="23.165" r="7.235"/>
</svg>
