<?xml version="1.0" encoding="utf-8"?>
<!-- Generator: Adobe Illustrator 14.0.0, SVG Export Plug-In . SVG Version: 6.00 Build 43363)  -->
<!DOCTYPE svg PUBLIC "-//W3C//DTD SVG 1.1//EN" "http://www.w3.org/Graphics/SVG/1.1/DTD/svg11.dtd">
<svg version="1.1" id="Layer_1" xmlns="http://www.w3.org/2000/svg" xmlns:xlink="http://www.w3.org/1999/xlink" x="0px" y="0px"
	 width="64px" height="64px" viewBox="0 0 64 64" enable-background="new 0 0 64 64" xml:space="preserve">
<path d="M52.058,41.361c0-3.439-1.589-8.104-4.15-9.706c-1.254-0.784-2.845,0.431-4.397,0.431c-1.74,0-2.354-0.97-3.704,0
	c-2.313,1.659-4.843,6.042-4.843,9.275c0,5.121,3.827,9.274,8.547,9.274C48.231,50.636,52.058,46.482,52.058,41.361z"/>
<ellipse cx="43.664" cy="27.161" rx="5.943" ry="6.513"/>
<path d="M26.651,41.453c0-3.438-1.588-8.104-4.15-9.705c-1.254-0.784-2.845,0.431-4.397,0.431c-1.74,0-2.354-0.97-3.704,0
	c-2.312,1.659-4.843,6.041-4.843,9.274c0,5.122,3.827,9.274,8.547,9.274C22.825,50.728,26.651,46.575,26.651,41.453z"/>
<ellipse cx="18.259" cy="27.253" rx="5.944" ry="6.513"/>
<path fill="#FFFFFF" d="M42.642,48.397c0-4.604-2.161-10.854-5.646-12.999c-1.707-1.05-3.872,0.577-5.983,0.577
	c-2.368,0-3.202-1.3-5.039,0c-3.147,2.223-6.591,8.091-6.591,12.422c0,6.859,5.207,12.422,11.63,12.422S42.642,55.257,42.642,48.397
	z"/>
<circle fill="#FCFCFC" cx="31.118" cy="30.575" r="8.541"/>
<path d="M41.397,47.693c0-4.068-1.926-9.59-5.029-11.485c-1.52-0.928-3.447,0.51-5.328,0.51c-2.109,0-2.852-1.147-4.488,0
	c-2.802,1.964-5.869,7.149-5.869,10.976c0,6.062,4.637,10.977,10.357,10.977C36.761,58.67,41.397,53.755,41.397,47.693z"/>
<ellipse cx="31.227" cy="30.888" rx="7.202" ry="7.708"/>
<ellipse cx="40.781" cy="10.568" rx="13.463" ry="7.22"/>
<path d="M33.833,15.942c0,0,1.775,3.119,0.543,5.32c-1.233,2.201,3.112-3.909,4.053-4.234C39.37,16.702,33.833,15.942,33.833,15.942
	z"/>
</svg>
