<?xml version="1.0" encoding="utf-8"?>
<!-- Generator: Adobe Illustrator 14.0.0, SVG Export Plug-In . SVG Version: 6.00 Build 43363)  -->
<!DOCTYPE svg PUBLIC "-//W3C//DTD SVG 1.1//EN" "http://www.w3.org/Graphics/SVG/1.1/DTD/svg11.dtd">
<svg version="1.1" id="Layer_1" xmlns="http://www.w3.org/2000/svg" xmlns:xlink="http://www.w3.org/1999/xlink" x="0px" y="0px"
	 width="64px" height="64px" viewBox="0 0 64 64" enable-background="new 0 0 64 64" xml:space="preserve">
<path fill="none" stroke="#000000" stroke-width="3" d="M29.356,31.196c0,3.735-2.721,6.765-6.078,6.765H9.328
	c-3.356,0-6.078-3.029-6.078-6.765l0,0c0-3.734,2.721-6.764,6.078-6.764h13.951C26.635,24.432,29.356,27.462,29.356,31.196
	L29.356,31.196z"/>
<path fill="none" stroke="#000000" stroke-width="3" d="M61.838,38.11c-1.344,3.486-4.974,5.334-8.105,4.127l-13.018-5.016
	c-3.133-1.206-4.582-5.012-3.239-8.498l0,0c1.343-3.485,4.971-5.333,8.104-4.125l13.018,5.015
	C61.729,30.819,63.179,34.626,61.838,38.11L61.838,38.11z"/>
<path fill="#FFFFFF" d="M46.162,31.143c0,1.722-1.215,3.119-2.713,3.119H22.451c-1.498,0-2.712-1.397-2.712-3.119l0,0
	c0-1.719,1.214-3.116,2.712-3.116h20.999C44.947,28.026,46.162,29.424,46.162,31.143L46.162,31.143z"/>
<path d="M45.421,31.143c0,1.256-1.151,2.274-2.571,2.274H22.943c-1.42,0-2.571-1.018-2.571-2.274l0,0
	c0-1.253,1.151-2.271,2.571-2.271H42.85C44.27,28.871,45.421,29.889,45.421,31.143L45.421,31.143z"/>
</svg>
