<?xml version="1.0" encoding="utf-8"?>
<!-- Generator: Adobe Illustrator 14.0.0, SVG Export Plug-In . SVG Version: 6.00 Build 43363)  -->
<!DOCTYPE svg PUBLIC "-//W3C//DTD SVG 1.1//EN" "http://www.w3.org/Graphics/SVG/1.1/DTD/svg11.dtd">
<svg version="1.1" id="Layer_1" xmlns="http://www.w3.org/2000/svg" xmlns:xlink="http://www.w3.org/1999/xlink" x="0px" y="0px"
	 width="64px" height="64px" viewBox="0 0 64 64" enable-background="new 0 0 64 64" xml:space="preserve">
<path d="M7.835,11.589l5.329,4.057l5.02-4.057l5.054,4.057l4.642-4.057l5.398,4.057l4.538-4.057l5.089,4.057l5.467-4.057
	l4.745,4.057l5.741-4.057c0,0,2.819,0.516,3.129,2.991s0,38.372,0,38.372s-0.791,2.922-2.338,3.197s-52.537,0-52.537,0
	s-1.616-0.447-2.304-2.579c-0.688-2.131,0-38.921,0-38.921S4.809,11.727,7.835,11.589z"/>
<path fill="#FFFFFF" d="M8.488,12.586c0,0-2.098,0.653-2.338,2.579c-0.241,1.926,0,37.34,0,37.34s0.103,2.063,2.338,2.476
	c2.235,0.412,49.752,0,49.752,0s2.166-0.413,2.166-2.957s0-36.342,0-36.342s-0.481-2.579-2.235-3.095l-5.845,4.161l-4.607-4.161
	l-5.055,4.092l-4.882-4.092l-4.504,4.092l-5.124-3.954l-4.813,3.919l-4.401-3.679l-4.985,3.816L8.488,12.586z"/>
<line fill="none" stroke="#000000" x1="56.762" y1="48.035" x2="26.229" y2="48.035"/>
<line fill="none" stroke="#000000" x1="21.829" y1="30.156" x2="8.625" y2="30.156"/>
<line fill="none" stroke="#000000" x1="21.829" y1="32.219" x2="8.625" y2="32.219"/>
<line fill="none" stroke="#000000" x1="21.829" y1="34.832" x2="8.625" y2="34.832"/>
<line fill="none" stroke="#000000" x1="21.829" y1="37.445" x2="8.625" y2="37.445"/>
<line fill="none" stroke="#000000" x1="21.829" y1="41.983" x2="8.625" y2="41.983"/>
<line fill="none" stroke="#000000" x1="21.829" y1="44.047" x2="8.625" y2="44.047"/>
<line fill="none" stroke="#000000" x1="21.829" y1="46.66" x2="8.625" y2="46.66"/>
<line fill="none" stroke="#000000" x1="21.829" y1="49.272" x2="8.625" y2="49.272"/>
<line fill="none" stroke="#000000" x1="49.609" y1="27.268" x2="17.152" y2="27.268"/>
<text transform="matrix(1 0 0 1 15.8945 25.7104)"><tspan x="0" y="0" font-family="'ACaslonPro-Semibold'" font-size="10.6918">N</tspan><tspan x="8.639" y="0" font-family="'ACaslonPro-Semibold'" font-size="10.6918">E</tspan><tspan x="15.974" y="0" font-family="'ACaslonPro-Semibold'" font-size="10.6918">W</tspan><tspan x="27.264" y="0" font-family="'ACaslonPro-Semibold'" font-size="10.6918">S</tspan></text>
<polyline fill="none" stroke="#000000" stroke-width="0.5" stroke-linecap="round" points="56.762,39.371 52.498,45.01 
	49.609,42.946 48.51,46.66 46.034,30.156 41.495,41.983 39.57,40.059 36.819,41.983 35.582,35.795 31.456,44.047 29.393,41.158 
	27.055,45.697 "/>
</svg>
