<?xml version="1.0" encoding="utf-8"?>
<!-- Generator: Adobe Illustrator 14.0.0, SVG Export Plug-In . SVG Version: 6.00 Build 43363)  -->
<!DOCTYPE svg PUBLIC "-//W3C//DTD SVG 1.1//EN" "http://www.w3.org/Graphics/SVG/1.1/DTD/svg11.dtd">
<svg version="1.1" id="Layer_1" xmlns="http://www.w3.org/2000/svg" xmlns:xlink="http://www.w3.org/1999/xlink" x="0px" y="0px"
	 width="64px" height="64px" viewBox="0 0 64 64" enable-background="new 0 0 64 64" xml:space="preserve">
<path fill="none" stroke="#030303" stroke-linecap="round" d="M46.75,34.667c-2.681,3.82-4.499,10.712-5.107,13.265
	c-0.148,0.621-0.226,0.985-0.226,0.985l0.083,0.75l-0.583,1l-0.417,0.25l-0.51,5.845l-0.323,0.071L38.25,57l-0.167,1.083l-1-0.083
	L37,59.333h-0.583h-6.75h-1.334l0.167-0.916h-1.25v-0.75l-1.333-1.084v-5.25l-0.5-0.666l-0.167-1.834c0,0-3.374-10.52-6.417-13.833
	l-0.916-4.75c0,0,0.749-14.25,14.916-15.25c0,0,14.25,0.333,14.917,15.25L46.75,34.667z"/>
<line fill="none" stroke="#030303" stroke-linecap="round" x1="41.643" y1="47.932" x2="24.882" y2="47.932"/>
<line fill="none" stroke="#030303" stroke-linecap="round" x1="14.583" y1="40.5" x2="11.917" y2="42.25"/>
<line fill="none" stroke="#030303" stroke-linecap="round" x1="11.917" y1="30.083" x2="8.417" y2="30.083"/>
<line fill="none" stroke="#030303" stroke-linecap="round" x1="14.583" y1="19.667" x2="11.917" y2="17.917"/>
<line fill="none" stroke="#030303" stroke-linecap="round" x1="22.417" y1="12.25" x2="20.167" y2="8.917"/>
<line fill="none" stroke="#030303" stroke-linecap="round" x1="32.834" y1="8.917" x2="32.834" y2="5.833"/>
<line fill="none" stroke="#030303" stroke-linecap="round" x1="45.417" y1="8.917" x2="43.417" y2="11.833"/>
<line fill="none" stroke="#030303" stroke-linecap="round" x1="53.75" y1="17.917" x2="51.333" y2="19.667"/>
<line fill="none" stroke="#030303" stroke-linecap="round" x1="57.083" y1="30.083" x2="53.75" y2="30.083"/>
<line fill="none" stroke="#030303" stroke-linecap="round" x1="53.75" y1="42.667" x2="51.333" y2="40.5"/>
<line fill="none" stroke="#030303" stroke-linecap="round" x1="41.417" y1="48.917" x2="25.295" y2="48.917"/>
<line fill="none" stroke="#030303" stroke-linecap="round" x1="40.917" y1="49.667" x2="25.358" y2="49.667"/>
<line fill="none" stroke="#030303" stroke-linecap="round" x1="25.417" y1="50.667" x2="40.917" y2="50.667"/>
<line fill="none" stroke="#030303" stroke-linecap="round" x1="39.5" y1="50.667" x2="39.5" y2="56.417"/>
<line fill="none" stroke="#030303" stroke-linecap="round" x1="38.583" y1="50.667" x2="38.583" y2="57"/>
<line fill="none" stroke="#030303" stroke-linecap="round" x1="26.917" y1="50.667" x2="26.917" y2="57.241"/>
<line fill="none" stroke="#030303" stroke-linecap="round" x1="27.917" y1="50.667" x2="27.917" y2="58.417"/>
<line fill="none" stroke="#030303" stroke-linecap="round" x1="28.833" y1="50.667" x2="28.833" y2="59.333"/>
<line fill="none" stroke="#030303" stroke-linecap="round" x1="29.833" y1="50.667" x2="29.833" y2="59.333"/>
<line fill="none" stroke="#030303" stroke-linecap="round" x1="30.833" y1="50.667" x2="30.833" y2="59.333"/>
<line fill="none" stroke="#030303" stroke-linecap="round" x1="31.833" y1="50.667" x2="31.833" y2="59.333"/>
<line fill="none" stroke="#030303" stroke-linecap="round" x1="32.834" y1="50.667" x2="32.834" y2="59.333"/>
<line fill="none" stroke="#030303" stroke-linecap="round" x1="33.833" y1="50.667" x2="33.833" y2="59.333"/>
<line fill="none" stroke="#030303" stroke-linecap="round" x1="34.833" y1="50.667" x2="34.833" y2="59.333"/>
<line fill="none" stroke="#030303" stroke-linecap="round" x1="35.833" y1="50.667" x2="35.833" y2="59.333"/>
<line fill="none" stroke="#030303" stroke-linecap="round" x1="36.667" y1="50.667" x2="36.667" y2="58.917"/>
<line fill="none" stroke="#030303" stroke-linecap="round" x1="37.583" y1="50.667" x2="37.583" y2="58.047"/>
<text transform="matrix(1 0 0 1 28.4883 31.2422)" fill="#010101" stroke="#030303" font-family="'LeelawadeeUI'" font-size="18"> </text>
<path fill="#010101" stroke="#030303" d="M32.835,22.326c0,0-1.005,0-1.001,2s1.001,11.666,1.001,11.666l0.999-12.25
	C33.834,23.742,33.665,22.91,32.835,22.326z"/>
<ellipse fill="#010101" stroke="#030303" cx="32.833" cy="39.617" rx="1" ry="1.125"/>
</svg>
