<?xml version="1.0" encoding="utf-8"?>
<!-- Generator: Adobe Illustrator 14.0.0, SVG Export Plug-In . SVG Version: 6.00 Build 43363)  -->
<!DOCTYPE svg PUBLIC "-//W3C//DTD SVG 1.1//EN" "http://www.w3.org/Graphics/SVG/1.1/DTD/svg11.dtd">
<svg version="1.1" id="Layer_1" xmlns="http://www.w3.org/2000/svg" xmlns:xlink="http://www.w3.org/1999/xlink" x="0px" y="0px"
	 width="64px" height="64px" viewBox="0 0 64 64" enable-background="new 0 0 64 64" xml:space="preserve">
<line fill="none" stroke="#070707" stroke-width="2" stroke-linecap="round" x1="56.02" y1="37.165" x2="36.179" y2="37.165"/>
<line fill="none" stroke="#070707" stroke-width="2" stroke-linecap="round" x1="36.179" y1="37.165" x2="36.179" y2="56.269"/>
<line fill="none" stroke="#030303" stroke-width="2" stroke-linecap="round" x1="56.02" y1="37.165" x2="51.104" y2="42.08"/>
<line fill="none" stroke="#030303" stroke-width="2" stroke-linecap="round" x1="41.096" y1="51.353" x2="36.179" y2="56.269"/>
<line fill="none" stroke="#030303" stroke-width="2" stroke-linecap="round" x1="51.104" y1="42.08" x2="62.061" y2="53.037"/>
<line fill="none" stroke="#030303" stroke-width="2" stroke-linecap="round" x1="41.096" y1="51.353" x2="52.053" y2="62.31"/>
<line fill="none" stroke="#010101" stroke-width="2" stroke-linecap="round" x1="62.061" y1="53.037" x2="52.053" y2="62.31"/>
<line fill="none" stroke="#070707" stroke-width="2" stroke-linecap="round" x1="36.199" y1="7.717" x2="36.179" y2="27.557"/>
<line fill="none" stroke="#070707" stroke-width="2" stroke-linecap="round" x1="36.179" y1="27.557" x2="55.282" y2="27.575"/>
<line fill="none" stroke="#030303" stroke-width="2" stroke-linecap="round" x1="36.199" y1="7.717" x2="41.11" y2="12.637"/>
<line fill="none" stroke="#030303" stroke-width="2" stroke-linecap="round" x1="50.372" y1="22.653" x2="55.282" y2="27.575"/>
<line fill="none" stroke="#030303" stroke-width="2" stroke-linecap="round" x1="41.11" y1="12.637" x2="52.077" y2="1.69"/>
<line fill="none" stroke="#030303" stroke-width="2" stroke-linecap="round" x1="50.372" y1="22.653" x2="61.34" y2="11.707"/>
<line fill="none" stroke="#010101" stroke-width="2" stroke-linecap="round" x1="52.077" y1="1.69" x2="61.34" y2="11.707"/>
<line fill="none" stroke="#070707" stroke-width="2" stroke-linecap="round" x1="7.981" y1="26.835" x2="27.821" y2="26.835"/>
<line fill="none" stroke="#070707" stroke-width="2" stroke-linecap="round" x1="27.821" y1="26.835" x2="27.821" y2="7.731"/>
<line fill="none" stroke="#030303" stroke-width="2" stroke-linecap="round" x1="7.981" y1="26.835" x2="12.896" y2="21.919"/>
<line fill="none" stroke="#030303" stroke-width="2" stroke-linecap="round" x1="22.904" y1="12.647" x2="27.821" y2="7.731"/>
<line fill="none" stroke="#030303" stroke-width="2" stroke-linecap="round" x1="12.896" y1="21.919" x2="1.94" y2="10.962"/>
<line fill="none" stroke="#030303" stroke-width="2" stroke-linecap="round" x1="22.904" y1="12.647" x2="11.948" y2="1.69"/>
<line fill="none" stroke="#010101" stroke-width="2" stroke-linecap="round" x1="1.94" y1="10.962" x2="11.948" y2="1.69"/>
<line fill="none" stroke="#070707" stroke-width="2" stroke-linecap="round" x1="27.801" y1="56.283" x2="27.821" y2="36.442"/>
<line fill="none" stroke="#070707" stroke-width="2" stroke-linecap="round" x1="27.821" y1="36.442" x2="8.718" y2="36.425"/>
<line fill="none" stroke="#030303" stroke-width="2" stroke-linecap="round" x1="27.801" y1="56.283" x2="22.889" y2="51.363"/>
<line fill="none" stroke="#030303" stroke-width="2" stroke-linecap="round" x1="13.628" y1="41.346" x2="8.718" y2="36.425"/>
<line fill="none" stroke="#030303" stroke-width="2" stroke-linecap="round" x1="22.889" y1="51.363" x2="11.923" y2="62.31"/>
<line fill="none" stroke="#030303" stroke-width="2" stroke-linecap="round" x1="13.628" y1="41.346" x2="2.661" y2="52.293"/>
<line fill="none" stroke="#010101" stroke-width="2" stroke-linecap="round" x1="11.923" y1="62.31" x2="2.661" y2="52.293"/>
</svg>
