<?xml version="1.0" encoding="utf-8"?>
<!-- Generator: Adobe Illustrator 14.0.0, SVG Export Plug-In . SVG Version: 6.00 Build 43363)  -->
<!DOCTYPE svg PUBLIC "-//W3C//DTD SVG 1.1//EN" "http://www.w3.org/Graphics/SVG/1.1/DTD/svg11.dtd">
<svg version="1.1" id="Layer_1" xmlns="http://www.w3.org/2000/svg" xmlns:xlink="http://www.w3.org/1999/xlink" x="0px" y="0px"
	 width="64px" height="64px" viewBox="0 0 64 64" enable-background="new 0 0 64 64" xml:space="preserve">
<path fill="#010101" d="M55.536,54.047c0,4.65-3.551,8.423-7.93,8.423l0,0c-4.379,0-7.93-3.772-7.93-8.423v-7.621
	c0-4.65,3.551-8.421,7.93-8.421l0,0c4.379,0,7.93,3.771,7.93,8.421V54.047z"/>
<path fill="#010101" d="M55.536,55.552c0,0,1.855,6.749,4.387,0v-30.37c0,0-5.23-24.633-29.188-23.621v7.761
	c0,0,16.872-0.844,23.958,17.041L55.536,55.552z"/>
<path fill="#010101" d="M8.287,54.05c0,4.649,3.407,8.42,7.609,8.42l0,0c4.201,0,7.608-3.771,7.608-8.42v-7.622
	c0-4.65-3.407-8.423-7.608-8.423l0,0c-4.202,0-7.609,3.772-7.609,8.423V54.05z"/>
<path fill="#010101" d="M8.287,55.552c0,0-1.781,6.749-4.209,0V25.183c0,0,5.019-24.633,28.007-23.621v7.761
	c0,0-16.189-0.844-22.989,17.041L8.287,55.552z"/>
</svg>
