<?xml version="1.0" encoding="utf-8"?>
<!-- Generator: Adobe Illustrator 14.0.0, SVG Export Plug-In . SVG Version: 6.00 Build 43363)  -->
<!DOCTYPE svg PUBLIC "-//W3C//DTD SVG 1.1//EN" "http://www.w3.org/Graphics/SVG/1.1/DTD/svg11.dtd">
<svg version="1.1" id="Layer_1" xmlns="http://www.w3.org/2000/svg" xmlns:xlink="http://www.w3.org/1999/xlink" x="0px" y="0px"
	 width="64px" height="64px" viewBox="0 0 64 64" enable-background="new 0 0 64 64" xml:space="preserve">
<path fill="#030303" d="M8.485,60.34h28.558c5.015-0.51,5.1-5.27,5.1-5.27V33.397c-1.19-4.335-5.1-4.335-5.1-4.335H8.485
	c0,0-3.825,0.425-5.439,4.335V55.07C3.045,55.07,3.385,59.66,8.485,60.34z"/>
<path fill="#FFFFFF" d="M5.765,55.07V33.397c1.7-1.955,2.805-1.445,2.805-1.445h28.558c0,0,1.784-0.425,2.635,1.445V55.07
	c0,0-0.255,2.72-2.635,2.72H8.57C8.57,57.79,5.765,57.28,5.765,55.07z"/>
<circle cx="22.764" cy="46.316" r="3.91"/>
<path d="M21.234,44.318c0,0.869,0.704,1.572,1.572,1.572l0,0c0.869,0,1.572-0.703,1.572-1.572v-6.034
	c0-0.868-0.704-1.572-1.572-1.572l0,0c-0.869,0-1.572,0.704-1.572,1.572V44.318z"/>
<rect x="32.934" y="13.862" fill="#030303" width="3.841" height="15.93"/>
<polygon fill="#030303" points="57.114,13.862 60.955,13.862 60.955,29.792 59.034,30.31 57.114,29.792 "/>
<path fill="#030303" d="M57.114,14.112c0,0-8.332-13.308-20.34,0h-3.841c0,0,12.826-23.517,28.021,0H57.114z"/>
</svg>
