<?xml version="1.0" encoding="utf-8"?>
<!-- Generator: Adobe Illustrator 14.0.0, SVG Export Plug-In . SVG Version: 6.00 Build 43363)  -->
<!DOCTYPE svg PUBLIC "-//W3C//DTD SVG 1.1//EN" "http://www.w3.org/Graphics/SVG/1.1/DTD/svg11.dtd">
<svg version="1.1" id="Layer_1" xmlns="http://www.w3.org/2000/svg" xmlns:xlink="http://www.w3.org/1999/xlink" x="0px" y="0px"
	 width="64px" height="64px" viewBox="0 0 64 64" enable-background="new 0 0 64 64" xml:space="preserve">
<path fill="#030303" d="M17.31,61.507h29.734c5.221-0.53,5.309-5.486,5.309-5.486V33.454c-1.238-4.512-5.309-4.512-5.309-4.512
	H17.31c0,0-3.982,0.442-5.664,4.512v22.566C11.646,56.021,12,60.799,17.31,61.507z"/>
<path fill="#FFFFFF" d="M14.479,56.021V33.454c1.77-2.035,2.92-1.503,2.92-1.503h29.733c0,0,1.859-0.443,2.743,1.503v22.566
	c0,0-0.265,2.832-2.743,2.832H17.399C17.399,58.853,14.479,58.32,14.479,56.021z"/>
<circle cx="32.177" cy="46.905" r="4.07"/>
<path d="M30.584,44.826c0,0.903,0.732,1.637,1.637,1.637l0,0c0.904,0,1.636-0.733,1.636-1.637v-6.283
	c0-0.904-0.732-1.638-1.636-1.638l0,0c-0.904,0-1.637,0.733-1.637,1.638V44.826z"/>
<rect x="17.28" y="13.115" fill="#030303" width="3.998" height="16.585"/>
<polygon fill="#030303" points="42.456,13.115 46.455,13.115 46.455,29.7 44.455,30.24 42.456,29.7 "/>
<path fill="#030303" d="M42.456,13.44c0,0-8.675-13.938-21.178,0H17.28c0,0,13.354-24.632,29.175,0H42.456z"/>
</svg>
