<?xml version="1.0" encoding="utf-8"?>
<!-- Generator: Adobe Illustrator 14.0.0, SVG Export Plug-In . SVG Version: 6.00 Build 43363)  -->
<!DOCTYPE svg PUBLIC "-//W3C//DTD SVG 1.1//EN" "http://www.w3.org/Graphics/SVG/1.1/DTD/svg11.dtd">
<svg version="1.1" id="Layer_1" xmlns="http://www.w3.org/2000/svg" xmlns:xlink="http://www.w3.org/1999/xlink" x="0px" y="0px"
	 width="64px" height="64px" viewBox="0 0 64 64" enable-background="new 0 0 64 64" xml:space="preserve">
<rect x="58.539" y="4.835" fill="#898989" width="2.212" height="54.443"/>
<rect x="8.876" y="2.28" fill="#030303" width="50.654" height="59.439"/>
<rect x="12.897" y="6.587" fill="#FFFFFF" width="8.499" height="51"/>
<rect x="3.249" y="10.408" fill="#030303" width="15.621" height="7.811"/>
<rect x="3.249" y="22.583" fill="#030303" width="15.621" height="7.811"/>
<rect x="3.249" y="33.608" fill="#030303" width="15.621" height="7.812"/>
<rect x="3.249" y="45.784" fill="#030303" width="15.621" height="7.81"/>
<rect x="24.383" y="5.941" fill="#FFFFFF" width="32.162" height="52.29"/>
<line fill="none" stroke="#000000" x1="26.45" y1="11.498" x2="52.41" y2="11.498"/>
<line fill="none" stroke="#000000" x1="26.45" y1="15.402" x2="52.41" y2="15.402"/>
<line fill="none" stroke="#000000" x1="26.45" y1="18.678" x2="52.41" y2="18.678"/>
<line fill="none" stroke="#000000" x1="26.45" y1="22.583" x2="52.41" y2="22.583"/>
<line fill="none" stroke="#000000" x1="26.45" y1="26.458" x2="52.41" y2="26.458"/>
<line fill="none" stroke="#000000" x1="26.45" y1="30.363" x2="52.41" y2="30.363"/>
<line fill="none" stroke="#000000" x1="26.45" y1="33.637" x2="52.41" y2="33.637"/>
<line fill="none" stroke="#000000" x1="26.45" y1="37.541" x2="52.41" y2="37.541"/>
<line fill="none" stroke="#000000" x1="26.45" y1="41.42" x2="52.41" y2="41.42"/>
<line fill="none" stroke="#000000" x1="26.45" y1="45.324" x2="52.41" y2="45.324"/>
<line fill="none" stroke="#000000" x1="26.45" y1="48.601" x2="52.41" y2="48.601"/>
<line fill="none" stroke="#000000" x1="26.45" y1="52.505" x2="38.396" y2="52.505"/>
</svg>
