<?xml version="1.0" encoding="utf-8"?>
<!-- Generator: Adobe Illustrator 14.0.0, SVG Export Plug-In . SVG Version: 6.00 Build 43363)  -->
<!DOCTYPE svg PUBLIC "-//W3C//DTD SVG 1.1//EN" "http://www.w3.org/Graphics/SVG/1.1/DTD/svg11.dtd">
<svg version="1.1" id="Layer_1" xmlns="http://www.w3.org/2000/svg" xmlns:xlink="http://www.w3.org/1999/xlink" x="0px" y="0px"
	 width="64px" height="64px" viewBox="0 0 64 64" enable-background="new 0 0 64 64" xml:space="preserve">
<polygon fill="#030303" points="49.217,58.451 40.219,62.521 40.219,62.521 49.217,58.451 40.219,62.521 32.449,54.193 
	24.885,62.852 15.837,59.242 24.885,62.852 24.885,62.852 15.837,59.242 16.232,47.785 4.972,48.551 4.972,48.551 1.175,39.363 
	4.972,48.551 1.175,39.363 9.295,31.783 1.216,24.747 1.216,24.747 1.216,24.747 1.216,24.747 5.193,15.201 15.7,15.566 
	15.011,5.399 15.011,5.399 24.873,1.304 24.873,1.304 31.708,8.628 38.239,1.148 48.271,5.082 38.239,1.148 48.271,5.082 
	47.927,15.034 58.007,14.351 62.407,23.997 60.158,19.063 58.007,14.351 62.407,23.997 54.86,31.042 62.825,37.995 62.825,37.995 
	59.347,47.629 62.825,37.995 59.347,47.629 48.451,47.26 "/>
<path fill="#FFFEFE" stroke="#030303" stroke-width="0.05" d="M44.325,32.07c0-6.872-5.565-12.437-12.437-12.437
	c-6.873,0-12.439,5.565-12.439,12.437c0,6.872,5.567,12.437,12.439,12.437C38.76,44.507,44.325,38.941,44.325,32.07z"/>
</svg>
