<?xml version="1.0" encoding="utf-8"?>
<!-- Generator: Adobe Illustrator 14.0.0, SVG Export Plug-In . SVG Version: 6.00 Build 43363)  -->
<!DOCTYPE svg PUBLIC "-//W3C//DTD SVG 1.1//EN" "http://www.w3.org/Graphics/SVG/1.1/DTD/svg11.dtd">
<svg version="1.1" id="Layer_1" xmlns="http://www.w3.org/2000/svg" xmlns:xlink="http://www.w3.org/1999/xlink" x="0px" y="0px"
	 width="16px" height="16px" viewBox="0 0 16 16" enable-background="new 0 0 16 16" xml:space="preserve">
<line fill="#010101" stroke="#070707" stroke-width="0.75" stroke-linecap="round" x1="14.828" y1="8.286" x2="7.946" y2="2.334"/>
<line fill="#010101" stroke="#070707" stroke-width="0.75" stroke-linecap="round" x1="0.94" y1="8.286" x2="7.946" y2="2.334"/>
<line fill="#010101" stroke="#030303" stroke-linecap="round" x1="7.946" y1="4.131" x2="2.414" y2="8.72"/>
<line fill="#010101" stroke="#030303" stroke-linecap="round" x1="2.678" y1="8.72" x2="2.678" y2="14.737"/>
<line fill="#010101" stroke="#030303" stroke-linecap="round" x1="2.678" y1="14.737" x2="6.52" y2="14.737"/>
<line fill="#010101" stroke="#030303" stroke-linecap="round" x1="6.52" y1="14.737" x2="6.52" y2="11.139"/>
<line fill="#010101" stroke="#030303" stroke-linecap="round" x1="6.52" y1="11.139" x2="9.124" y2="11.139"/>
<line fill="#010101" stroke="#030303" stroke-linecap="round" x1="9.124" y1="11.139" x2="9.124" y2="14.737"/>
<line fill="#010101" stroke="#030303" stroke-linecap="round" x1="9.124" y1="14.737" x2="13.031" y2="14.737"/>
<line fill="#010101" stroke="#030303" stroke-linecap="round" x1="13.031" y1="14.737" x2="13.031" y2="8.72"/>
<line fill="#010101" stroke="#030303" stroke-linecap="round" x1="13.273" y1="8.72" x2="7.946" y2="4.131"/>
<line fill="#030303" stroke="#030303" stroke-width="0.5" stroke-linecap="round" x1="12.227" y1="4.688" x2="12.227" y2="3.017"/>
<line fill="#030303" stroke="#030303" stroke-width="0.5" stroke-linecap="round" x1="12.227" y1="3.017" x2="13.59" y2="3.017"/>
<line fill="#030303" stroke="#030303" stroke-width="0.5" stroke-linecap="round" x1="13.59" y1="3.017" x2="13.59" y2="5.805"/>
<line fill="#030303" stroke="#030303" stroke-width="0.5" stroke-linecap="round" x1="13.59" y1="5.805" x2="12.227" y2="4.688"/>
<rect x="2.678" y="8.72" fill="#010101" stroke="#030303" stroke-linecap="round" width="3.842" height="6.018"/>
<rect x="9.124" y="8.72" fill="#010101" stroke="#030303" stroke-linecap="round" width="3.907" height="6.018"/>
<rect x="6.52" y="8.72" fill="#010101" stroke="#030303" stroke-linecap="round" width="2.604" height="2.419"/>
<rect x="5.529" y="6.335" fill="#010101" stroke="#030303" stroke-linecap="round" width="4.569" height="2.65"/>
<line fill="none" stroke="#030303" stroke-width="0.5" stroke-linecap="round" x1="12.906" y1="3.017" x2="12.906" y2="4.938"/>
<line fill="none" stroke="#030303" stroke-width="0.5" stroke-linecap="round" x1="13.279" y1="3.017" x2="13.279" y2="4.938"/>
<line fill="none" stroke="#030303" stroke-width="0.5" stroke-linecap="round" x1="12.595" y1="3.264" x2="12.595" y2="4.688"/>
<line fill="none" stroke="#030303" stroke-width="0.5" stroke-linecap="round" x1="13.59" y1="5.309" x2="12.906" y2="4.938"/>
<line fill="none" stroke="#030303" stroke-linecap="round" x1="5.529" y1="6.335" x2="3.357" y2="8.72"/>
<line fill="none" stroke="#030303" stroke-linecap="round" x1="5.529" y1="7.106" x2="3.854" y2="8.72"/>
<line fill="none" stroke="#030303" stroke-linecap="round" x1="5.902" y1="7.66" x2="4.445" y2="8.72"/>
<line fill="none" stroke="#030303" stroke-linecap="round" x1="5.529" y1="7.106" x2="4.445" y2="8.72"/>
<line fill="none" stroke="#030303" stroke-linecap="round" x1="12.227" y1="8.72" x2="10.098" y2="7.106"/>
<line fill="none" stroke="#030303" stroke-linecap="round" x1="11.793" y1="8.72" x2="10.098" y2="7.66"/>
<line fill="none" stroke="#030303" stroke-linecap="round" x1="11.077" y1="9.277" x2="10.098" y2="7.66"/>
<line fill="none" stroke="#030303" stroke-linecap="round" x1="12.227" y1="8.72" x2="10.098" y2="6.335"/>
<line fill="none" stroke="#030303" stroke-linecap="round" x1="9.558" y1="5.805" x2="6.026" y2="5.805"/>
<line fill="none" stroke="#030303" stroke-linecap="round" x1="9.558" y1="5.805" x2="6.026" y2="5.805"/>
<line fill="none" stroke="#030303" stroke-linecap="round" x1="9.25" y1="5.309" x2="6.665" y2="5.309"/>
<line fill="none" stroke="#030303" stroke-linecap="round" x1="7.946" y1="4.131" x2="7.958" y2="5.249"/>
<line fill="none" stroke="#030303" stroke-linecap="round" x1="7.958" y1="4.688" x2="8.567" y2="5.249"/>
<line fill="none" stroke="#030303" stroke-linecap="round" x1="7.958" y1="4.688" x2="7.016" y2="5.309"/>
<line fill="none" stroke="#030303" stroke-linecap="round" x1="9.558" y1="6.07" x2="6.026" y2="6.07"/>
</svg>
