<?xml version="1.0" encoding="utf-8"?>
<!-- Generator: Adobe Illustrator 14.0.0, SVG Export Plug-In . SVG Version: 6.00 Build 43363)  -->
<!DOCTYPE svg PUBLIC "-//W3C//DTD SVG 1.1//EN" "http://www.w3.org/Graphics/SVG/1.1/DTD/svg11.dtd">
<svg version="1.1" id="Layer_1" xmlns="http://www.w3.org/2000/svg" xmlns:xlink="http://www.w3.org/1999/xlink" x="0px" y="0px"
	 width="64px" height="64px" viewBox="0 0 64 64" enable-background="new 0 0 64 64" xml:space="preserve">
<circle fill="#010101" stroke="#030303" stroke-width="0.05" cx="28.206" cy="28.07" r="26.401"/>
<circle fill="#FFFFFF" stroke="#030303" stroke-width="0.05" cx="28.206" cy="28.07" r="19.323"/>
<path fill="#030303" stroke="#FFFFFF" stroke-width="0.05" d="M38.879,28.07c0,1.922-0.811,3.482-1.812,3.482H19.345
	c-1.001,0-1.812-1.56-1.812-3.482l0,0c0-1.922,0.811-3.482,1.812-3.482h17.723C38.068,24.587,38.879,26.148,38.879,28.07
	L38.879,28.07z"/>
<path fill="#030303" d="M61.403,53.83c1.514,1.829,0.794,4.927-1.61,6.92l0,0c-2.406,1.991-5.584,2.118-7.098,0.291l-9.798-11.832
	c-1.515-1.829-0.794-4.927,1.611-6.919l0,0c2.404-1.991,5.582-2.119,7.097-0.292L61.403,53.83z"/>
<path fill="#030303" d="M28.206,17.397c1.922,0,3.482,0.811,3.482,1.812v17.723c0,1-1.561,1.812-3.482,1.812l0,0
	c-1.922,0-3.483-0.812-3.483-1.812V19.208C24.723,18.208,26.284,17.397,28.206,17.397L28.206,17.397z"/>
</svg>
