<?xml version="1.0" encoding="utf-8"?>
<!-- Generator: Adobe Illustrator 14.0.0, SVG Export Plug-In . SVG Version: 6.00 Build 43363)  -->
<!DOCTYPE svg PUBLIC "-//W3C//DTD SVG 1.1//EN" "http://www.w3.org/Graphics/SVG/1.1/DTD/svg11.dtd">
<svg version="1.1" id="Layer_1" xmlns="http://www.w3.org/2000/svg" xmlns:xlink="http://www.w3.org/1999/xlink" x="0px" y="0px"
	 width="64px" height="64px" viewBox="0 0 64 64" enable-background="new 0 0 64 64" xml:space="preserve">
<path fill="#030303" d="M63.083,11.479c0,2.834-2.296,5.13-5.13,5.13H6.047c-2.833,0-5.13-2.296-5.13-5.13l0,0
	c0-2.833,2.297-5.13,5.13-5.13h51.906C60.787,6.349,63.083,8.646,63.083,11.479L63.083,11.479z"/>
<path fill="#030303" d="M63.083,31.396c0,2.834-2.296,5.13-5.13,5.13H6.047c-2.833,0-5.13-2.296-5.13-5.13l0,0
	c0-2.834,2.297-5.13,5.13-5.13h51.906C60.787,26.266,63.083,28.563,63.083,31.396L63.083,31.396z"/>
<path fill="#030303" d="M63.083,52.521c0,2.834-2.296,5.131-5.13,5.131H6.047c-2.833,0-5.13-2.297-5.13-5.131l0,0
	c0-2.834,2.297-5.13,5.13-5.13h51.906C60.787,47.391,63.083,49.687,63.083,52.521L63.083,52.521z"/>
</svg>
