<?xml version="1.0" encoding="utf-8"?>
<!-- Generator: Adobe Illustrator 14.0.0, SVG Export Plug-In . SVG Version: 6.00 Build 43363)  -->
<!DOCTYPE svg PUBLIC "-//W3C//DTD SVG 1.1//EN" "http://www.w3.org/Graphics/SVG/1.1/DTD/svg11.dtd">
<svg version="1.1" id="Layer_1" xmlns="http://www.w3.org/2000/svg" xmlns:xlink="http://www.w3.org/1999/xlink" x="0px" y="0px"
	 width="64px" height="64px" viewBox="0 0 64 64" enable-background="new 0 0 64 64" xml:space="preserve">
<path fill="#030303" d="M63.542,9.22c0,1.768-1.947,3.2-4.351,3.2H15.171c-2.403,0-4.351-1.432-4.351-3.2l0,0
	c0-1.768,1.948-3.2,4.351-3.2h44.021C61.595,6.02,63.542,7.452,63.542,9.22L63.542,9.22z"/>
<circle fill="#030303" cx="4.42" cy="9.22" r="3.962"/>
<path fill="#030303" d="M63.542,24.762c0,1.768-1.947,3.2-4.351,3.2H15.171c-2.403,0-4.351-1.432-4.351-3.2l0,0
	c0-1.768,1.948-3.2,4.351-3.2h44.021C61.595,21.562,63.542,22.994,63.542,24.762L63.542,24.762z"/>
<circle fill="#030303" cx="4.42" cy="24.762" r="3.962"/>
<path fill="#030303" d="M63.542,39.238c0,1.768-1.947,3.199-4.351,3.199H15.171c-2.403,0-4.351-1.432-4.351-3.199l0,0
	c0-1.769,1.948-3.2,4.351-3.2h44.021C61.595,36.038,63.542,37.47,63.542,39.238L63.542,39.238z"/>
<circle fill="#030303" cx="4.42" cy="39.238" r="3.962"/>
<path fill="#030303" d="M63.542,54.78c0,1.768-1.947,3.2-4.351,3.2H15.171c-2.403,0-4.351-1.433-4.351-3.2l0,0
	c0-1.768,1.948-3.2,4.351-3.2h44.021C61.595,51.58,63.542,53.013,63.542,54.78L63.542,54.78z"/>
<circle fill="#030303" cx="4.42" cy="54.78" r="3.962"/>
</svg>
