<?xml version="1.0" encoding="utf-8"?>
<!-- Generator: Adobe Illustrator 14.0.0, SVG Export Plug-In . SVG Version: 6.00 Build 43363)  -->
<!DOCTYPE svg PUBLIC "-//W3C//DTD SVG 1.1//EN" "http://www.w3.org/Graphics/SVG/1.1/DTD/svg11.dtd">
<svg version="1.1" id="Layer_1" xmlns="http://www.w3.org/2000/svg" xmlns:xlink="http://www.w3.org/1999/xlink" x="0px" y="0px"
	 width="64px" height="64px" viewBox="0 0 64 64" enable-background="new 0 0 64 64" xml:space="preserve">
<path fill="#030303" d="M63.125,9.736c0,1.728-1.629,3.127-3.638,3.127H22.682c-2.009,0-3.638-1.399-3.638-3.127l0,0
	c0-1.728,1.629-3.127,3.638-3.127h36.806C61.496,6.608,63.125,8.008,63.125,9.736L63.125,9.736z"/>
<circle fill="#030303" cx="4.747" cy="9.736" r="3.872"/>
<path fill="#030303" d="M63.125,31.181c0,1.728-1.629,3.127-3.638,3.127H22.682c-2.009,0-3.638-1.4-3.638-3.127l0,0
	c0-1.728,1.629-3.127,3.638-3.127h36.806C61.496,28.054,63.125,29.453,63.125,31.181L63.125,31.181z"/>
<circle fill="#030303" cx="4.747" cy="31.181" r="3.872"/>
<path fill="#030303" d="M63.125,54.264c0,1.729-1.629,3.128-3.638,3.128H22.682c-2.009,0-3.638-1.399-3.638-3.128l0,0
	c0-1.728,1.629-3.127,3.638-3.127h36.806C61.496,51.137,63.125,52.536,63.125,54.264L63.125,54.264z"/>
<circle fill="#030303" cx="4.747" cy="54.264" r="3.872"/>
</svg>
