<?xml version="1.0" encoding="utf-8"?>
<!-- Generator: Adobe Illustrator 14.0.0, SVG Export Plug-In . SVG Version: 6.00 Build 43363)  -->
<!DOCTYPE svg PUBLIC "-//W3C//DTD SVG 1.1//EN" "http://www.w3.org/Graphics/SVG/1.1/DTD/svg11.dtd">
<svg version="1.1" id="Layer_1" xmlns="http://www.w3.org/2000/svg" xmlns:xlink="http://www.w3.org/1999/xlink" x="0px" y="0px"
	 width="64px" height="64px" viewBox="0 0 64 64" enable-background="new 0 0 64 64" xml:space="preserve">
<path fill="none" stroke="#040404" stroke-width="2" d="M54.813,37.396c-0.975-1.939-1.9-3.88-2.588-5.945
	c-1.519-4.569-4.663-8.624-7.348-12.589c-4.641-6.856-12.191-9.077-19.07-12.827C11.879,7.963,1.145,19.882,1.145,34.34
	c0,15.799,12.808,28.607,28.607,28.607c13.036,0,24.015-8.726,27.464-20.65C56.709,41.785,55.096,37.961,54.813,37.396z"/>
<path fill="none" stroke="#040404" stroke-width="2" d="M56.763,44.947c0.173-0.627,0.456-1.211,0.786-1.766
	c-0.008-0.08-0.021-0.159-0.03-0.24c-0.069-0.3-0.125-0.61-0.162-0.934c0.206,1.808-2.192-3.912-2.544-4.611
	c-0.975-1.939-1.9-3.88-2.588-5.945c-1.519-4.569-4.663-8.624-7.348-12.589c-4.955-7.32-13.229-9.355-20.461-13.611
	c-1.287,0.274-2.583,0.554-3.865,0.796c-0.614,0.116-1.225,0.149-1.83,0.143c-2.619,4.317-4.147,9.367-4.147,14.786
	c0,15.799,12.808,28.607,28.608,28.607c4.84,0,9.374-1.238,13.367-3.366C56.586,45.79,56.647,45.363,56.763,44.947z"/>
<polygon fill="#FFFFFF" points="14.719,8.719 20.551,6.047 19.184,6.673 17.688,10.469 51.629,42.995 54.031,46.375 57.75,44.313 
	55.75,48.656 62.855,41.531 43.053,13.521 22.531,0.438 "/>
</svg>
