<?xml version="1.0" encoding="utf-8"?>
<!-- Generator: Adobe Illustrator 14.0.0, SVG Export Plug-In . SVG Version: 6.00 Build 43363)  -->
<!DOCTYPE svg PUBLIC "-//W3C//DTD SVG 1.1//EN" "http://www.w3.org/Graphics/SVG/1.1/DTD/svg11.dtd">
<svg version="1.1" id="Layer_1" xmlns="http://www.w3.org/2000/svg" xmlns:xlink="http://www.w3.org/1999/xlink" x="0px" y="0px"
	 width="64px" height="64px" viewBox="0 0 64 64" enable-background="new 0 0 64 64" xml:space="preserve">
<polygon fill="#010101" points="49.822,57.981 38.819,54.637 31.665,63.667 24.718,54.484 13.635,57.582 13.411,46.084 
	2.615,42.076 9.195,32.638 2.823,23.047 13.698,19.278 14.17,7.772 25.181,11.114 32.327,2.087 39.282,11.266 50.357,8.16 
	50.589,19.669 61.385,23.679 54.805,33.116 61.185,42.706 50.302,46.483 "/>
<path fill="none" stroke="#FFFFFF" d="M49.367,32.877c0-9.582-7.793-17.359-17.367-17.359c-9.582,0-17.359,7.777-17.359,17.359
	c0,9.574,7.777,17.367,17.359,17.367C41.574,50.244,49.367,42.451,49.367,32.877z"/>
</svg>
