<?xml version="1.0" encoding="utf-8"?>
<!-- Generator: Adobe Illustrator 14.0.0, SVG Export Plug-In . SVG Version: 6.00 Build 43363)  -->
<!DOCTYPE svg PUBLIC "-//W3C//DTD SVG 1.1//EN" "http://www.w3.org/Graphics/SVG/1.1/DTD/svg11.dtd">
<svg version="1.1" id="Layer_1" xmlns="http://www.w3.org/2000/svg" xmlns:xlink="http://www.w3.org/1999/xlink" x="0px" y="0px"
	 width="64px" height="64px" viewBox="0 0 64 64" enable-background="new 0 0 64 64" xml:space="preserve">
<path fill="none" stroke="#FFFFFF" stroke-width="3" d="M4.242,55.333"/>
<circle fill="none" stroke="#030303" stroke-width="3" cx="44.81" cy="19.09" r="17.42"/>
<path fill="none" stroke="#030303" stroke-width="2" d="M47.99,20.162c1.499,1.472,3.906,1.451,5.379-0.046l0,0
	c1.473-1.499,1.45-3.907-0.046-5.379l-4.215-4.139c-1.497-1.473-3.907-1.452-5.378,0.046l0,0c-1.472,1.499-1.451,3.907,0.047,5.379
	L47.99,20.162z"/>
<path fill="#070707" d="M4.591,49.155c-1.009,1.038-1.251,2.439-0.542,3.127l0,0c0.71,0.689,2.101,0.406,3.109-0.632l21.908-22.554
	c1.007-1.037,1.249-2.438,0.542-3.126l0,0c-0.71-0.689-2.101-0.405-3.109,0.632L4.591,49.155z"/>
<polygon fill="#FFFFFF" points="43.711,26.533 28.436,43.068 21.971,36.285 38.339,19.166 "/>
<path fill="#010101" d="M7.158,51.65c0,0-3.79,7.626,2.708,6.799c0.651-0.083,6.089-3.92,6.962-4.189l1.135,4.027
	c0,0-2.374,0.784-4.653,2.685c-1.074,0.896-3.315,1.246-4.922,1.343c-2.602,0.154-4.818-0.706-5.459-1.7
	c-1.79-2.774-1.545-8.921,1.017-10.547C6.507,48.442,7.158,51.65,7.158,51.65z"/>
<rect x="16.827" y="54.404" fill="#030303" width="8.115" height="3.704"/>
<rect x="19.342" y="49.732" transform="matrix(-0.0043 1 -1 -0.0043 74.7724 27.9811)" fill="#030303" width="8.227" height="2.97"/>
<rect x="21.953" y="47.101" fill="#030303" width="11.29" height="3.163"/>
<rect x="27.227" y="44.319" transform="matrix(-0.0168 -0.9999 0.9999 -0.0168 -13.6933 78.2802)" fill="#030303" width="8.826" height="3.108"/>
<polygon fill="#030303" points="39.135,35.805 33.159,42.027 30.013,42.495 30.106,41.756 37.237,33.448 "/>
</svg>
