<?xml version="1.0" encoding="utf-8"?>
<!-- Generator: Adobe Illustrator 14.0.0, SVG Export Plug-In . SVG Version: 6.00 Build 43363)  -->
<!DOCTYPE svg PUBLIC "-//W3C//DTD SVG 1.1//EN" "http://www.w3.org/Graphics/SVG/1.1/DTD/svg11.dtd">
<svg version="1.1" id="Layer_1" xmlns="http://www.w3.org/2000/svg" xmlns:xlink="http://www.w3.org/1999/xlink" x="0px" y="0px"
	 width="64px" height="64px" viewBox="0 0 64 64" enable-background="new 0 0 64 64" xml:space="preserve">
<polygon fill="#010101" points="49.518,48.002 55.803,56.801 55.705,59.316 54.353,60.958 52.419,61.928 50.483,61.348 
	43.135,52.544 37.525,60.088 29.947,27.403 58.316,44.616 "/>
<path fill="#010101" d="M44.883,27.575c0.482,0.8,1.699,0.948,2.722,0.331l14.048-8.489c1.024-0.617,1.46-1.767,0.975-2.564l0,0
	c-0.482-0.8-1.699-0.95-2.72-0.331L45.854,25.01C44.835,25.627,44.399,26.776,44.883,27.575L44.883,27.575z"/>
<path fill="#010101" d="M38.502,21.391c0.896,0.273,1.841-0.229,2.115-1.125l3.773-12.328c0.276-0.895-0.227-1.846-1.117-2.118l0,0
	c-0.896-0.273-1.841,0.229-2.115,1.126l-3.775,12.328C37.105,20.169,37.609,21.118,38.502,21.391L38.502,21.391z"/>
<path fill="#010101" d="M28.43,21.471c0.87-0.342,1.222-1.515,0.787-2.627l-5.99-15.283c-0.435-1.112-1.495-1.736-2.363-1.395l0,0
	c-0.87,0.342-1.224,1.516-0.788,2.627l5.991,15.284C26.501,21.189,27.559,21.813,28.43,21.471L28.43,21.471z"/>
<path fill="#010101" d="M6.817,19.832c-0.449,0.936-0.128,2.018,0.715,2.42l11.595,5.529c0.841,0.403,1.888-0.029,2.335-0.966l0,0
	c0.445-0.937,0.125-2.021-0.718-2.423L9.15,18.862C8.306,18.46,7.261,18.893,6.817,19.832L6.817,19.832z"/>
<path fill="#010101" d="M1.298,44.745c0.393,0.848,1.613,1.113,2.729,0.599l15.333-7.112c1.114-0.52,1.7-1.625,1.305-2.471l0,0
	c-0.394-0.846-1.613-1.117-2.727-0.601L2.604,42.272C1.487,42.789,0.905,43.897,1.298,44.745L1.298,44.745z"/>
<path fill="#010101" d="M18.896,58.059c0.934,0.453,2.025,0.123,2.438-0.736l5.697-11.813c0.416-0.858-0.005-1.922-0.938-2.373l0,0
	c-0.936-0.451-2.027-0.12-2.442,0.741L17.953,55.69C17.538,56.55,17.959,57.61,18.896,58.059L18.896,58.059z"/>
</svg>
