<?xml version="1.0" encoding="utf-8"?>
<!-- Generator: Adobe Illustrator 14.0.0, SVG Export Plug-In . SVG Version: 6.00 Build 43363)  -->
<!DOCTYPE svg PUBLIC "-//W3C//DTD SVG 1.1//EN" "http://www.w3.org/Graphics/SVG/1.1/DTD/svg11.dtd">
<svg version="1.1" id="Layer_1" xmlns="http://www.w3.org/2000/svg" xmlns:xlink="http://www.w3.org/1999/xlink" x="0px" y="0px"
	 width="64px" height="64px" viewBox="0 0 64 64" enable-background="new 0 0 64 64" xml:space="preserve">
<path fill="#010101" d="M60.075,9.383H4.114c0,0-2.176,0-2.901,3.022c-0.725,3.021,0,39.885,0,39.885s0.726,2.653,3.143,2.293
	c2.417-0.359,55.72,0,55.72,0s1.813,0.125,2.658-2.655s0-39.282,0-39.282S62.733,10.471,60.075,9.383z"/>
<polygon fill="#FFFFFF" points="32,39.6 5.202,11.816 59.107,11.816 "/>
<polygon fill="#FFFFFF" points="60.857,51.187 41.958,32.265 60.786,13.413 "/>
<polygon fill="#FFFFFF" points="22.002,32.3 3.389,51.187 3.389,13.413 "/>
<polygon fill="#FFFFFF" points="40.495,33.798 59.107,52.713 4.839,52.834 23.332,33.798 31.973,42.258 "/>
</svg>
