<?xml version="1.0" encoding="utf-8"?>
<!-- Generator: Adobe Illustrator 14.0.0, SVG Export Plug-In . SVG Version: 6.00 Build 43363)  -->
<!DOCTYPE svg PUBLIC "-//W3C//DTD SVG 1.1//EN" "http://www.w3.org/Graphics/SVG/1.1/DTD/svg11.dtd">
<svg version="1.1" id="Layer_1" xmlns="http://www.w3.org/2000/svg" xmlns:xlink="http://www.w3.org/1999/xlink" x="0px" y="0px"
	 width="64px" height="64px" viewBox="0 0 64 64" enable-background="new 0 0 64 64" xml:space="preserve">
<path fill="none" stroke="#010101" stroke-width="1.5" d="M61.35,32c0-6.295-2.004-12.125-5.414-16.892
	C50.615,7.672,41.877,2.82,32,2.82C15.792,2.82,2.65,15.885,2.65,32c0,16.114,13.141,29.18,29.35,29.18
	C48.208,61.18,61.35,48.114,61.35,32z"/>
<ellipse fill="none" stroke="#010101" stroke-width="1.5" cx="32.271" cy="32" rx="12.133" ry="29.18"/>
<path fill="none" stroke="#010101" stroke-width="1.5" d="M56.649,15.89c0,0-21.877,7.045-49.166,0.065"/>
<path fill="none" stroke="#010101" stroke-width="1.5" d="M56.649,48.098c0,0-18.503-8.912-49.129,0"/>
<line fill="none" stroke="#010101" stroke-width="1.5" x1="61.35" y1="32" x2="2.65" y2="32"/>
</svg>
