<?xml version="1.0" encoding="utf-8"?>
<!-- Generator: Adobe Illustrator 14.0.0, SVG Export Plug-In . SVG Version: 6.00 Build 43363)  -->
<!DOCTYPE svg PUBLIC "-//W3C//DTD SVG 1.1//EN" "http://www.w3.org/Graphics/SVG/1.1/DTD/svg11.dtd">
<svg version="1.1" id="Layer_1" xmlns="http://www.w3.org/2000/svg" xmlns:xlink="http://www.w3.org/1999/xlink" x="0px" y="0px"
	 width="64px" height="64px" viewBox="0 0 64 64" enable-background="new 0 0 64 64" xml:space="preserve">
<path fill="#010101" d="M11.495,49.259c0,2.52-1.959,4.562-4.375,4.562l0,0c-2.416,0-4.375-2.042-4.375-4.562v-7.158
	c0-2.521,1.959-4.563,4.375-4.563l0,0c2.417,0,4.375,2.042,4.375,4.563V49.259z"/>
<path fill="#010101" d="M61.311,49.259c0,2.52-1.959,4.562-4.375,4.562l0,0c-2.416,0-4.375-2.042-4.375-4.562v-7.158
	c0-2.521,1.959-4.563,4.375-4.563l0,0c2.416,0,4.375,2.042,4.375,4.563V49.259z"/>
<path fill="#010101" d="M4.074,48.781c0,0.764-0.62,1.384-1.385,1.384l0,0c-0.765,0-1.384-0.62-1.384-1.384v-5.539
	c0-0.766,0.619-1.384,1.384-1.384l0,0c0.765,0,1.385,0.618,1.385,1.384V48.781z"/>
<path fill="#010101" d="M62.695,48.448c0,0.766-0.62,1.384-1.385,1.384l0,0c-0.765,0-1.385-0.618-1.385-1.384v-5.539
	c0-0.764,0.62-1.384,1.385-1.384l0,0c0.765,0,1.385,0.62,1.385,1.384V48.448z"/>
<path fill="#010101" d="M31.654,12.173C8.035,12.407,6.621,35.434,6.621,35.434h2.959c0,0,0.779-7.56,5.902-13.068
	c3.223-3.466,7.763-6.345,16.171-5.318"/>
<path fill="#010101" d="M31.654,17.047c9.884-1.197,15.191,2.755,18.239,7.09c3.719,5.284,3.993,11.296,3.993,11.296h3.576
	c0,0-0.72-23.26-25.808-23.26"/>
<path fill="#010101" d="M16.812,14.272c0,0,4.504-4.18,14.842-4.091c10.338,0.089,15.58,4.091,15.58,4.091s0.443,2.357,0,3.357
	c-0.227,0.515-8.044-1.206-15.58-1.484c-7.109-0.262-13.965,0.933-13.965,0.933S16.959,17.042,16.812,14.272z"/>
</svg>
