<?xml version="1.0" encoding="utf-8"?>
<!-- Generator: Adobe Illustrator 14.0.0, SVG Export Plug-In . SVG Version: 6.00 Build 43363)  -->
<!DOCTYPE svg PUBLIC "-//W3C//DTD SVG 1.1//EN" "http://www.w3.org/Graphics/SVG/1.1/DTD/svg11.dtd">
<svg version="1.1" id="Layer_1" xmlns="http://www.w3.org/2000/svg" xmlns:xlink="http://www.w3.org/1999/xlink" x="0px" y="0px"
	 width="64px" height="64px" viewBox="0 0 64 64" enable-background="new 0 0 64 64" xml:space="preserve">
<circle fill="#010101" cx="31.799" cy="32.438" r="31.188"/>
<circle fill="#FFFFFF" cx="31.798" cy="32.438" r="26.502"/>
<path fill="#010101" d="M6.233,33.308c0,0.998,0.81,1.808,1.807,1.808h2.409c0.998,0,1.807-0.81,1.807-1.808l0,0
	c0-0.998-0.81-1.807-1.807-1.807H8.04C7.042,31.5,6.233,32.31,6.233,33.308L6.233,33.308z"/>
<path fill="#010101" d="M50.933,33.308c0,0.998,0.811,1.808,1.808,1.808h2.409c0.998,0,1.808-0.81,1.808-1.808l0,0
	c0-0.998-0.81-1.807-1.808-1.807H52.74C51.743,31.5,50.933,32.31,50.933,33.308L50.933,33.308z"/>
<path fill="#010101" d="M31.866,13.435c0.996-0.023,1.789-0.849,1.765-1.847l-0.052-2.409c-0.023-0.998-0.847-1.789-1.847-1.768l0,0
	c-0.997,0.023-1.789,0.85-1.767,1.847l0.054,2.409C30.041,12.665,30.866,13.456,31.866,13.435L31.866,13.435z"/>
<path fill="#010101" d="M31.866,57.988c0.996-0.023,1.789-0.849,1.765-1.846l-0.052-2.41c-0.023-0.997-0.847-1.788-1.847-1.768l0,0
	c-0.997,0.023-1.789,0.85-1.767,1.848l0.054,2.409C30.041,57.219,30.866,58.009,31.866,57.988L31.866,57.988z"/>
<path fill="#010101" d="M47.24,23.246c0.454,0.806,0.069,1.88-0.855,2.399l-13.419,7.551c-0.926,0.52-2.043,0.29-2.496-0.515l0,0
	c-0.454-0.805-0.07-1.882,0.856-2.401l13.419-7.55C45.669,22.208,46.786,22.44,47.24,23.246L47.24,23.246z"/>
<path fill="#010101" d="M27.373,23.589c0.809-0.448,1.702-0.375,1.998,0.163l4.286,7.778c0.294,0.537-0.121,1.334-0.931,1.78l0,0
	c-0.81,0.447-1.707,0.372-2-0.165l-4.282-7.778C26.143,24.829,26.563,24.034,27.373,23.589L27.373,23.589z"/>
</svg>
