<?xml version="1.0" encoding="utf-8"?>
<!-- Generator: Adobe Illustrator 14.0.0, SVG Export Plug-In . SVG Version: 6.00 Build 43363)  -->
<!DOCTYPE svg PUBLIC "-//W3C//DTD SVG 1.1//EN" "http://www.w3.org/Graphics/SVG/1.1/DTD/svg11.dtd">
<svg version="1.1" id="Layer_1" xmlns="http://www.w3.org/2000/svg" xmlns:xlink="http://www.w3.org/1999/xlink" x="0px" y="0px"
	 width="64px" height="64px" viewBox="0 0 64 64" enable-background="new 0 0 64 64" xml:space="preserve">
<ellipse fill="#030303" cx="37.875" cy="32.397" rx="24.791" ry="24.657"/>
<ellipse fill="#FFFFFF" cx="37.875" cy="32.397" rx="23.272" ry="23.146"/>
<polygon fill="#FFFFFF" points="25.778,50.979 18.618,52.064 12,35.791 14.604,16.261 19.594,26.351 "/>
<path fill="#FFFFFF" d="M2.887,44.714"/>
<path fill="#010101" d="M10.373,16.261c0,0,4.123,5.642,1.627,11.392c0,0-1.953,0.651-3.038,0.542s-4.08,8.68,1.92,18.987
	c0,0,3.179,0.65,3.722-0.543s4.123,5.1,2.821,10.415c0,0-2.169,1.085-6.727,0.651C6.141,57.272-3.731,31.667,4.514,19.082
	C4.514,19.082,6.141,16.261,10.373,16.261z"/>
<path fill="#030303" d="M11.349,16.261c0,0,3.001,5.245,2.206,11.249c0,0,2.496,1.807,2.496-1.809s-1.085-8.932-2.604-10.56
	S11.349,16.261,11.349,16.261z"/>
<path fill="#030303" d="M16.125,45.944c0,0,3.323,5.208,2.638,11.29c0,0,2.697,1.753,2.599-1.895
	c-0.095-3.648-1.386-8.981-3.042-10.582C16.666,43.158,16.125,45.944,16.125,45.944z"/>
<polygon fill="#010101" points="37.784,10.764 31.349,13.006 33.01,10.186 33.136,8.078 31.491,4.688 37.566,7.256 43.426,9.245 "/>
<polygon fill="#010101" points="47.884,52.132 52.753,47.362 52.449,50.624 53.234,52.583 56.165,54.949 49.574,55.214 
	43.426,55.909 "/>
</svg>
