<?xml version="1.0" encoding="utf-8"?>
<!-- Generator: Adobe Illustrator 14.0.0, SVG Export Plug-In . SVG Version: 6.00 Build 43363)  -->
<!DOCTYPE svg PUBLIC "-//W3C//DTD SVG 1.1//EN" "http://www.w3.org/Graphics/SVG/1.1/DTD/svg11.dtd">
<svg version="1.1" id="Layer_1" xmlns="http://www.w3.org/2000/svg" xmlns:xlink="http://www.w3.org/1999/xlink" x="0px" y="0px"
	 width="64px" height="64px" viewBox="0 0 64 64" enable-background="new 0 0 64 64" xml:space="preserve">
<path fill="#FFFFFF" d="M2.887,44.714"/>
<path fill="#030303" d="M16.241,37.024c-5.647,0-10.225,4.701-10.225,10.499v5.49c0.183-0.009,0.36-0.026,0.549-0.026
	c0.617,0,1.194,0.059,1.75,0.148c0.875-0.253,1.836-0.394,2.889-0.394c1.656,0,3.079,0.354,4.297,0.939
	c1.098-0.438,2.346-0.694,3.761-0.694c1.305,0,2.467,0.22,3.5,0.594c1.075-0.479,2.304-0.778,3.703-0.821v-5.236
	C26.465,41.726,21.888,37.024,16.241,37.024z"/>
<rect x="5.65" y="51.888" fill="#FFFFFF" width="21.731" height="3.296"/>
<circle fill="#FFFFFF" cx="16.241" cy="33.697" r="7.539"/>
<circle fill="#030303" cx="16.241" cy="33.697" r="6.196"/>
<path fill="#030303" d="M51.128,37.588c-5.646,0-10.226,4.7-10.226,10.501v5.49c0.184-0.009,0.36-0.028,0.55-0.028
	c0.616,0,1.193,0.061,1.752,0.15c0.872-0.253,1.835-0.394,2.887-0.394c1.657,0,3.08,0.352,4.297,0.938
	c1.099-0.437,2.347-0.695,3.762-0.695c1.305,0,2.467,0.22,3.501,0.596c1.074-0.479,2.302-0.778,3.702-0.822v-5.235
	C61.353,42.288,56.774,37.588,51.128,37.588z"/>
<rect x="40.537" y="52.453" fill="#FFFFFF" width="21.731" height="3.296"/>
<path fill="#FFFFFF" d="M58.667,34.261c0-4.164-3.375-7.538-7.539-7.538c-4.165,0-7.539,3.375-7.539,7.538
	c0,4.166,3.374,7.541,7.539,7.541C55.292,41.802,58.667,38.427,58.667,34.261z"/>
<circle fill="#030303" cx="51.128" cy="34.261" r="6.196"/>
<path fill="#030303" d="M32.448,12.133c-5.647,0-10.225,4.7-10.225,10.499v5.491c0.183-0.008,0.36-0.027,0.549-0.027
	c0.616,0,1.194,0.059,1.75,0.148c0.875-0.251,1.836-0.393,2.889-0.393c1.656,0,3.08,0.353,4.297,0.938
	c1.098-0.437,2.346-0.694,3.761-0.694c1.305,0,2.467,0.219,3.501,0.595c1.074-0.479,2.303-0.778,3.702-0.822v-5.237
	C42.673,16.833,38.095,12.133,32.448,12.133z"/>
<rect x="21.857" y="26.997" fill="#FFFFFF" width="21.732" height="3.297"/>
<circle fill="#FFFFFF" cx="32.448" cy="8.806" r="7.539"/>
<circle fill="#030303" cx="32.448" cy="8.806" r="6.196"/>
<polygon fill="#030303" points="5.151,30.706 1.732,26.341 8.294,26.341 "/>
<path fill="#030303" d="M18.856,12.374c0,0-13.592-1.618-14.651,14.211h1.811C6.016,26.585,6.016,14.052,18.856,12.374z"/>
<polygon fill="#030303" points="44.844,56.521 43.503,61.899 39.469,56.725 "/>
<path fill="#030303" d="M23.776,56.99c0,0,6.57,10.795,18.427,2.783l-1.025-1.317C41.178,58.456,32.263,65.409,23.776,56.99z"/>
<polygon fill="#030303" points="46.725,11.738 51.811,9.531 50.159,15.881 "/>
<path fill="#030303" d="M59.388,29.189c0,0,4.804-12.793-8.474-17.337l-0.456,1.751C50.458,13.604,61.181,16.391,59.388,29.189z"/>
</svg>
