<?xml version="1.0" encoding="utf-8"?>
<!-- Generator: Adobe Illustrator 14.0.0, SVG Export Plug-In . SVG Version: 6.00 Build 43363)  -->
<!DOCTYPE svg PUBLIC "-//W3C//DTD SVG 1.1//EN" "http://www.w3.org/Graphics/SVG/1.1/DTD/svg11.dtd">
<svg version="1.1" id="Layer_1" xmlns="http://www.w3.org/2000/svg" xmlns:xlink="http://www.w3.org/1999/xlink" x="0px" y="0px"
	 width="64px" height="64px" viewBox="0 0 64 64" enable-background="new 0 0 64 64" xml:space="preserve">
<path fill="#FFFFFF" d="M2.887,44.714"/>
<path fill="#010101" d="M59.741,55.245c0,1.049-0.864,1.897-1.93,1.897H6.355c-1.065,0-1.93-0.849-1.93-1.897l0,0
	c0-1.047,0.865-1.897,1.93-1.897h51.457C58.877,53.348,59.741,54.198,59.741,55.245L59.741,55.245z"/>
<rect x="23.106" y="45.608" fill="#010101" width="17.3" height="8.954"/>
<path fill="#010101" d="M0.95,10.097v34.298c0,0,0.454,2.429,3.945,3.946h54.632c0,0,2.67-0.305,3.492-3.946v-5.882l0.031-28.384
	l-0.934-1.521l-1.252-1.167l-1.305-0.539L5.047,6.871C5.047,6.871,2.553,6.455,0.95,10.097v30.657V10.097v30.657"/>
<path fill="#FFFFFF" d="M3.507,11.538v31.476c0,0,0.416,2.228,3.62,3.621h50.136c0,0,2.448-0.279,3.202-3.621v-5.398l0.03-26.047
	l-0.857-1.396l-1.15-1.071l-1.196-0.495L7.268,8.577C7.268,8.577,4.976,8.196,3.507,11.538v28.133V11.538v28.133"/>
</svg>
