<?xml version="1.0" encoding="utf-8"?>
<!-- Generator: Adobe Illustrator 14.0.0, SVG Export Plug-In . SVG Version: 6.00 Build 43363)  -->
<!DOCTYPE svg PUBLIC "-//W3C//DTD SVG 1.1//EN" "http://www.w3.org/Graphics/SVG/1.1/DTD/svg11.dtd">
<svg version="1.1" id="Layer_1" xmlns="http://www.w3.org/2000/svg" xmlns:xlink="http://www.w3.org/1999/xlink" x="0px" y="0px"
	 width="64px" height="64px" viewBox="0 0 64 64" enable-background="new 0 0 64 64" xml:space="preserve">
<rect x="4.416" y="14.591" fill="none" stroke="#010101" stroke-width="4" width="55.168" height="46.282"/>
<line fill="none" stroke="#010101" stroke-width="4" x1="4.416" y1="29.154" x2="59.584" y2="29.154"/>
<path fill="#FFFFFF" stroke="#010101" stroke-width="4" d="M27.865,15.873c0,2.624-2.128,4.751-4.751,4.751l0,0
	c-2.624,0-4.751-2.127-4.751-4.751V7.878c0-2.624,2.127-4.751,4.751-4.751l0,0c2.624,0,4.751,2.127,4.751,4.751V15.873z"/>
<path fill="#FFFFFF" stroke="#010101" stroke-width="4" d="M46.189,15.873c0,2.624-2.127,4.751-4.751,4.751l0,0
	c-2.623,0-4.751-2.127-4.751-4.751V7.878c0-2.624,2.128-4.751,4.751-4.751l0,0c2.624,0,4.751,2.127,4.751,4.751V15.873z"/>
</svg>
