<?xml version="1.0" encoding="utf-8"?>
<!-- Generator: Adobe Illustrator 14.0.0, SVG Export Plug-In . SVG Version: 6.00 Build 43363)  -->
<!DOCTYPE svg PUBLIC "-//W3C//DTD SVG 1.1//EN" "http://www.w3.org/Graphics/SVG/1.1/DTD/svg11.dtd">
<svg version="1.1" id="Layer_1" xmlns="http://www.w3.org/2000/svg" xmlns:xlink="http://www.w3.org/1999/xlink" x="0px" y="0px"
	 width="64px" height="64px" viewBox="0 0 64 64" enable-background="new 0 0 64 64" xml:space="preserve">
<line stroke="#010101" stroke-linecap="round" x1="42.07" y1="18.283" x2="42.07" y2="8.659"/>
<line stroke="#010101" stroke-linecap="round" x1="42.07" y1="8.659" x2="9.209" y2="8.659"/>
<line fill="#010101" stroke="#010101" stroke-linecap="round" x1="9.209" y1="8.659" x2="9.209" y2="53.492"/>
<line stroke="#010101" stroke-linecap="round" x1="9.209" y1="53.492" x2="42.07" y2="53.492"/>
<line stroke="#010101" stroke-linecap="round" x1="42.07" y1="53.492" x2="42.07" y2="48.563"/>
<line stroke="#010101" stroke-linecap="round" x1="42.07" y1="48.563" x2="47.234" y2="43.398"/>
<line stroke="#010101" stroke-linecap="round" x1="47.234" y1="43.398" x2="47.234" y2="59.829"/>
<line stroke="#010101" stroke-linecap="round" x1="47.234" y1="59.829" x2="3.811" y2="59.829"/>
<line fill="#010101" stroke="#010101" stroke-linecap="round" x1="3.811" y1="59.829" x2="3.811" y2="3.73"/>
<line stroke="#010101" stroke-linecap="round" x1="3.811" y1="3.73" x2="47.234" y2="3.73"/>
<line stroke="#010101" stroke-linecap="round" x1="47.234" y1="3.73" x2="47.234" y2="9.833"/>
<line stroke="#010101" stroke-linecap="round" x1="47.234" y1="9.833" x2="42.07" y2="18.283"/>
<line stroke="#010101" stroke-width="4" stroke-linecap="round" x1="36.202" y1="17.109" x2="15.312" y2="17.109"/>
<line stroke="#010101" stroke-width="4" stroke-linecap="round" x1="35.968" y1="26.029" x2="15.077" y2="26.029"/>
<line stroke="#010101" stroke-width="4" stroke-linecap="round" x1="25.757" y1="34.948" x2="15.077" y2="34.948"/>
<line stroke="#010101" stroke-linecap="round" x1="34.324" y1="38" x2="33.15" y2="51.027"/>
<line stroke="#010101" stroke-linecap="round" x1="33.15" y1="51.027" x2="43.479" y2="44.514"/>
<path stroke="#010101" stroke-linecap="round" d="M43.479,44.514l16.666-28.813c-0.235-2.347-4.46-6.103-9.624-5.868L34.324,38"/>
<path stroke="#010101" stroke-linecap="round" d="M40.896,43.398"/>
<line stroke="#010101" stroke-linecap="round" x1="43.479" y1="44.514" x2="34.324" y2="38"/>
<g id="XMLID_1_">
	<g>
	</g>
	<g>
		<line fill="none" stroke="#010101" stroke-linecap="round" x1="33.74" y1="45.98" x2="37.06" y2="48.56"/>
	</g>
</g>
<rect x="42.07" y="48.563" stroke="#010101" stroke-linecap="round" width="5.164" height="11.267"/>
<rect x="3.811" y="53.492" stroke="#010101" stroke-linecap="round" width="38.26" height="6.337"/>
<rect x="3.811" y="3.73" stroke="#010101" stroke-linecap="round" width="5.398" height="49.762"/>
<rect x="9.209" y="3.73" stroke="#010101" stroke-linecap="round" width="38.025" height="4.929"/>
<rect x="42.07" y="9" stroke="#010101" stroke-linecap="round" width="2.582" height="4.471"/>
<rect x="44.375" y="8.458" stroke="#010101" stroke-width="0.25" stroke-linecap="round" width="2.583" height="2.333"/>
<rect x="44.652" y="10.792" stroke="#010101" stroke-width="0.25" stroke-linecap="round" width="1.236" height="1.583"/>
<rect x="42.07" y="13.471" stroke="#010101" stroke-width="0.25" stroke-linecap="round" width="1.291" height="3.113"/>
<rect x="42.531" y="13.748" stroke="#010101" stroke-width="0.25" stroke-linecap="round" width="1.659" height="1.279"/>
<rect x="33.289" y="47.771" stroke="#010101" stroke-width="0.25" stroke-linecap="round" width="2.755" height="1.718"/>
<rect x="33.737" y="46.952" stroke="#010101" stroke-width="0.25" stroke-linecap="round" width="1.254" height="1.048"/>
<rect x="33.15" y="49.209" stroke="#010101" stroke-width="0.25" stroke-linecap="round" width="1.516" height="1.166"/>
<rect x="45.708" y="44.514" stroke="#010101" stroke-width="0.25" stroke-linecap="round" width="1.334" height="4.695"/>
<rect x="44" y="46.625" stroke="#010101" stroke-width="0.25" stroke-linecap="round" width="2.375" height="2.209"/>
<rect x="44.833" y="45.584" stroke="#010101" stroke-width="0.25" stroke-linecap="round" width="0.875" height="1.277"/>
<rect x="43.208" y="47.27" stroke="#010101" stroke-width="0.25" stroke-linecap="round" width="0.792" height="1.291"/>
</svg>
