<?xml version="1.0" encoding="utf-8"?>
<!-- Generator: Adobe Illustrator 23.1.0, SVG Export Plug-In . SVG Version: 6.00 Build 0)  -->
<svg version="1.1" id="Layer_1" xmlns="http://www.w3.org/2000/svg" xmlns:xlink="http://www.w3.org/1999/xlink" x="0px" y="0px"
	 viewBox="0 0 200 200" style="enable-background:new 0 0 200 200;" xml:space="preserve">
<style type="text/css">
	.st0{fill:none;stroke:#000000;stroke-width:0.5;stroke-miterlimit:10;}
	.st1{fill:#FFFFFF;stroke:#000000;stroke-width:0.5;stroke-miterlimit:10;}
</style>
<g>
	<g>
		<path class="st0" d="M84.9,78.2c0-19.3,29.9-17.2,29.9,0H84.9z"/>
		<path class="st0" d="M106.4,107.4h1.3c0.8,0,1.4,0.6,1.4,1.4v7.1c0,0.8-0.6,1.4-1.4,1.4h-1.3c-0.8,0-1.4-0.6-1.4-1.4v-7.1
			C105,108.1,105.6,107.4,106.4,107.4z"/>
		<path class="st0" d="M92.2,107.4h1.3c0.8,0,1.4,0.6,1.4,1.4v7.1c0,0.8-0.6,1.4-1.4,1.4h-1.3c-0.8,0-1.4-0.6-1.4-1.4v-7.1
			C90.9,108.1,91.5,107.4,92.2,107.4z"/>
		<polygon class="st1" points="85,80.1 114.9,80.1 114.9,108.5 85,108.9 		"/>
		<path class="st0" d="M118.1,80.6h1.3c0.8,0,1.4,0.6,1.4,1.4v18.5c0,0.8-0.6,1.4-1.4,1.4h-1.3c-0.8,0-1.4-0.6-1.4-1.4V82
			C116.7,81.2,117.3,80.6,118.1,80.6z"/>
		<path class="st0" d="M80.4,80.5h1.3c0.8,0,1.4,0.6,1.4,1.4v18.5c0,0.8-0.6,1.4-1.4,1.4h-1.3c-0.8,0-1.4-0.6-1.4-1.4V81.9
			C79,81.1,79.6,80.5,80.4,80.5z"/>
		<line class="st0" x1="84.9" y1="62" x2="90" y2="67.1"/>
		<line class="st0" x1="110.1" y1="68.1" x2="114.8" y2="62.8"/>
		<circle class="st0" cx="93" cy="71.1" r="2"/>
		<circle class="st0" cx="106.7" cy="71.1" r="2"/>
	</g>
	<g>
		<path class="st0" d="M136.8,20H63.2c-5.8,0-10.5,4.7-10.5,10.5v138.9c0,5.8,4.7,10.5,10.5,10.5h73.5c5.8,0,10.5-4.7,10.5-10.5
			V30.5C147.3,24.7,142.6,20,136.8,20z"/>
		<rect x="57.4" y="27" class="st0" width="85.3" height="127.3"/>
		<path class="st0" d="M112.8,161.3H88.4c-1.7,0-3,1.3-3,3v1c0,1.7,1.3,3,3,3h24.4c1.7,0,3-1.3,3-3v-1
			C115.8,162.7,114.4,161.3,112.8,161.3z"/>
	</g>
</g>
</svg>
