<?xml version="1.0" encoding="utf-8"?>
<!-- Generator: Adobe Illustrator 23.1.0, SVG Export Plug-In . SVG Version: 6.00 Build 0)  -->
<svg version="1.1" id="Layer_1" xmlns="http://www.w3.org/2000/svg" xmlns:xlink="http://www.w3.org/1999/xlink" x="0px" y="0px"
	 viewBox="0 0 200 200" style="enable-background:new 0 0 200 200;" xml:space="preserve">
<style type="text/css">
	.st0{fill:#FFFFFF;}
	.st1{fill-rule:evenodd;clip-rule:evenodd;fill:none;stroke:#000000;stroke-width:0.5;stroke-miterlimit:10;}
	.st2{fill:none;stroke:#000000;stroke-width:0.5;stroke-miterlimit:10;}
	.st3{fill:none;stroke:#000000;stroke-width:0.5;stroke-linecap:round;stroke-miterlimit:10;}
	.st4{fill:#FFFFFF;stroke:#000000;stroke-width:0.5;stroke-linecap:round;stroke-miterlimit:10;}
</style>
<g>
	<g>
		<path class="st0" d="M45,132.6c-3.7,0-6.6-3-6.6-6.6V46.2c0-3.7,3-6.6,6.6-6.6h110.8c3.7,0,6.6,3,6.6,6.6V126c0,3.7-3,6.6-6.6,6.6
			H45z"/>
		<path d="M155.8,39.8c3.5,0,6.4,2.9,6.4,6.4V126c0,3.5-2.9,6.4-6.4,6.4H45c-3.5,0-6.4-2.9-6.4-6.4V46.2c0-3.5,2.9-6.4,6.4-6.4
			H155.8 M155.8,39.3H45c-3.8,0-6.9,3.1-6.9,6.9V126c0,3.8,3.1,6.9,6.9,6.9h110.8c3.8,0,6.9-3.1,6.9-6.9V46.2
			C162.7,42.4,159.6,39.3,155.8,39.3L155.8,39.3z"/>
	</g>
	<g>
		<path class="st0" d="M46.5,118.6c-3,0-5.4-2.4-5.4-5.4V48.2c0-3,2.4-5.4,5.4-5.4h107.8c3,0,5.4,2.4,5.4,5.4v65.1
			c0,3-2.4,5.4-5.4,5.4H46.5z"/>
		<path d="M154.3,43.1c2.8,0,5.1,2.3,5.1,5.1v65.1c0,2.8-2.3,5.1-5.1,5.1H46.5c-2.8,0-5.1-2.3-5.1-5.1V48.2c0-2.8,2.3-5.1,5.1-5.1
			H154.3 M154.3,42.6H46.5c-3.1,0-5.6,2.5-5.6,5.6v65.1c0,3.1,2.5,5.6,5.6,5.6h107.8c3.1,0,5.6-2.5,5.6-5.6V48.2
			C159.9,45.1,157.3,42.6,154.3,42.6L154.3,42.6z"/>
	</g>
	<g>
		<ellipse cx="100.4" cy="125.1" rx="1.9" ry="2.2"/>
	</g>
	<polygon class="st1" points="117.2,156.2 83.7,156.3 92.5,132.3 108.3,132.3 	"/>
	<path class="st1" d="M74.4,160.1h50.9c0.3,0,0.6-0.3,0.6-0.6v-2.2c0-0.3-0.3-0.6-0.6-0.6H74.4c-0.3,0-0.6,0.3-0.6,0.6v2.2
		C73.9,159.9,74.1,160.1,74.4,160.1z"/>
	<g>
		<line class="st2" x1="43.3" y1="171.5" x2="127.9" y2="171.5"/>
		<line class="st2" x1="60.5" y1="177.4" x2="37.2" y2="177.4"/>
		<line class="st2" x1="83.7" y1="177.4" x2="147.5" y2="177.4"/>
		<line class="st2" x1="153.6" y1="177.4" x2="163.4" y2="177.4"/>
	</g>
	<g>
		<g>
			<line class="st3" x1="126.6" y1="61.5" x2="126.6" y2="75.1"/>
			<line class="st3" x1="126.7" y1="61.6" x2="136.9" y2="68.6"/>
			<line class="st3" x1="126.6" y1="75.2" x2="137" y2="68.7"/>
		</g>
		<rect x="115.2" y="56" class="st3" width="31.9" height="24.5"/>
		<line class="st3" x1="125.7" y1="87.9" x2="148.3" y2="87.9"/>
		<line class="st3" x1="114" y1="107.9" x2="147.9" y2="107.9"/>
		<line class="st3" x1="114" y1="101.5" x2="147.9" y2="101.5"/>
		<line class="st3" x1="114" y1="95.1" x2="147.9" y2="95.1"/>
	</g>
	<path class="st2" d="M54.5,34.5h-8c0,0-13,0-12.7,15.9c0.5,27.6,0,24.5,0,24.5"/>
	<path class="st2" d="M166.5,55v-7.5c0,0,2-11-9-11"/>
	<g>
		<rect x="70.8" y="85.7" class="st3" width="13.4" height="15.4"/>
		<rect x="56" y="67.6" class="st4" width="6.7" height="8.1"/>
		<rect x="92.3" y="68.1" class="st4" width="6.7" height="8.1"/>
		<circle class="st4" cx="77.5" cy="71.6" r="15.4"/>
		<polygon class="st4" points="107.7,99.8 107.7,107.2 46.6,107.2 46.6,99.8 67.6,92.2 68.8,91.8 77.5,101.2 87.6,92.5 		"/>
		<line class="st3" x1="87.6" y1="102.5" x2="87.6" y2="92.5"/>
		<polyline class="st3" points="87.6,102.5 67.5,102.5 67.5,92.5 		"/>
		<path class="st3" d="M84,58.1c0,0-0.4,2.6-2.7,5.2c-2.7,3-8.1,5.8-18.5,4.4"/>
		<path class="st3" d="M92.3,68.3c0,0-6.7,0.7-10.7-5.4"/>
		<path class="st3" d="M96,68c0,0-18.3-36.7-36.6,0"/>
	</g>
	<g>
		<path class="st3" d="M143.4,39.1H97.5c0,0,0-3.8,5.9-3.8"/>
		<path class="st3" d="M109.4,27.8c0,0-4.3-1.1-5.9,7.5"/>
		<path class="st3" d="M119.1,23.5c0,0-7-3.8-9.7,3.8"/>
		<path class="st3" d="M133.7,28.9c0,0-3.2-15.6-14-5.4"/>
		<path class="st3" d="M142.8,38c4.9-2.7-3.8-14-9.2-8.6"/>
	</g>
</g>
</svg>
