<?xml version="1.0" encoding="utf-8"?>
<!-- Generator: Adobe Illustrator 23.1.0, SVG Export Plug-In . SVG Version: 6.00 Build 0)  -->
<svg version="1.1" id="Layer_1" xmlns="http://www.w3.org/2000/svg" xmlns:xlink="http://www.w3.org/1999/xlink" x="0px" y="0px"
	 viewBox="0 0 100 100" style="enable-background:new 0 0 100 100;" xml:space="preserve">
<style type="text/css">
	.st0{fill:#FFFFFF;}
	.st1{fill:none;stroke:#000000;stroke-miterlimit:10;}
</style>
<g>
	<g>
		<g id="XMLID_1_">
			<g>
				<path d="M75.4,56.4c2,0,2.9,2.6,1.2,3.9c-0.6,0.4-0.9,1.1-0.9,1.7s0.3,1.3,0.9,1.7c0.6,0.4,0.9,1.1,0.9,1.7c0,1.2-1,2.4-2.5,2.1
					c-0.1,0-0.3,0-0.4,0c-1.3,0-2.3,1.2-2.1,2.5c0,0.1,0,0.3,0,0.4c0,2-2.6,2.9-3.9,1.2c-0.4-0.6-1.1-0.9-1.7-0.9
					c-0.7,0-1.3,0.3-1.7,0.9c-0.4,0.6-1.1,0.9-1.7,0.9c-1.2,0-2.4-1-2.1-2.5c0-0.1,0-0.3,0-0.4c0-1.3-1.2-2.3-2.5-2.1
					c-0.1,0-0.3,0-0.4,0c-2,0-2.9-2.6-1.2-3.9c0.6-0.4,0.9-1.1,0.9-1.7s-0.3-1.3-0.9-1.7c-0.6-0.4-0.9-1.1-0.9-1.7
					c0-1.2,1-2.4,2.5-2.1c0.1,0,0.3,0,0.4,0c1.3,0,2.3-1.2,2.1-2.5c0-0.1,0-0.3,0-0.4c0-2,2.6-2.9,3.9-1.2c0.4,0.6,1.1,0.9,1.7,0.9
					c0.7,0,1.3-0.3,1.7-0.9c1.3-1.9,4.2-0.7,3.8,1.6c0,0.1,0,0.3,0,0.4c0,1.3,1.2,2.3,2.5,2.1C75.1,56.4,75.3,56.4,75.4,56.4z
					 M72,62c0-2.8-2.2-5-5-5c-2.8,0-5,2.2-5,5c0,2.8,2.2,5,5,5C69.7,66.9,72,64.7,72,62z"/>
				<path class="st0" d="M67,57c2.8,0,5,2.2,5,5c0,2.8-2.2,5-5,5c-2.8,0-5-2.2-5-5C62,59.2,64.2,57,67,57z"/>
				<path d="M54.3,35.5c3.3,0,4.9,4.5,2,6.5c-1,0.7-1.5,1.8-1.5,3s0.5,2.2,1.5,3c1.1,0.8,1.6,1.8,1.6,2.9c0,2.1-1.8,4-4.3,3.6
					c-0.2,0-0.4-0.1-0.7-0.1c-2.2,0-3.9,2-3.5,4.2c0,0.3,0.1,0.5,0.1,0.7c0,3.3-4.5,4.9-6.5,2c-0.7-1-1.8-1.5-3-1.5s-2.2,0.5-3,1.5
					c-0.8,1.1-1.8,1.6-2.9,1.6c-2.1,0-4-1.8-3.6-4.3c0-0.2,0.1-0.4,0.1-0.7c0-2.2-2-3.9-4.2-3.5c-0.3,0-0.5,0.1-0.7,0.1
					c-3.3,0-4.9-4.5-2-6.5c1-0.7,1.6-1.8,1.6-3s-0.5-2.2-1.6-3c-1.1-0.8-1.6-1.8-1.6-2.9c0-2.1,1.8-4,4.3-3.6c0.2,0,0.4,0.1,0.7,0.1
					c2.2,0,3.9-2,3.5-4.2c0-0.3-0.1-0.5-0.1-0.7c0-3.3,4.5-4.9,6.5-2c0.7,1,1.8,1.6,3,1.6s2.2-0.5,3-1.6c2.2-3.2,7.2-1.1,6.5,2.7
					c0,0.2-0.1,0.4-0.1,0.7c0,2.2,2,3.9,4.2,3.5C53.9,35.5,54.1,35.5,54.3,35.5z M48.5,45c0-4.7-3.8-8.5-8.5-8.5s-8.5,3.8-8.5,8.5
					s3.8,8.5,8.5,8.5S48.5,49.7,48.5,45z"/>
				<circle class="st0" cx="40" cy="45" r="8.5"/>
			</g>
			<g>
				<path class="st1" d="M43,28.7c2.2-3.2,7.2-1.1,6.5,2.7c0,0.2-0.1,0.4-0.1,0.7c0,2.2,2,3.9,4.2,3.5c0.3,0,0.5-0.1,0.7-0.1
					c3.3,0,4.9,4.5,2,6.5c-1,0.7-1.5,1.8-1.5,3s0.5,2.2,1.5,3c1.1,0.8,1.6,1.8,1.6,2.9c0,2.1-1.8,4-4.3,3.6c-0.2,0-0.4-0.1-0.7-0.1
					c-2.2,0-3.9,2-3.5,4.2c0,0.3,0.1,0.5,0.1,0.7c0,3.3-4.5,4.9-6.5,2c-0.7-1-1.8-1.5-3-1.5s-2.2,0.5-3,1.5
					c-0.8,1.1-1.8,1.6-2.9,1.6c-2.1,0-4-1.8-3.6-4.3c0-0.2,0.1-0.4,0.1-0.7c0-2.2-2-3.9-4.2-3.5c-0.3,0-0.5,0.1-0.7,0.1
					c-3.3,0-4.9-4.5-2-6.5c1-0.7,1.6-1.8,1.6-3s-0.5-2.2-1.6-3c-1.1-0.8-1.6-1.8-1.6-2.9c0-2.1,1.8-4,4.3-3.6c0.2,0,0.4,0.1,0.7,0.1
					c2.2,0,3.9-2,3.5-4.2c0-0.3-0.1-0.5-0.1-0.7c0-3.3,4.5-4.9,6.5-2c0.7,1,1.8,1.6,3,1.6S42.2,29.7,43,28.7z"/>
				<circle class="st1" cx="40" cy="45" r="8.5"/>
				<path class="st1" d="M68.7,52.4c1.3-1.9,4.2-0.7,3.8,1.6c0,0.1,0,0.3,0,0.4c0,1.3,1.2,2.3,2.5,2.1c0.1,0,0.3,0,0.4,0
					c2,0,2.9,2.6,1.2,3.9c-0.6,0.4-0.9,1.1-0.9,1.7s0.3,1.3,0.9,1.7c0.6,0.4,0.9,1.1,0.9,1.7c0,1.2-1,2.4-2.5,2.1
					c-0.1,0-0.3,0-0.4,0c-1.3,0-2.3,1.2-2.1,2.5c0,0.1,0,0.3,0,0.4c0,2-2.6,2.9-3.9,1.2c-0.4-0.6-1.1-0.9-1.7-0.9
					c-0.7,0-1.3,0.3-1.7,0.9c-0.4,0.6-1.1,0.9-1.7,0.9c-1.2,0-2.4-1-2.1-2.5c0-0.1,0-0.3,0-0.4c0-1.3-1.2-2.3-2.5-2.1
					c-0.1,0-0.3,0-0.4,0c-2,0-2.9-2.6-1.2-3.9c0.6-0.4,0.9-1.1,0.9-1.7s-0.3-1.3-0.9-1.7c-0.6-0.4-0.9-1.1-0.9-1.7
					c0-1.2,1-2.4,2.5-2.1c0.1,0,0.3,0,0.4,0c1.3,0,2.3-1.2,2.1-2.5c0-0.1,0-0.3,0-0.4c0-2,2.6-2.9,3.9-1.2c0.4,0.6,1.1,0.9,1.7,0.9
					C67.6,53.3,68.3,53,68.7,52.4z"/>
				<path class="st1" d="M72,62c0-2.8-2.2-5-5-5c-2.8,0-5,2.2-5,5c0,2.8,2.2,5,5,5C69.7,66.9,72,64.7,72,62z"/>
			</g>
		</g>
	</g>
</g>
</svg>
